<svg viewBox="0 0 19 23" fill="none" xmlns="http://www.w3.org/2000/svg">
<path fill-rule="evenodd" clip-rule="evenodd" d="M9.5001 0C4.25643 0 0 4.17113 0 9.30938C0 12.2277 1.37244 15.0195 3.07909 17.2965C5.48048 20.5017 8.48178 22.6625 8.50813 22.6818C9.09883 23.1061 9.90117 23.1061 10.4919 22.6818C10.5183 22.6625 13.5197 20.5017 15.9209 17.2965C17.6276 15.0194 19 12.2276 19 9.30938C19 4.17099 14.7434 0 9.4999 0H9.5001ZM9.5001 5.47636C11.6588 5.47636 13.412 7.19422 13.412 9.30957C13.412 11.4251 11.6588 13.143 9.5001 13.143C7.34141 13.143 5.58816 11.4251 5.58816 9.30957C5.58816 7.19422 7.34141 5.47636 9.5001 5.47636Z" fill="#E94949"/>
</svg>
