<svg viewBox="0 0 574 574" fill="none" xmlns="http://www.w3.org/2000/svg">
<path d="M0 0H574V574H0V0Z" fill="#C8DCE7"/>
<path d="M272.333 278.476C268.852 278.476 266.19 275.814 266.19 272.333C266.19 268.852 268.852 266.19 272.333 266.19C275.814 266.19 278.476 268.852 278.476 272.333C278.476 275.814 275.814 278.476 272.333 278.476ZM272.333 270.286C271.105 270.286 270.286 271.105 270.286 272.333C270.286 273.562 271.105 274.381 272.333 274.381C273.562 274.381 274.381 273.562 274.381 272.333C274.381 271.105 273.562 270.286 272.333 270.286Z" fill="black" fill-opacity="0.21"/>
<path d="M307.143 258H266.19C261.686 258 258 261.686 258 266.19V307.143C258 311.648 261.686 315.333 266.19 315.333H307.143C311.648 315.333 315.333 311.648 315.333 307.143V266.19C315.333 261.686 311.648 258 307.143 258ZM266.19 262.095H307.143C309.395 262.095 311.238 263.938 311.238 266.19V294.038L301.205 284.005C298.748 281.548 294.857 281.548 292.605 284.005L282.367 294.243L278.271 291.171C276.019 289.533 272.743 289.533 270.49 291.376L262.095 298.543V266.19C262.095 263.938 263.938 262.095 266.19 262.095ZM307.143 311.238H266.19C263.938 311.238 262.095 309.395 262.095 307.143V304.071L273.152 294.448C273.971 293.833 274.995 293.833 275.61 294.448L279.705 297.519C281.343 298.748 283.595 298.543 285.029 297.11L295.267 286.871C296.086 286.052 297.314 286.052 298.133 286.871L311.033 299.771V307.143C311.238 309.395 309.395 311.238 307.143 311.238Z" fill="black" fill-opacity="0.21"/>
</svg>
