<?xml version="1.0" encoding="utf-8"?>
<!-- Generator: Adobe Illustrator 27.8.0, SVG Export Plug-In . SVG Version: 6.00 Build 0)  -->
<svg version="1.1" id="Ebene_1" xmlns="http://www.w3.org/2000/svg" xmlns:xlink="http://www.w3.org/1999/xlink" x="0px" y="0px"
	 viewBox="0 0 1500 1000" style="enable-background:new 0 0 1500 1000;" xml:space="preserve">
<style type="text/css">
	.st0{clip-path:url(#SVGID_00000176040895130792038510000007490550880649428612_);fill:#00ADBA;}
	.st1{fill:#020304;}
	.st2{fill:#010202;}
	.st3{fill:#08AEBA;}
</style>
<g>
	<g>
		<defs>
			<rect id="SVGID_1_" x="637.9" y="187.8" width="536.3" height="531.6"/>
		</defs>
		<clipPath id="SVGID_00000044157704190955031630000004808486508694572217_">
			<use xlink:href="#SVGID_1_"  style="overflow:visible;"/>
		</clipPath>
		<path style="clip-path:url(#SVGID_00000044157704190955031630000004808486508694572217_);fill:#00ADBA;" d="M1171.8,412
			l-183.7-75.5c0,0-3.3-1.3-3.1-4.9l3.6-71.4c0,0,0.2-3.5,3.7-3.5h114.7c0,0,3.6,0,0.3-1.5L961,188.3c0,0-3.2-1.5-6.1,0.6
			l-92.9,65.7c0,0-2.9,2.1,0.7,2.1h64.3c0,0,3.6,0,3.9,3.5l4.9,51.5c0,0,0.3,3.5-2.9,2.2l-90.4-37.8c0,0-3.3-1.4-4.9,1.8L729,493.4
			c0,0-1.6,3.2,1.5,4.9l234.9,129.8c0,0,3.1,1.7,3.3-1.8c0-0.1,0.3-5.2,12.9-234.3c0,0,0.2-3.5,3.4-2c46.9,21.9,58.5,70.3,60.3,99.8
			c2.8,46-25,149.2-89.3,172.4c0,0-3.3,1.2-6.9,0.7c-139-18.5-266.2-100.2-250-191.7c19.4-109.3,78.3-260.5,78.3-260.5
			s1.3-3.3-2.3-3.3H641.5c0,0-3.6,0-3.6,3.6v355.5c0,0,0,3.6,2.9,5.6c71.1,48.8,172.3,110.3,239.8,146.3c0,0,3.1,1.7,6.7,1.2
			c192.3-25.3,274.4-262.7,286.7-302.6C1174,416.7,1175.1,413.3,1171.8,412 M940.8,434.7c-0.9,41.6-14.8,119-46.3,110.1
			c-35.4-10-90.7-38.4-109.9-95.4c0,0-1.1-3.4,0.5-6.5c31.7-62.2,99.7-81.1,129.3-77.7C932.5,367.1,941.6,396.3,940.8,434.7
			 M968.8,626.3L968.8,626.3C968.8,626.3,968.8,626.3,968.8,626.3 M870.5,399.1c28.4,0,51.5,23.1,51.5,51.5
			c0,28.4-23.1,51.5-51.5,51.5c-28.4,0-51.5-23.1-51.5-51.5C818.9,422.3,842.1,399.1,870.5,399.1"/>
	</g>
	<path class="st1" d="M628.4,398.1c2.6,5.7,6.6,7.7,10.2,10.2c1.2-1,2.4-2,3.6-3.1c-0.4-2.8-0.7-5.6-1.1-8.3
		c-0.4-0.8-0.8-1.6-1.1-2.4C636.2,395.7,632.3,396.9,628.4,398.1L628.4,398.1z"/>
	<path class="st1" d="M765.6,372.3c-0.5,1.4-1,2.7-1.5,4.1c1.7,1.7,3.4,3.3,5.1,5c6.9-6.4,5.6-5,8.8-13.8
		C773.8,369.1,769.7,370.7,765.6,372.3L765.6,372.3z"/>
	<path class="st1" d="M607.3,421.7c-4.6,4.6-9.2,9.2-13.8,13.8"/>
	<path class="st1" d="M574.1,58.2c3.2-3.1,4.8-4.4,4.6-10.1c-1.6-1.1-0.7-0.1-1.9-2.7c-2.7-1.1-5.5-1.3-9.4-0.5
		c-0.8,1.3-1.7,2.6-2.5,3.9C566.3,56.2,568.8,58.5,574.1,58.2L574.1,58.2z"/>
	<path class="st1" d="M575.1,85.8c3-0.8,3.8-1.5,4.2-3.8c1.7-3.4-0.7-21.8-4.4-24.3c-2-2.1-4.8-1.2-8.2-0.9c-0.7,0.5-1.3,0.9-2,1.4
		c-1.1,3.7-0.7,21.2,3,26C569.5,86,572.5,85.7,575.1,85.8L575.1,85.8z"/>
	<path class="st1" d="M967.2,320c-1.2-5.5-2.3-11-3.5-16.5c-16.3-32.1-24.2-67.9-42.9-92.9c-41-54.7-88.1-74.7-148.5-97.1
		c-24-8.9-46.7-16.8-74-21.2c-26.5-4.2-92.9-23.5-117.2-7.5c-0.9,7.8,11.1,4.7,14.4,9.2c-1-0.1-1.9-0.2-2.9-0.2
		c-0.9,0.7-1.9,1.4-2.8,2.1c0.5,1.4,1,2.9,1.5,4.3c-3-0.4-8.9-4.9-10.3-7.8c-1.6-0.2-3.2-0.5-4.9-0.7c-5.6,6.4-6.9,14.7-10.6,22.2
		c-5.4,10.8-10.7,21-15.7,32.4c-4.5,10.3-10.8,20.9-14.5,31.6c-9.6,28.2-15.8,60.6-21,88.5c-2,10.5,0.3,18.8,0.1,29.5
		c-0.7,37.7,3.2,79,9.2,116.5c-7.3-0.9-14.5-1.8-21.8-2.7c-31.9-1.3-71.7,9.2-90.3,28.2c-6.3-0.8-2.9-17.5-4-22.5
		c-3.4-14.9,5.5-61.5,10.1-75.1c10.5-31.3,21.9-60.3,35.2-89.6c5.5-12,13.6-22.9,19.9-34.3c5.1-9.2,8.6-19.5,15.4-27.6
		c16.4-19.1,32.7-38.2,49.1-57.3c8.8-9.2,15.9-18.7,24.4-27.4c4.1-4.2,9.1-6.3,11.3-11.6c-0.2-0.9-0.4-1.8-0.6-2.7
		c-11.9-5.2-21.4,3.1-35.2,5.6c-9.7,1.8-23,13.2-31.4,17.8c-19.9,11.2-38.4,20.8-55.2,33.9c-28,21.9-43.7,44.5-63.7,70.6
		c-1.4-0.6-12.7,15.9-14.2,18.9c-5.2,7.2-10.3,14.4-15.5,21.5c-5.3,13.5-10.5,24.9-15.1,38.8c-4.7,20.3-9.3,40.7-14,61
		c0.2,4,0.4,8,0.6,12.1c-1.4,5.8-2.4,10-2.8,15.7c0.3,2.7,0.7,5.5,1,8.2c-4.2,16.7-2.4,41.5,2,65.2c0.8,0.3,1.7,0.5,2.5,0.8
		c5,1.4,8.4-7.1,10.7-10.1c5.2-6.9,16.9-16.6,28.6-17.7c10.4-1,25,6.8,31,13.7c3.9,4.5-1.2,9.9,6.9,9.1c6.1-7.4,9.8-16.3,18.6-22.3
		c18.6-12.7,76.5-20,92.8-13.8c5.4,2,6.4,7.7,9,11.9c0.8,0.1,1.6,0.2,2.4,0.4c15.2-12.7,28.1-33.1,54-33.1c3.8-0.6,7.5-1.2,11.3-1.8
		c8.4,1.6,16.7,3.2,25.1,4.8c5.7,1.9,11.3,7.3,18.1,6.9c4,4.3,17.4,69.7,18.5,82.8c-0.4,0.4,31.5,140.8,31.1,141.2l13.9,14.3
		c-0.9-7.5-33.6-161.7-34.8-171.5c-0.8-6.9-4.8-12.7-5.4-20.7c-1.4-18.1-6.3-41.4-9.7-58.2c11.6-21,58-24.3,79.7-21.5
		c10.4,1.4,24.1-1.2,27.5,11.2c1.1,0,2.2,0.1,3.3,0.1c7.6-8.8,9.3-15.9,21.7-23c19.5-11.2,71.7-13.8,86.9-7.3
		c4.8,2,7.1,7.6,11.4,10.4c0.9-0.2,1.8-0.4,2.7-0.6c4.9-4.8,5-13.8,12.2-19.4c13.4-10.4,55.6-14.4,67.7-7.3c1.4,1.7,2.7,3.4,4,5.1
		c0.9,1.5,0.7,1.2,1.9,1.9c2.1-1.9,2-3.7,3.3-5.9C973.1,334.2,970.1,326.9,967.2,320L967.2,320z M442.3,259.3
		c-0.5,0.6-1,1.2-1.5,1.8c-0.4-0.2-0.7-0.4-1.1-0.7c-0.1-0.4-0.2-0.9-0.3-1.3c0.7-0.2,1.5-0.4,2.2-0.5c0.2,0.1,0.4,0.2,0.6,0.3
		C442.3,259,442.3,259.2,442.3,259.3L442.3,259.3z M433.9,236c-0.3-0.4-0.5-0.8-0.8-1.2c3.5-0.4,9.1-0.7,11.5,1
		C441.1,235.8,437.5,235.9,433.9,236L433.9,236z M430.7,228.3c3.4-0.7,8.3-1.3,10.7-0.2c0,0.1,0.1,0.3,0.1,0.4
		C438.4,229.1,433,229.5,430.7,228.3L430.7,228.3z M448.2,242.9c-0.1-0.4-0.2-0.9-0.3-1.3c0.5,0,1,0.1,1.4,0.1
		C449,242.1,448.6,242.5,448.2,242.9L448.2,242.9z M453.6,236c-2.5,0.1-4.9,0.2-7.4,0.4c-0.3-0.4-0.5-0.8-0.8-1.2
		c3-0.7,4.9-0.9,7-0.3c0.5,0,1,0.1,1.4,0.1C453.8,235.3,453.7,235.6,453.6,236L453.6,236z M457.9,230.3c-4.5-0.4-8.9-1.5-14.4-1.2
		c-0.3-0.4-0.5-0.8-0.8-1.2c5.1-0.3,10.2-0.6,15.3-0.9c0.2,0.3,0.4,0.5,0.7,0.8C458.1,228.9,458,228.5,457.9,230.3L457.9,230.3z
		 M461.7,222.8c-0.6,0.8-1.2,1.5-1.8,2.3c-4.2-3.6-12.5-3.9-18.4-2.6c0-0.1-0.1-0.3-0.1-0.4c5.9-0.8,11.8-1.6,17.7-2.4
		c0-1.3,0-2.5,0-3.8c2-0.2,4-0.3,6-0.5C464,217.8,462.8,220.3,461.7,222.8L461.7,222.8z M470.8,204.2c-0.3-1.2-0.6-2.4-0.9-3.5
		c0.3-0.2,0.5-0.4,0.8-0.7c3.4-0.2,2.6-2.1,2.5-5.3c1.2-0.8,2.4-1.5,3.7-2.3c1.5,0.5,0.8-0.1,1.8,1.5
		C475.3,196.8,475.2,201.8,470.8,204.2L470.8,204.2z M484.4,184.5c-0.8,0-1.5,0.1-2.3,0.1c-0.2-0.7-0.4-1.5-0.5-2.2
		c1.1,0,2.2,0.1,3.3,0.1C484.7,183.2,484.6,183.8,484.4,184.5L484.4,184.5z M489.7,179c-0.6,0.1-1.2,0.3-1.8,0.4
		c-0.6-0.6-1.2-1.3-1.9-1.9c0.8-1,1.3-1.1,1.8-2.3c0-0.8-0.1-1.5-0.1-2.3c2-0.4,2.5-0.3,3.8,0c0.3-0.2,0.5-0.4,0.8-0.7
		c0.8-2.6,0.5-2-0.7-5c1.4,0.1,2.9,0.2,4.3,0.4c0.5,0.2,1,0.4,1.5,0.6C494.8,171.8,492.2,175.4,489.7,179L489.7,179z M536.4,123.7
		c-0.2-0.7-0.4-1.5-0.5-2.2c0.2,0.1,0.4,0.2,0.5,0.3c0.3,0.1,0.7,0.2,1,0.2C537.1,122.6,536.7,123.1,536.4,123.7L536.4,123.7z
		 M555.7,94.7c1.5-0.1,3.1-0.1,4.6-0.2c0.3-0.1,0.6-0.1,0.9-0.2c-0.2,2.6-1.3,2.4-2.3,4.3c-3,1-3.9-0.1-6.1-1.8
		C553.9,96,554.8,95.4,555.7,94.7L555.7,94.7z M543.9,100.3c0.1-0.3,0.2-0.7,0.2-1c0.7-0.2,1.5-0.4,2.2-0.5c-0.2,0.5-0.4,1-0.6,1.5
		c-0.6,0.1-1.2,0.3-1.8,0.4C544,100.6,544,100.5,543.9,100.3L543.9,100.3z M550.4,103.9c0.9-0.2,1.8-0.4,2.7-0.6
		c0.1,0.4,0.2,0.9,0.3,1.3c-4.5,4.2-6.5,10.4-12.2,13.7c-0.6-0.6-1.2-1.3-1.9-1.9c0.3-1.5,0.5-2.9,0.8-4.4
		C544.7,110.4,547.3,108.1,550.4,103.9L550.4,103.9z M537.7,101.8c1.7,0,1.4,0,2.4,0.4c0.1,0.6,0.3,1.2,0.4,1.8
		c-2.9,1.9-5.1,4.2-8.5,3.5c-1.5-0.5-0.8,0.1-1.8-1.5C532.8,104.6,535.2,103.2,537.7,101.8L537.7,101.8z M523.2,109.5
		c0.8,0,1.5-0.1,2.3-0.1c0.2,0.7,0.4,1.5,0.5,2.2c-1.3-0.2-2.6-0.3-3.9-0.5c-0.3,0.1-0.6,0.1-0.9,0.2
		C521.9,110.8,522.5,110.1,523.2,109.5L523.2,109.5z M525.1,131.1c1.7-1.1,1.3-0.8,3.7-0.4c0.5-1.1,1.1-2.1,1.6-3.2
		c0.6-0.1,1.2-0.3,1.8-0.4c0.1,0.6,0.3,1.2,0.4,1.8c-8,5.5-26.3,26.1-30.2,34.5c-3.6-0.7-7.2-1.4-10.8-2.1c-0.5-0.2-1-0.4-1.5-0.6
		c0-0.1-0.1-0.3-0.1-0.4c2.8,0.1,5.7,0.2,8.5,0.3c2.3-2.4,3.5-3.3,2.3-8.1c3.5-1.6,5.4-3.6,9.1-5c0.4-1.8,0.3-2-0.5-4.1
		C514.1,143.7,524.7,135.6,525.1,131.1L525.1,131.1z M512.1,116.4c1.3-1.1,2.6-2.2,3.9-3.3c0.9,0.6,1.8,1.1,2.7,1.7
		c0.2,0.7,0.4,1.5,0.5,2.2c-2.4-0.1-4.7-0.1-7.1-0.2C512.2,116.7,512.2,116.5,512.1,116.4L512.1,116.4z M486.3,130.1
		c7.1-3.6,13-9.3,22-11.9c0.4,0.2,0.7,0.4,1.1,0.7c0,0.5-0.1,1-0.1,1.4c-1.1,3.4-5.6,4.6-9.9,3.8c-0.6,1.2-1.3,2.5-1.9,3.7
		c-0.2,0.2-7.9,4-10.7,4.4C486.7,131.6,486.5,130.8,486.3,130.1L486.3,130.1z M481.5,133.1c0.6-0.1,1.2-0.3,1.8-0.4
		c0.2,0.7,0.4,1.5,0.5,2.2c-4.9,4.4-8.8,7.7-16.3,8.1c-0.2,2.9-0.4,3.3,1,6.3c-0.3,0.1-0.6,0.1-0.9,0.2c-0.5,0.5-11.1,3.7-11.3,3.7
		c-1,1.4-0.8,3.2-1.7,4.6c-1,1-5.7,3.2-7.5,4.1c-1.1-0.2-2.3-0.4-3.4-0.6C445.1,153.5,473.4,139.1,481.5,133.1L481.5,133.1z
		 M422.5,180.6c4.7-5,9.5-10.1,14.2-15.1c1.3-0.3,2.7-0.6,4-1c0.9,1.3,1.9,2.7,2.8,4c-2.1,2.3-4.3,0.4-6.7,1.6
		c-1,1.8-0.1,3.5-1.6,5.1c0.2,0.7,0.4,1.5,0.5,2.2c2.3,0.4,4.6,0.8,6.8,1.2c0.2,0.3,0.4,0.5,0.7,0.8c-0.3,0.2-0.5,0.4-0.8,0.7
		c-6.8-1-12.6-1.8-16.7,2.6c-1-0.2-2-0.5-3-0.7C422.7,181.5,422.6,181,422.5,180.6L422.5,180.6z M408.5,198.5
		c3.1-4,6.2-8.1,9.3-12.1c0.9-0.2,1.8-0.4,2.7-0.6c0.4,0.4,0.8,0.7,1.2,1.1c-2.5,2.5-2.9,3-6.4,4.8c-0.1,0.8-0.2,1.6-0.4,2.4
		c0.7,0.4,1.5,0.9,2.2,1.3c-1.2,1.6-1.6,1.9-1.8,4.2c-1.8,0.1-3.7,0.3-5.5,0.4c-0.4-0.2-0.7-0.4-1.1-0.7
		C408.6,199.1,408.6,198.8,408.5,198.5L408.5,198.5z M429.2,228.2c-1.2,0.7,0,0.8-1.3,0.3C428.4,228.4,428.8,228.3,429.2,228.2
		L429.2,228.2z M419.7,196.3c-1-0.4-0.3,0-1.1-0.7C419,195.8,419.3,196,419.7,196.3L419.7,196.3z M425.2,248.4
		c-0.2-0.3-0.4-0.5-0.7-0.8C425.5,248,424.9,248.1,425.2,248.4L425.2,248.4z M417.3,229.2c0.1-0.3,0.2-0.7,0.2-1
		c0.9-0.1,1.8-0.1,2.8-0.2c-0.7,0.9-0.5,0.7-2,1.4C417.9,229.4,417.6,229.3,417.3,229.2L417.3,229.2z M424,253.4
		c-1-0.4-0.3,0-1.1-0.7C423.3,252.9,423.7,253.2,424,253.4L424,253.4z M404.4,202.8c0.7-0.2,1.5-0.4,2.2-0.5
		c-0.3,1.5,0.1,0.5-0.6,1.5c-0.7,0.9-0.5,0.7-2,1.4c-0.2-0.3-0.4-0.5-0.7-0.8C403.7,203.9,404,203.3,404.4,202.8L404.4,202.8z
		 M398,211.3c1.2-1.1,2.3-2.1,3.5-3.2c1.1,0.2,2.3,0.4,3.4,0.6c0.9,1,1.2,1.4,1.7,3.3c-2.2,1.6-5.2,1.1-8.2,1
		C398.3,212.5,398.1,211.9,398,211.3L398,211.3z M411.4,253.6c-0.1-0.3-0.1-0.6-0.2-0.9C411.8,253.4,411.7,252.7,411.4,253.6
		L411.4,253.6z M390.7,222c2.8,0.4,5.5,0.9,8.3,1.3c-0.1,0.3-0.2,0.7-0.2,1c-2.2-0.2-4.5-0.5-6.7-0.7
		C390.2,222.8,391.3,223.5,390.7,222L390.7,222z M331.5,409.3c1.5-0.1,3.1-0.1,4.6-0.2c1.4,2.9,0.4,5,1.2,9.1
		c-1.6,0.4-3.3,0.8-4.9,1.2c-0.3-0.1-0.7-0.2-1-0.2C331.5,415.8,331.5,412.5,331.5,409.3L331.5,409.3z M331.5,421
		c1.8,0.5,5.6,1.4,6.8,3.1c-0.1,0-0.3,0.1-0.4,0.1c-3.3,0.1-3.6,5.9-3.5,8.8c-0.4,0.4-0.7,0.8-1.1,1.2c-0.4-0.4-0.8-0.7-1.2-1.1
		C332,429.6,330.9,425.4,331.5,421L331.5,421z M333,437c0.2,0.3,0.4,0.5,0.7,0.8c-0.3,0.1-0.6,0.1-0.9,0.2
		C332.9,437.7,333,437.4,333,437L333,437z M349.9,433c-5.2,4.9-10.5,9.7-15.7,14.6c-0.1-1.2-0.3-2.4-0.4-3.7
		c1.1-2.1,8.2-4.1,10.5-9.1c0.5-1.7,0.4-0.6-0.5-2.2c2.3-1,4.5-2,6.8-3c2.2-0.5,4.4-1.1,6.7-1.6c0.7,0.2,1.3,0.3,2,0.5
		C357.1,431,353,431,349.9,433L349.9,433z M350.5,392.5c-4.1-0.1-8.2-0.2-12.3-0.3c-0.4,3.1-0.7,6.1-1.1,9.2
		c1.5,1.1,2.4,1.1,3.5,2.9c-3,1.3-5.4,0.9-7.8,0.9c-0.6,0.3-1.1,0.6-1.7,0.9c1-10.9,2-21.7,3-32.6c1.8,0.3,3.6,0.7,5.4,1
		c0.4,1.6,0.8,3.3,1.2,4.9c2.4,0.8,4.8,1.7,7.2,2.5c-3.8,0.9-7.6-1.3-12.7-0.2c-0.2,1-0.5,2-0.7,3
		C339.5,389.6,344.8,389.1,350.5,392.5L350.5,392.5z M382.2,427.1c1,0.4,0.3,0,1.1,0.7C383,427.6,382.6,427.3,382.2,427.1
		L382.2,427.1z M387,429.3c-0.8-0.6-1.5-1.2-2.3-1.8c0.7-0.2,1.5-0.4,2.2-0.5c0.4,0.4,0.8,0.7,1.2,1.1
		C387.7,428.4,387.4,428.9,387,429.3L387,429.3z M366.4,331.9c-4.2,2.5-10.2-0.5-15.8,0.5c-0.6,3,0.2,5.7-0.3,8.5
		c-2.7-0.1-5.4-0.3-8.1-0.4c-0.1,0-0.3,0.1-0.4,0.1c-0.5,1.1-1.1,2.1-1.6,3.2c7.8,4.3,17.7,5.2,27.7,6c-0.1,0.3-0.2,0.7-0.2,1
		c-7.1-0.2-14.2-0.4-21.2-0.5c-1.3,1.7-0.8,2.5-3.4,3.6c0,1.3,0,2.5,0,3.8c2.5,0.8,5.1,1.6,7.6,2.4c-2.4-0.1-4.7-0.1-7.1-0.2
		c-1.6,1.6-3.3,3.3-4.9,4.9c0.1,0.4,0.2,0.9,0.3,1.3c1.4,0.8,2.9,1.5,4.3,2.3c0,0.1,0.1,0.3,0.1,0.4c-2.9,0.2-5.8,0.5-8.7,0.7
		c-0.2-0.3-0.4-0.5-0.7-0.8c2.3-8.9,1.6-18,3.4-27.1c4.5-23.7,12.1-47.3,19.9-69.5c5.9-16.7,22.1-28.7,29.2-44.5
		c3.9,0.8,7.4,2.3,11.9,2.8c-0.1,0.3-0.2,0.7-0.2,1c-3.8-0.2-7.6-0.4-11.4-0.5c-0.7,2.2-0.9,3.1,0.7,5c-3.6,3-9.1,3.5-10,9
		c-0.7,0.8-0.3,0.1-0.7,1.1c1,0.4,2.1,0.8,3.1,1.1c0,0.1,0.1,0.3,0.1,0.4c-1.5,0.4-3,0.7-4.4,1.1c-2.1,2.3,0.1,3.1-3.5,5.1
		c-0.4,2.8,0.9,3,3.7,3.8c-1.8,0.4-3.5,0.9-5.3,1.3c-1.2,1.3-1,1.8-0.4,4.3c-1.2,0.3-2.4,0.6-3.5,0.9c-0.1,1-0.2,1.9-0.2,2.9
		c2,1.5,6.4,2.3,9.4,2c0.2,0.3,0.4,0.5,0.7,0.8c-0.3,0.2-0.5,0.4-0.8,0.7c-2.2-0.2-4.5-0.5-6.7-0.7c-0.3,0.6-0.7,1.1-1,1.7
		c-0.8,1.2-0.2,1.4-0.2,2.9c-2.6,0.3-5.2,0.6-7.8,0.9c0,3,2.3,6,4.2,7.9c-1.2,1.4-2.2,0.8-3.1,2.6c0.2,0.9,0.4,1.8,0.6,2.7
		c3.7,3.7,16.3,4.8,22.2,4.5c-6.2,4.1-16.1-0.8-23.3,0.4c-0.6,3.6-1.2,6.3,0.6,8.3c0,0.1,0.1,0.3,0.1,0.4c-2.1,0.2-4.3,0.4-6.4,0.6
		c-0.4,0.4-0.7,0.8-1.1,1.2c0.2,0.7,0.4,1.5,0.5,2.2c6.4,2.4,16.9,3.8,24.3,3.5c-2.5,3.3-20.2-1.1-26.3-0.2
		c-0.3,0.7-0.6,1.4-0.9,2.1c-0.1,0.3-0.2,0.7-0.2,1c3.7,2.8,9.2,1.6,13.1,3.9c0,0.1,0.1,0.3,0.1,0.4c-4.9-0.3-8.8-1.7-14.6-0.2
		c-0.3,1.3-0.4,1.7,0,3.8c5.1,2.1,15,1.2,19.1,3.4c0,0.1,0.1,0.3,0.1,0.4c-4.2,1.4-13,1-17.4-0.1c-0.9,1-1.7,2-2.6,3
		C352,332.1,360.9,330.5,366.4,331.9L366.4,331.9z M402.2,252.5c0,0.1,0.1,0.3,0.1,0.4c-0.5-0.2-1-0.4-1.5-0.6
		c0.1-0.2,0.2-0.4,0.3-0.5C401.5,252.1,401.9,252.3,402.2,252.5L402.2,252.5z M407.1,290.3c-0.4,0.1-0.9,0.2-1.3,0.3
		c0.1-0.3,0.2-0.7,0.2-1C406.4,289.8,406.7,290.1,407.1,290.3L407.1,290.3z M401.6,283.2c0.7,0.2,1.3,0.3,2,0.5
		c0,0.1,0.1,0.3,0.1,0.4C401.9,283.8,402.8,284.3,401.6,283.2L401.6,283.2z M409.7,313.1c-1.2,0.7-1.7,0.7-2.9-0.2
		C407.8,312.9,408.8,313,409.7,313.1L409.7,313.1z M376.7,257.7c0.4,0.2,0.7,0.4,1.1,0.7C376.9,258,377.6,258.4,376.7,257.7
		L376.7,257.7z M380.3,270.5c-0.5-0.2-1-0.4-1.5-0.6C380.2,270.1,379.3,269.7,380.3,270.5L380.3,270.5z M396.6,346.3
		c0,0.1,0.1,0.3,0.1,0.4c-1.4,0.1-0.2,0.6-1.4-0.1C395.7,346.5,396.2,346.4,396.6,346.3L396.6,346.3z M393.2,340
		c-1.3,0.8-1.1,0.8-2.3,0.1C391.7,340.1,392.5,340.1,393.2,340L393.2,340z M401.5,435.1c-0.3,0.2-0.5,0.4-0.8,0.7
		c-2.6-1.6-5.1-3.1-7.7-4.7c-0.3,0.1-0.6,0.1-0.9,0.2c1.4-1.3,2.2-0.6,5-0.7c0.8-1.4,1.5-2.9,2.3-4.3c-0.2-0.7-0.4-1.5-0.5-2.2
		c-1.1,0-2.2-0.1-3.3-0.1c-1.3-2.3-1.2-4.5-1.2-6.8c1.5-0.2,3-0.4,4.5-0.6C402.8,419.2,401.2,430.6,401.5,435.1L401.5,435.1z
		 M394.2,412.5c-0.5-0.2-1-0.4-1.5-0.6c3.9-4.6,3-4.3,1.6-10.7c2.7-1.4,2.8-1.6,4.3-3.4c-0.8-1.9-1-1.7-2.1-2.8
		c0.9-2.4,2-3.8,4.4-5.3c-0.2-0.7-0.4-1.5-0.5-2.2c-1.4-0.5-2.7-0.9-4.1-1.4c-0.3-0.1-0.7-0.2-1-0.2c1-0.5,1.9-1.1,2.9-1.6
		c1-4.5-0.5-6.6-2.3-9.8c2.1-0.5,1.3-0.3,3-1.2c0.6-3.6,1.1-7.1,1.6-10.7c-1.4-1.2-2.8-2.5-4.2-3.7c2.8-0.5,2.7-0.7,5.2-1.7
		c0.3-1.5-1.5-4-1.2-4.9c0.4-1.1,2-2,2.5-3.4c-1.7-1.5-2.7-2.2-5.6-1.9c-0.1-0.3-0.1-0.6-0.2-0.9c4.3-0.9,7.4-3.4,3.1-6.8
		c0-0.1-0.1-0.3-0.1-0.4c3.8-0.3,6.1-0.7,9.2-2.7c0-0.8-0.1-1.5-0.1-2.3c-1.2-0.5-2.4-1-3.6-1.5c0.7-0.8,1.5-1.6,2.2-2.4
		c-0.8-1.5-0.2-0.9-1.3-1.6c-1.3-1.3-2.5-1.2-4.9-0.7c-0.2-0.3-0.4-0.5-0.7-0.8c3.1-0.7,6.2-1.5,9.3-2.2c0.2-1,0.5-2,0.7-3
		c-1.7-1.4-2.6-1.9-5.5-1.5c0.5-1.6,3.9-2,6.3-2.9c0.5-2.3,0-2.6-1.2-4.9c1.3-0.5,2.6-0.9,3.9-1.4c1.2-1.6,0.8-1.1,0.1-3.3
		c2.5-0.7,4.1-1.4,5.8-3.3c-0.1-0.3-0.1-0.6-0.2-0.9c0-0.1-0.1-0.3-0.1-0.4c-4.1-1.8-2-2.3-2.1-7c1.1-0.4,2.3-0.9,3.4-1.3
		c2.4-2.6-0.4-3.8-2.5-4.6c1.3-0.5,2.6-0.9,3.9-1.4c0.1-0.8,0.2-1.6,0.4-2.4c-0.3-0.4-0.5-0.8-0.8-1.2c-4.5-0.5-9-1-13.5-1.5
		c-1.1,0.6-1.1,0.5-2.3,0.1c3.3-1.8,8.5-0.3,12.1-0.6c0.8-0.1,10.5-4.4,11.4-5.1c1.1-1.1,0.9-1.1,1.2-2.6c-0.8-0.7-1.6-1.5-2.4-2.2
		c2.2-2,3.8-3.2,6.4-4.8c0-0.5,0.1-1,0.1-1.4c-0.5-0.7-0.9-1.3-1.4-2c1.5-0.2,3-0.4,4.5-0.6c0.2,0.1,0.4,0.2,0.6,0.3
		c0.2,10.2-11.5,26.9-15.2,36.5c-6.4,17-11.7,35-16.4,52.7c-2.7,10.2-1.4,20.1-3.9,30.5c-1.6,6.5-4.1,17.2-2.6,26.4
		C398.7,411.4,396.4,412,394.2,412.5L394.2,412.5z M416.4,289.9c0.4,0.2,0.7,0.4,1.1,0.7C416.5,290.2,417.2,290.6,416.4,289.9
		L416.4,289.9z M595.5,102c2,0.9,3.2,2.5,5.1,3.5c0.1,1.7,0.1,1.4-0.4,2.4c-2.3-1.2-4.7-2.8-6-5.6C594.6,102.2,595,102.1,595.5,102
		L595.5,102z M576.5,105.1c1.3,1,1.8,3.1,2.3,5.6c-0.1,0-0.3,0.1-0.4,0.1c-1.3-0.9-2.6-1.9-4-2.8C575.1,107,575.8,106.1,576.5,105.1
		L576.5,105.1z M578.6,125.7c0.7-0.2,1.5-0.4,2.2-0.5c1.7,3.2,1.2,6.2,1.3,9.5c-0.4,0.1-0.9,0.2-1.3,0.3c-0.9-1-1.8-2.1-2.6-3.1
		C578.4,129.9,578.5,127.8,578.6,125.7L578.6,125.7z M580.4,142.7c1.3,0,2.5,0,3.8,0c1.6,1.2,7.1,31.8,7.9,40.8
		c0.5,6,4.6,13.1,2.6,16.7c0,0.5-0.1,1-0.1,1.4c-0.4,0.1-0.9,0.2-1.3,0.3c-0.5-0.2-1-0.4-1.5-0.6c0.4-0.9,0.8-1.8,1.2-2.6
		c-2.5-2.7-3.5-3.5-5.4-6.7c-2,0.2-4,0.3-6,0.5c0-0.1-0.1-0.3-0.1-0.4c0.7-0.8,4.3-1.8,6.4-2.5c0.3-0.6,0.7-1.1,1-1.6
		c-0.3-0.4-0.5-0.8-0.8-1.2c-1.3-1.3-2.8-1.4-5-1.2c0-3,0.5-2.6-0.7-5c1.7-0.6,3.5-1.1,5.2-1.7c2-2.2,0.4-4.2-2.4-4.1
		c-1-4.3,0.1-5.2,2-7.5c-1.3-2.7-2.3-2-3.8-4.2c0,0,0.3-9.3,0.8-12.4c-1.2-0.5-2.4-1-3.6-1.5C581.5,145.8,582,146.6,580.4,142.7
		L580.4,142.7z M601.3,245.5c0.2-0.9,1.7-2,2-3.3c-5.4-3.5-6.5-6.5-14.3-6.9c-0.4-0.4-0.8-0.7-1.2-1.1c8.8-3.1,6.3-17,5.3-24.7
		c-2.6-0.6-5.3-1.2-7.9-1.8c3.2-0.4,6.4-0.9,9.5-1.3c6.1,4.3,1.2,11.6,4.7,17.6c6.5,11.2,7.4,28.3,10.5,41.6
		c-1.1,0.4-2.3,0.9-3.4,1.3c-0.3-0.1-0.7-0.2-1-0.2c-0.9-2.3-1.7-4.6-2.6-6.9C610.1,256.6,600,251.3,601.3,245.5L601.3,245.5z
		 M584.3,207.9c-1.8,1.5-5.4,1.8-6.9,0.7C579.7,208.3,582,208.1,584.3,207.9L584.3,207.9z M581.9,201.9c1.9-0.3,2.2-0.4,3.3,0.1
		C583.3,202.4,583.1,202.6,581.9,201.9L581.9,201.9z M585.8,214.1c-1.5-0.3-0.5,0.1-1.5-0.6C584.8,213.7,585.3,213.9,585.8,214.1
		L585.8,214.1z M571.2,114.4c2.2,1.5,0.4,4.4,1.5,6.2c-3,4.8-9.8,11.3-4.7,17.5c0,0.1,0.1,0.3,0.1,0.4c-2.3,0.1-4.6,0.2-7,0.3
		c-0.1,0-0.3,0.1-0.4,0.1c-0.2,1.3-0.3,2.6-0.5,3.9c2.9,1.1,5.9,1.7,9.4,2c0,0.1,0.1,0.3,0.1,0.4c-3.5,1.9-6.9,0.9-10.5,1.1
		c-0.1,0.3-0.2,0.7-0.2,1c-0.8,1.2-0.8,5.9-0.4,8.1c-2.5,1.2-3.3,1.6-5.3,3.2c1,2.2,1.2,2,2.6,3.1c-0.3,0.2-0.5,0.4-0.8,0.7
		c-2.5-0.2-4.6,0.3-6.1-1.8C556.4,145.1,563.8,129.8,571.2,114.4L571.2,114.4z M546.7,166.7c5.1,0.3,10.2,0.7,15.3,1
		c0,0.1,0.1,0.3,0.1,0.4c-8,1.5-10.2,0.8-15.8,4.7c-0.1,0.8-0.2,1.6-0.4,2.4c1.8,1.3,3.7,1.2,6.1,1.8c-2.8,3.2-2.7,4.2-8.1,5.2
		c-0.6,2.3-1,3.9-2.9,5.4c1.2,4.2,3.4,3.7,7.3,2.9c0,0.1,0.1,0.3,0.1,0.4c-2.3,0.7-4.7,1.4-7,2.1c-0.7,2.1-0.3,3.2,0.1,6.1
		c-1.1,0.4-2.3,0.9-3.4,1.3c-0.5,0-1-0.1-1.4-0.1C538,187.9,543.8,178,546.7,166.7L546.7,166.7z M570.5,208.8
		c-0.1,0.3-0.2,0.7-0.2,1c-2,0.2-2.2,0.3-3.4-0.6c0.9-0.2,1.8-0.4,2.7-0.6C569.8,208.7,570.1,208.8,570.5,208.8L570.5,208.8z
		 M563.1,203.6c-1.5-0.3-0.5,0.1-1.5-0.6C563,203.3,562.1,202.9,563.1,203.6L563.1,203.6z M527.4,402.6c0.5,0.2,1,0.4,1.5,0.6
		c-0.2,0.4-0.4,0.7-0.7,1.1c-0.1,0-0.3,0.1-0.4,0.1C527.7,403.8,527.5,403.2,527.4,402.6L527.4,402.6z M537.5,413.3
		c-1,1.5-2.1,3-3.1,4.5c-0.7,0.2-1.5,0.4-2.2,0.5c-0.5-1.4-1-2.9-1.5-4.3c2.3-0.4,4.5-0.8,6.8-1.2
		C537.4,413,537.4,413.1,537.5,413.3L537.5,413.3z M543.1,409.6c-0.4,0.3-0.8,0.5-1.2,0.8c-0.1,0-0.3,0.1-0.4,0.1
		c0.1-0.8,0.2-1.6,0.4-2.4c0.5,0.2,1,0.4,1.5,0.6C543.3,408.9,543.2,409.3,543.1,409.6L543.1,409.6z M529.2,345.9
		c1.4,6.1,0.1,12.7-3.7,15.9c1,3.1,3.2,5.2,4.5,6.9c3.8,5.1-1,14.7-2.1,18.8c0.5,1.4,1,2.9,1.5,4.3c0,1.3-1.3,3.3,0.7,3.1
		c0.2,2.4,0.1,3-1.8,4.2c-0.2,0.4-0.4,0.7-0.7,1.1c-3.5-5.2-7.6-53.7-6.1-62.3c1.8,0.2,3.5,0.4,5.3,0.6c0.4,0.4,0.8,0.7,1.2,1.1
		c-1.1,0.4-2.3,0.9-3.4,1.3c-0.1,1-0.2,1.9-0.2,2.9C526,345.4,526.8,345.7,529.2,345.9L529.2,345.9z M552.1,401.8
		c-0.6,0.6-1.3,1.2-1.9,1.9c-0.1,0-0.3,0.1-0.4,0.1c0.2-0.7,0.3-1.3,0.5-2c0.6-0.1,1.2-0.3,1.8-0.4C552,401.5,552,401.7,552.1,401.8
		L552.1,401.8z M546.9,321.9c1.4,0,2.8,0,4.2-0.1C550.3,322.4,548.1,322.7,546.9,321.9L546.9,321.9z M523.5,269.4
		c-0.1,1-0.2,1.9-0.2,2.9c1.5,0.4,3,0.8,4.5,1.3c0.6,1.3,1.2,2.5,1.8,3.8c0,0.1,0.1,0.3,0.1,0.4c-1.9,0.8-5.4,0.8-6.5,2
		c-0.5,0.6-1,1.2-1.5,1.8c0,0.1,0.1,0.3,0.1,0.4c2,1.5,2.6,2.5,6.1,1.8c-0.5,1.1-1.1,2.1-1.6,3.2c1.4,3.6,2.2,4.8,2.8,7.8
		c-0.5,2.2-1.5,3.1-3.1,4.5c0.6,1.7,1.1,3.5,1.7,5.2c-1.9,0.6-3.8,1.2-5.7,1.8c-0.3,0.2-0.5,0.4-0.8,0.7c0.4,1.8,0.9,3.5,1.3,5.3
		c3.2,0.2,6.3,0.4,9.5,0.5c0.2,0.3,0.4,0.5,0.7,0.8c-6.1,4.9-11.5,1.7-6.3,9c-0.7,1.1-0.6,1.4-0.1,3.3c-1.5,1-3,2-4.5,2.9
		c0.8,2.4,0.6,2.2,2.5,2.7c-0.5,1-0.9,1.1-1.9,1.9c-0.3-0.1-0.7-0.2-1-0.2c-1.6-18.2-3.9-38.5-1.8-58.2c1.3-7.8,2.5-15.6,3.8-23.4
		c3.2,0.9,5.4,2.4,9.8,1.9c0.4,2.7,0.3,6-1,7.7c-0.8,1-1,1.1-2.9,1.6c0.3,1.2,0.6,2.4,0.9,3.5c2.9,0.4,5.8,0.8,8.7,1.2
		C533.9,268.1,528.7,268.7,523.5,269.4L523.5,269.4z M532.1,234.5c0,2.6-0.9,3.4-1.5,5.5c0.6,0.5,1.2,1,1.8,1.5
		c-0.9,1.7-2.8,3.6-0.2,5.2c-0.7,1.7-4.3,2.3-7.8,2.8c1.6-15.5,7-30.2,10.9-44.4c3.6,0.7,7.2,1.4,10.8,2.1
		c-6.7,2.2-4.9,5.4-11.9,7.1c-0.3,0.6-0.7,1.1-1,1.6c1.3,2.6,2.8,3.2,3.5,4.8c0.3,0.4,0.5,0.8,0.8,1.2c-4.2,0.8-3.6,1-5.8,3.3
		c1.6,2.8,4.2,3,6.9,3.5c-0.9,2.5-4.7,1.4-7.6,1.4c-0.1,0-0.3,0.1-0.4,0.1C529.4,232.7,529.2,233.2,532.1,234.5L532.1,234.5z
		 M542.2,241.4c-1.5,1.1-1.7,1.2-2.9-0.2C540.2,241.3,541.2,241.4,542.2,241.4L542.2,241.4z M600.3,389.8c-0.9,0.2-1.8,0.4-2.7,0.6
		c-0.3-0.4-0.5-0.8-0.8-1.2c1.1-0.1,2.1-0.2,3.2-0.3C600.1,389.2,600.2,389.5,600.3,389.8L600.3,389.8z M634.7,388.5
		c-0.7,0.2-1.5,0.4-2.2,0.5c-4.7-4.9-3-12.1-12.4-12.5c0-0.1-0.1-0.3-0.1-0.4c1.8-1.4,3.7-2.6,6.4-2.5c1.7-2.8-1.6-4.1,0.3-6.6
		c0.2-0.5,0.4-1,0.6-1.5c-1.7-0.9-3.9-1.4-5.7-2.4c0.9-1,1.7-2,2.6-3c-0.1-0.3-0.1-0.6-0.2-0.9c-1.6-1.3-2.5-1.8-5.1-1.6
		c-0.2-0.9-0.4-1.8-0.6-2.7c2.7-1.6,4.9-1.9,4.8-5.4c-2.4-1.6-5.2-1.3-9.4-0.1c-0.3-0.4-0.5-0.8-0.8-1.2c-0.2-2.8,2-6.1,3.2-8.3
		c3.1-0.7,6.2-1.5,9.3-2.2C629.3,355.3,631.4,373.2,634.7,388.5L634.7,388.5z M624.2,332.9c0.1,0.3,0.1,0.6,0.2,0.9
		c-1.5,0.1-3.1,0.1-4.6,0.2c-1.8-1.5-2.6-1.4-3.5-4.8c1.6-1.6,3.3-3.3,4.9-4.9C623.1,325,624.8,330.4,624.2,332.9L624.2,332.9z
		 M621.9,319.4c-0.3,0.2-0.5,0.4-0.8,0.7c-3-2.9-4.8-5.1-10.7-3.5c-0.3-1.3-0.6-2.7-1-4c-10.6-2.8-40,11.3-55.1,9
		c-0.3,0.1-0.6,0.1-0.9,0.2c-19.6,47.4,13.6,5.1,20.4,1c11.3-6.7,25.5-10.4,39.7-14.5c0.2-0.4,0.4-0.7,0.7-1.1
		c-0.3-0.4-0.5-0.8-0.8-1.2c-1.5-1.5-2.9-1.3-5.7-0.5c-1.1-1.7-1-1.2,0.7-3c-0.9-2.5-1.3-2.3-2.7-3.6c2.2-2.4,2.7-4,7.2-5
		c0.2-0.5,0.4-1,0.6-1.5c-1.7-1.4-3.3-2.2-5.7-2.4c-0.4-0.4-0.8-0.7-1.2-1.1c1.7-2,3.4-3.9,5.1-5.9c-0.5-1.9-0.9-3.8-1.4-5.8
		c0.5,0,1,0.1,1.4,0.1C614,278.3,621,313.6,621.9,319.4L621.9,319.4z M757.5,368.5c0,0.5-0.1,1-0.1,1.4c-4.1,1.5-10.7-2.3-14.8-3
		c-10.6-1.7-22.3-0.8-32.3-1.6c-5-0.4-10.5,2.1-14.6,3.5c-6.6,2.3-12.1,1.2-20.4,4.9c-12.2,5.5-24.4,12.7-32.3,21.8
		c-3.4-2.2-2.7-9.5-3.6-13.2c-2.6-16.2-5.3-32.5-8-48.7c-1.7-6.9-3.3-13.9-5-20.8c-1.8-22.9-12.3-50.6-14.9-70.1
		c-0.9-7-1.8-14-2.7-20.9c-1.1-1.9-2.2-3.9-3.3-5.8c-4.7-10.9-6.3-27.3-7.3-40c-2.1-27.2-13.7-48.5-13.3-70.9
		c8.9,3.1,27.9,23.8,36.4,30.7c34,27.4,71.1,64.5,92.1,106.4c15,29.9,23.1,65.7,38.5,95.8c3.1,6,0.2,9.1,0.2,12.6
		C752.2,351.5,756.6,366.4,757.5,368.5L757.5,368.5z M622.6,119.4c2.2,3.9,2.6,6.6,6.5,9.7c-0.2,0.7-0.3,1.3-0.5,2
		c-0.3,0.2-0.5,0.4-0.8,0.7c-5.6-5.2-20.2-13.3-23.2-20.2c2.9,0.2,2.9,1.6,6.4,1.3c0.6,3.3,3.2,4.8,5.2,8.1
		C618.5,120.4,620.6,119.9,622.6,119.4L622.6,119.4z M611.2,99.2c0.3-0.2,0.5-0.4,0.8-0.7c1,0.1,1.9,0.2,2.9,0.2
		c0.4,0.4,0.8,0.7,1.2,1.1c-1.2,0.3-2.4,0.6-3.5,0.9C612.1,100.2,611.6,99.7,611.2,99.2L611.2,99.2z M650.2,142.3
		c-1.1,1.8-1.4,2.1-1.7,4.6c0.7,0.2,1.3,0.3,2,0.5c5.4-1.6,10.8-3.2,16.2-4.8c0.2,0.3,0.4,0.5,0.7,0.8c-1.8,1.3-6.1,3.1-8.2,4.8
		c0,0.6,0,1.3,0,1.9c1.8,1.4,3.2,1.6,6.3,0.8c0.1,1.7,0.2,3.4,0.3,5.1c1.4,0,2.8,0,4.2-0.1c1,1.6,1.3,2.7,2.7,3.6
		c-0.5,2.7-4.2,4.1-1.5,5.5c0.3,0.4,0.5,0.8,0.8,1.2c6.7-1.6,11.3-5.2,18.4-7.2c0,0.1,0.1,0.3,0.1,0.4c-2.6,3.5-11.2,6.8-14.9,10.1
		c0.1,0.6,0.3,1.2,0.4,1.8c1.7,0.4,3.3,0.8,5,1.2c-0.6,0.8-1.2,1.5-1.8,2.3c1,3,1.6,2.8,4.1,3.2c-1.6,1.3-3.1,2.6-4.7,3.9
		c-9.5-14.7-22.3-26.8-34.5-38.2c-3.8-3.6-11-6.3-13-11c0.6,0,1.3,0,1.9,0c3.1,0.9,4.6,3.3,6.6,5.9c2-0.6,4.1-1.3,6.1-1.9
		c0.1,0,0.3-0.1,0.4-0.1c-0.3,1.5,0,1.1-0.9,2.1C646.6,141.4,647.8,141.4,650.2,142.3L650.2,142.3z M643.6,113
		c0.5-1.2,1-2.4,1.5-3.6c5.7,0.4,9.8,4.8,15.7,4.7c0.1,0.6,0.3,1.2,0.4,1.8c-0.3,0.2-0.5,0.4-0.8,0.7c-0.5-0.2-1-0.4-1.5-0.6
		c-1.4,0.5-2.9,1-4.3,1.5c-0.7-5.5-5.2-3.5-9.3-1.5C644.7,114.9,644.1,113.9,643.6,113L643.6,113z M735.1,152.4
		c-3.1,5.5-9.3,1.2-11.1-1.1c-4.1,1.3-8.1,2.6-12.2,3.9c0-0.1-0.1-0.3-0.1-0.4c4.2-2.2,8.3-4.5,12.5-6.7c0.8-4.3-9.9-8.6-13.6-5.7
		c-0.1,0-0.3,0.1-0.4,0.1c0-1.4,0-2.8-0.1-4.2c-4.7-1.9-7.6,0.6-14.4,2.5c-0.2-0.3-0.4-0.5-0.7-0.8c1.8-1.6,5.2-2.9,7.8-2.8
		c0.6-0.9,1.1-1.8,1.7-2.8c-2.9-1.2-3.2-1.5-7.1-0.2c-0.4-2.2-0.3-1.7-1.3-3.4c-2-0.4-4.8,0.1-7.8,0.9c0.2-1.1,0.4-2.3,0.6-3.4
		c-0.4-0.2-0.7-0.4-1.1-0.7c-1.5-1.4-3.3-0.8-6.1,0.1c-0.4-1.1-0.9-2.3-1.3-3.4c-3.1-1.2-5.1-1.1-9.4-0.1c-0.5-1.4-0.2-1.3-0.3-3.2
		c-4.3-1.4-6.2,0.2-7.4-5.3c6,0.2,12.3,4.8,17.5,6.6c13.1,4.6,28.6,9.9,39.9,17.6c4.8,3.7,9.6,7.4,14.4,11.1
		C735.2,151.5,735.2,151.9,735.1,152.4L735.1,152.4z M754.6,220c0.7,0.2,1.3,0.3,2,0.5c0,0.1,0.1,0.3,0.1,0.4
		c-1.7,0.7-3.4,1.4-5.1,2.2c-0.5-0.2-1-0.4-1.5-0.6C751.6,221.6,753.1,220.8,754.6,220L754.6,220z M748.6,224.2
		c-0.6,0.1-1.2,0.3-1.8,0.4c-0.1-0.3-0.1-0.6-0.2-0.9c0.3-0.2,0.5-0.4,0.8-0.7C747.8,223.5,748.2,223.9,748.6,224.2L748.6,224.2z
		 M745.1,225.1c-1.2,0.6-0.7,0.7-1.9,0C743.8,225.1,744.5,225.1,745.1,225.1L745.1,225.1z M748.9,256.5c-0.1,0.3-0.2,0.7-0.2,1
		c-0.2-0.3-0.4-0.5-0.7-0.8C748.3,256.7,748.6,256.6,748.9,256.5L748.9,256.5z M739.4,226.9c1.5,0.3,0.5-0.1,1.5,0.6
		C740.5,227.3,739.9,227.1,739.4,226.9L739.4,226.9z M733.3,197.4c0.6,0,1.3,0,1.9,0C733.9,198.1,734.5,198.1,733.3,197.4
		L733.3,197.4z M744.2,258.6c0.6,0,1.3,0,1.9,0c-0.7,0.3-1.4,0.7-2.1,1C744.1,259.3,744.1,258.9,744.2,258.6L744.2,258.6z
		 M735.5,230.2c-0.6,0.1-1.2,0.3-1.8,0.4c-0.1-0.3-0.1-0.6-0.2-0.9c0.7-0.5,1.3-0.9,2-1.4c0.9-0.2,1.8-0.4,2.7-0.6
		c0,0.1,0.1,0.3,0.1,0.4C737.4,228.8,736.4,229.5,735.5,230.2L735.5,230.2z M717.3,236.4c0.5,0,1,0.1,1.4,0.1c2.6,3.6,1.6,5.8,7,5.8
		c0.4,0.4,0.8,0.7,1.2,1.1c-1.8,0.9-3.6,1.8-5.4,2.7c-0.1-0.3-0.1-0.6-0.2-0.9C719.1,243.3,717.6,238.3,717.3,236.4L717.3,236.4z
		 M692.5,185.7c1.3,0.2,2.6,0.3,3.9,0.5c-1.3,1.1-2.6,2.2-3.9,3.3c0.8,2.6,1.2,3.3,0.8,5.4c2,1.1,3.6,1.2,4.7,4
		c2.2,0.9,3.1,1.2,6.6,0.3c0.2,0.3,0.4,0.5,0.7,0.8c-0.7,1.2-0.4,1-1.9,1.9c-0.2,0.5-0.4,1-0.6,1.5c0.5,1.9,0.5,2.2,1.6,2.9
		c1.6,0.4,4.3-0.9,6.2,0.4c1,0.3,1.6,0.9,2.5,2.7c-2.6,1.1-2.8,2.2-4.2,3.8c0.5,1,1.1,1.9,1.6,2.9c0.9-0.1,1.8-0.1,2.8-0.2
		c-1.7,2.2-2.8,2.1-3.5,5.1c1.6,2.1,2.3,4.1,5.3,4.4c1.6,2.5,3.4,1.4,6.4,1.3c-1.3,2.3-2.6,4-4.7,5.8c-4.6-0.5-5.7-7.4-8.3-11.1
		c-9-12.1-18-24.1-27-36.2c3.9-1.9,7.9-3.8,11.8-5.6c0.7,0.2,1.3,0.3,2,0.5c-1.5,1.4-2.9,2-3.8,3.7
		C691.8,184.2,692.1,185,692.5,185.7L692.5,185.7z M697.2,178c0.3-0.1,0.6-0.1,0.9-0.2c-0.1,0.3-0.2,0.7-0.2,1
		C697.6,178.5,697.4,178.2,697.2,178L697.2,178z M694.4,141.1c-0.3,0.2-0.5,0.4-0.8,0.7c-0.6,0.1-1.2,0.3-1.8,0.4
		c-0.1-0.4-0.2-0.9-0.3-1.3c0.7-0.2,1.5-0.4,2.2-0.5c0.2,0.1,0.4,0.2,0.5,0.3C694.4,140.8,694.4,140.9,694.4,141.1L694.4,141.1z
		 M698.7,155.1c-0.1,0.3-0.2,0.7-0.2,1c-0.2-0.3-0.4-0.5-0.7-0.8C698.1,155.2,698.4,155.1,698.7,155.1L698.7,155.1z M726.7,258.1
		c2.1-1,4.2-2,6.3-2.9c1-0.2,2.1-0.5,3.1-0.7c0,0.1,0.1,0.3,0.1,0.4c-1.6,1-3.3,2-4.9,3.1c-0.2,1.1-0.4,2.3-0.6,3.4
		c4.6,1.5,8.4-1.6,12.4-1.1c-1.7,1.2-3.5,2.4-5.2,3.6c-0.6,0.9-0.6,1.7-0.7,3c0.6,0.3,1.1,0.7,1.6,1c3.6-0.2,5.4-1.3,8.6-1.1
		c0.4,0.4,0.8,0.7,1.2,1.1c-0.1,0.3-0.2,0.7-0.2,1c-3.4,2.1-6.8,4.1-10.2,6.2c0.4,0.9,0.7,1.7,1.1,2.6c2.1,0.1,4.1,0.3,6.2,0.4
		c-1.9,1.2-3.8,2.5-5.7,3.7c0.4,0.9,0.7,1.7,1.1,2.6c1.3,1.2,1.8,0.7,3.5,1c0.4,0.1,1.2,2.7,2.4,4.1c-1,0.9-2.1,1.7-3.1,2.6
		c0.2,0.9,0.4,1.8,0.6,2.7c2.1,0.7,3.1,1.1,6.2,0.4c-0.7,2.5-6,5-7.2,5C737.8,286.1,732.3,272.1,726.7,258.1L726.7,258.1z
		 M753.6,293.9c-0.1,0.3-0.2,0.7-0.2,1c-0.2-0.3-0.4-0.5-0.7-0.8C753,294,753.3,293.9,753.6,293.9L753.6,293.9z M747.1,303.9
		c2.4-0.6,3.5-1.1,4.7-2.1c1.3,1,2.6,3.2,3.8,4.2c-1.4,1.5-2.1,1.9-2.8,4c1.1,0.8,2.3,1.6,3.4,2.5c-1,0.9-2.1,1.8-3.1,2.6
		c0.7,0.9,1.4,1.9,2.1,2.8c4.1-0.9,6.3-1.5,9.6-2.8c0.2,0.3,0.4,0.5,0.7,0.8c-2,3.3-8.5,3.9-10.5,7.2c-4.3-0.5-8.2-15.2-10.5-20.5
		C745.3,303,746.2,303.4,747.1,303.9L747.1,303.9z M761.1,352.6c1.6-1,3.3-2,4.9-3.1c1.1-0.1,2.1-0.2,3.2-0.3
		c0.2,0.3,0.4,0.5,0.7,0.8c-2.7,0.8-4.5,1.9-6.2,3.4C762.8,353.1,762,352.8,761.1,352.6L761.1,352.6z M773.9,362.6
		c-1.2,0.8-2.4,1.5-3.7,2.3c-0.1,0-0.3,0.1-0.4,0.1c0.2-1,0.5-2,0.7-3c0.9-0.2,1.8-0.4,2.7-0.6c0.2,0.3,0.4,0.5,0.7,0.8
		C773.8,362.3,773.8,362.5,773.9,362.6L773.9,362.6z M773.9,360.8c0.6,0,1.3,0,1.9,0C774.5,361.4,775.1,361.4,773.9,360.8
		L773.9,360.8z M764,333.1c0.7,0.9,1.4,1.9,2.1,2.8c-2,1.3-4.1,2.5-6.1,3.8c-0.1,0-0.3,0.1-0.4,0.1c-2.1-3.5-3.8-8.7-5.1-13.3
		c5.1,0,6.6,1.1,10.1,3.2c4.6-1.7,7.1-3.1,12.5-4.4C775.5,328,767.4,330.8,764,333.1L764,333.1z M774.9,320.2
		c-0.3-0.1-0.7-0.2-1-0.2c0.1-0.3,0.2-0.7,0.2-1c0.5,0,1,0.1,1.4,0.1C775.4,319.4,775.2,319.8,774.9,320.2L774.9,320.2z
		 M772.3,305.3c0.4-0.1,0.9-0.2,1.3-0.3C772.7,305.8,773.3,306.2,772.3,305.3L772.3,305.3z M777.7,304.5c-0.4-0.2-0.7-0.4-1.1-0.7
		c0.1-0.2,0.2-0.4,0.3-0.5c0.3-0.1,0.6-0.1,0.9-0.2c0.2,0.3,0.4,0.5,0.7,0.8C778.3,304,778,304.3,777.7,304.5L777.7,304.5z
		 M752.6,166.5c-2.3,1-4.5,2-6.8,3c-0.2-0.3-0.4-0.5-0.7-0.8c0.9-1,1.7-2,2.6-3c-0.1-0.4-0.2-0.9-0.3-1.3c-1.7-0.8-1.3-1.2-4-0.9
		c-0.2-0.3-0.4-0.5-0.7-0.8c0.5-0.6,1-1.2,1.5-1.8c0.5,0,1,0.1,1.4,0.1c1.2,1.1,2.4,2.2,3.6,3.4c1.1,0.5,2.1,1.1,3.2,1.6
		C752.5,166.2,752.6,166.4,752.6,166.5L752.6,166.5z M758.7,172.6c0.2,0.3,0.4,0.5,0.7,0.8c-0.1,0.3-0.2,0.7-0.2,1
		c-0.8,0-1.5,0.1-2.3,0.1c-0.9,0.1-1.8,0.1-2.8,0.2c0.1-0.3,0.2-0.7,0.2-1C755.8,173.3,757.3,172.9,758.7,172.6L758.7,172.6z
		 M759.2,219.4c-0.6,0.3-1.1,0.6-1.7,0.9c-0.1-0.4-0.2-0.9-0.3-1.3C757.9,219,758.5,219.2,759.2,219.4L759.2,219.4z M783.1,316.8
		c-0.2-0.3-0.4-0.5-0.7-0.8c0.3-0.1,0.6-0.1,0.9-0.2C783.2,316.1,783.1,316.5,783.1,316.8L783.1,316.8z M749.5,177.1
		c-0.3-0.4-0.5-0.8-0.8-1.2c1-0.2,2.1-0.5,3.1-0.7c0,0.1,0.1,0.3,0.1,0.4c-0.1,0.3-0.2,0.7-0.2,1C751,176.8,750.3,176.9,749.5,177.1
		L749.5,177.1z M778,264.6c-0.6,0.1-1.2,0.3-1.8,0.4c0-0.1-0.1-0.3-0.1-0.4c0.9-0.7,1.9-1.4,2.8-2.1c1-0.2,2.1-0.5,3.1-0.7
		C781.4,263.4,779.8,263.4,778,264.6L778,264.6z M818,347.3c-3.9,0.8-7.8,1.5-11.6,2.3c0-0.1-0.1-0.3-0.1-0.4c1.6-1.8,5-1.4,6.8-3
		c0.7-0.2,1.5-0.4,2.2-0.5c0.3,0.1,0.7,0.2,1,0.2c0.6,0.3,1.1,0.7,1.6,1C818,347,818,347.2,818,347.3L818,347.3z M783.8,261.3
		c0.1-0.3,0.2-0.7,0.2-1c1.7-0.1,1.5-0.4,2.9,0.2c0,0.1,0.1,0.3,0.1,0.4C785.9,261.1,784.9,261.2,783.8,261.3L783.8,261.3z
		 M790,259.8c-0.4-0.2-0.7-0.4-1.1-0.7c0.1-0.2,0.2-0.4,0.3-0.5c0.5,0.2,1,0.4,1.5,0.6C790.5,259.4,790.3,259.6,790,259.8L790,259.8
		z M804.1,314.6c-0.2,0.7-0.3,1.3-0.5,2c-0.1,0-0.3,0.1-0.4,0.1c-0.2-1.1-0.2-0.5,0-1.9C803.5,314.7,803.8,314.6,804.1,314.6
		L804.1,314.6z M793.8,258c0.1-0.3,0.2-0.7,0.2-1C794.3,257.8,794.6,257.3,793.8,258L793.8,258z M812.7,313.4
		c-0.3,0.2-0.5,0.4-0.8,0.7c-0.9,0.1-1.8,0.1-2.8,0.2c0.1-0.3,0.2-0.7,0.2-1c0.7-0.2,1.5-0.4,2.2-0.5c0.3,0.1,0.7,0.2,1,0.2
		C812.7,313.1,812.7,313.3,812.7,313.4L812.7,313.4z M792.4,236.7c0.1-0.3,0.2-0.7,0.2-1c1.1-0.1,2.1-0.2,3.2-0.3
		c0.1,0.3,0.1,0.6,0.2,0.9C794.9,236.4,793.6,236.6,792.4,236.7L792.4,236.7z M819.3,311.4c-2.1,0.5-4.1,1-6.2,1.5
		c-0.1-0.3-0.1-0.6-0.2-0.9c2.1-0.3,4.2-0.7,6.3-1C819.2,311.1,819.2,311.2,819.3,311.4L819.3,311.4z M799.3,234.1
		c0.6,0,1.3,0,1.9,0C800,234.7,800.5,234.8,799.3,234.1L799.3,234.1z M808.1,263c0.8,0,1.5-0.1,2.3-0.1
		C809.2,263.6,809.3,263.7,808.1,263L808.1,263z M803.7,233c1-0.5,1.9-1.1,2.9-1.6c0.8-3.7-1.7-5.2-6.5-3.6c0.1-2.2,0.9-3.2-0.3-5.1
		c-1-1-0.3-0.6-1.6-1c-4.4-1.3-26.3,7.5-32.9,9.3c0-0.1-0.1-0.3-0.1-0.4c5.8-7.2,22.4-6.9,30.3-10.6c0.3-0.1,0.6-0.1,0.9-0.2
		c0.2-0.5,0.4-1,0.6-1.5c-1.9-2-3-2.3-6.9-1.2c-0.4-3.1,0.6-5.2,2.2-8.5c-0.7-0.3-1.4-0.6-2.1-0.9c-1.2-0.7-1.7-0.5-3.8,0
		c-0.4-0.9-0.7-1.7-1.1-2.6c1.4-0.5,2.9-1,4.3-1.5c5.9,6.4,13.1,13.2,18.8,19.9c5.4,6.2,9.6,17.5,16.4,21.4c0.1,0.6,0.3,1.2,0.4,1.8
		c-2.7,0.3-5.5,0.7-8.2,1c-0.2-0.3-0.4-0.5-0.7-0.8c0.5-0.7,0.9-1.5,1.4-2.2c-1.1-1.8-2.1-3.6-3.2-5.3c-1.7-0.4-3.8-0.1-6.4,0.6
		C806.5,237.2,807.3,235.8,803.7,233L803.7,233z M779.2,195.3c-1.5-1.4-1.8-1.2-2.2-3.2c3.2,1,5.2,3.2,7.5,5.7
		c0,0.1,0.1,0.3,0.1,0.4c-5.7,1.7-11.4,3.4-17.1,5c-0.2-0.1-0.4-0.2-0.6-0.3c0-0.1-0.1-0.3-0.1-0.4
		C771.9,199.9,777.2,199.7,779.2,195.3L779.2,195.3z M762,176.5c0.4-0.1,0.9-0.2,1.3-0.3c0.3,0.7,0.7,1.4,1,2.1
		c-0.1,0-0.3,0.1-0.4,0.1C762.7,177.7,762.9,178,762,176.5L762,176.5z M767.6,182.2c-0.6,0.1-1.2,0.3-1.8,0.4
		c-0.7-1.8-0.8-2-0.4-3.7c1.4,0.5,0.2,0.2,1.4,0.1C767.1,180.1,767.4,181.1,767.6,182.2L767.6,182.2z M771.8,185.8
		c0.2,0.1,0.4,0.2,0.5,0.3c0.3,0.1,0.7,0.2,1,0.2c-0.3,0.5-0.7,1.1-1,1.6c-1,0.2-2.1,0.5-3.1,0.7C769.7,187.1,770.7,187,771.8,185.8
		L771.8,185.8z M827.8,317.8c0.8,0,1.5-0.1,2.3-0.1C828.9,318.5,829,318.5,827.8,317.8L827.8,317.8z M822.9,299.3
		c0.1-0.2,0.2-0.4,0.3-0.5c0.4-0.1,0.9-0.2,1.3-0.3c0,0.1,0.1,0.3,0.1,0.4c-0.2,0.4-0.4,0.7-0.7,1.1
		C823.7,299.7,823.3,299.5,822.9,299.3L822.9,299.3z M814.6,262.8c-0.2-0.3-0.4-0.5-0.7-0.8c0-0.1-0.1-0.3-0.1-0.4
		c4.1-1.6,8.3-3.2,12.4-4.9c0.5-2.7-0.2-4.7,0.6-7.2c4.8,1.6,11.6,13.4,13.6,17.4c-0.6,0.8-1.2,1.5-1.8,2.3
		c-1.7,0.7-3.4,1.4-5.1,2.2c-1.3-1.2-1.6-1.1-2.3-3.7c-2.3-0.8-4.8-1-8.1-0.4c1.4-1.3,2.8-2.6,4.2-3.8c-0.1-0.4-0.2-0.9-0.3-1.3
		C823.6,260.8,818.3,260.7,814.6,262.8L814.6,262.8z M849.1,279.4c-0.1,0.8-0.2,1.6-0.4,2.4c-1.2,0.3-2.4,0.6-3.6,0.9
		c-2.1-3.8-5.9-6.9-10.1-7c-0.2-0.3-0.4-0.5-0.7-0.8c1.8-1.4,4.8-1.5,6.3-2.9C845.3,271.8,846.6,276.6,849.1,279.4L849.1,279.4z
		 M819.9,267.2c0.4,0.2,0.7,0.4,1.1,0.7C820,267.4,820.7,267.9,819.9,267.2L819.9,267.2z M828.7,297.9c7-4.8,17-2.4,20.1-10
		c1.3-0.3,2.7-0.6,4-1c0.3,0.1,0.7,0.2,1,0.2c0.9,2,2.1,4.7,3.7,5.7c-0.2,0.7-0.3,1.3-0.5,2c-8.6-2.1-19.2,2.4-28.2,3.5
		C828.8,298.2,828.7,298,828.7,297.9L828.7,297.9z M840.7,316.6c-0.3-0.1-0.7-0.2-1-0.2c0-0.1-0.1-0.3-0.1-0.4
		c5.4-6,13.5,0.2,19.3-9.3c1.8-0.1,3.7-0.3,5.5-0.4c1.8,1,2.6,3.3,4.1,5.6c-0.2,0.7-0.3,1.3-0.5,2
		C859,314.7,849.8,315.6,840.7,316.6L840.7,316.6z M849.8,323.3c-0.7,0.2-1.5,0.4-2.2,0.5c-0.1-0.6-0.3-1.2-0.4-1.8
		c0.4-0.1,0.9-0.2,1.3-0.3C848.9,322.3,849.4,322.8,849.8,323.3L849.8,323.3z M861.1,300c-3.5,1.5-5.3,0.7-9.1,1.2
		c-0.2-0.3-0.4-0.5-0.7-0.8c3.3-2.2,5-0.8,6.6-3.9c1.4,0.5,1.5,1.1,2.8,1.7C860.8,298.8,860.9,299.4,861.1,300L861.1,300z
		 M867.5,324.7c1.1-1,0.9-0.9,1.3-2.2c-0.2-0.3-0.4-0.5-0.7-0.8c-3.6-1.1-12,0.5-17.5,1.4c-0.2-0.3-0.4-0.5-0.7-0.8
		c0.4-0.3,0.8-0.5,1.2-0.8c6.6-1,13.3-1.9,19.9-2.9c2.7,3.7,4.8,8.2,6.3,14.4c-1.1,0.4-2.3,0.9-3.4,1.3c-4.8-8.2-20.8-5-30.6-2.5
		C845.1,325.3,861.7,328.5,867.5,324.7L867.5,324.7z M850.5,345.6c-1.7-0.2-2.5-0.3-3.6-1.5c1.1,0,2.2,0.1,3.3,0.1
		C850.3,344.8,850.4,345.2,850.5,345.6L850.5,345.6z M861.7,345.3c-2.4,0.3-4.9,0.5-7.3,0.8c-0.3-0.4-0.5-0.8-0.8-1.2
		c0.3-0.2,0.5-0.4,0.8-0.7c3.1-0.3,4-0.5,6.5-0.2c0.2,0.3,0.4,0.5,0.7,0.8C861.6,345,861.6,345.2,861.7,345.3L861.7,345.3z
		 M881.6,352.2c-4.3-0.2-7.7-3.5-12.2-4.1c-0.2-0.3-0.4-0.5-0.7-0.8c2.7-2,5.4-2.2,6.8-4.9c-0.1-1.2-0.3-2.4-0.4-3.7
		c1.2-0.3,2.4-0.6,3.6-0.9C881.7,341.8,880.6,349,881.6,352.2L881.6,352.2z M949.8,325.6c-1.1,5.1-12.3,4.2-18.5,4.9
		c-9.3,2.1-18.7,4.2-28,6.3c-4.7,3.2-9.4,6.3-14.1,9.5c-0.1,0-0.3,0.1-0.4,0.1c-1.5-5-3-9.9-4.5-14.9c-5.7-11.4-12-27.1-19.7-38.9
		c-31.9-48.9-65.1-89.5-103.8-125.6c-12-11.2-24.4-26.4-39-33.3c-27.3-13.1-54.7-23.9-84.8-32.7c-12.5-3.7-24.7-11.3-38.4-13.3
		c-0.1-0.6-0.3-1.2-0.4-1.8c16.1,0.5,30.3-0.8,46.7,1c14.1,1.6,28.8,7.7,43.1,9.4c17.9,2,34.9,4.6,50.8,10.3
		c11.2,3.9,22.5,7.7,33.7,11.6c5.6,5.4,22.4,16.7,31.3,15c4.1,5.1,8.1,8.8,13.8,10.7c2,0,4.1,0,6.1-0.1c2.8,1.7,7,2.8,9.6,4.7
		c1.9,2,3.8,4.1,5.7,6.1c5.9,3.3,12.7,3.7,18.4,8.2c4.3,3.4,6.9,9.2,11.4,12.3c1.4,0.9,2.9-0.2,4.1,1.4c0.8,2,1.6,4,2.4,6
		c2.9,0.9,5.7,1.8,8.6,2.6c3,2.8,5,7.7,8.4,11.6c2.3,2.6,7,5.1,9.3,7.6c4.3,4.5,6.3,12.2,9.2,17c1.1,1.7,3.5,1.1,4.7,2.1
		c3,2.7-0.2,4.4,1.3,7.2c2.3,4.6,6.9,9.7,9.9,14c0.5,2.5,0.9,5.1,1.4,7.6c2.4,2.2,4.8,4.5,7.2,6.7c3.6,5.9,0.8,9.7,2.9,13.9
		c5.8,11.8,6.4,19.4,11.3,33.4C950.8,310.3,949.7,325.5,949.8,325.6L949.8,325.6z"/>
	<path class="st1" d="M694.2,651.9c6.3,14.7,13.3,22.3,28.1,23.3c20.6,1.3,34.4-15.6,37.7-28.7c1.5-6.3,2.9-20.6-5.4-22.6
		c-2.7-0.5-6,1.3-7.9,2.4c-2.3,7.1,1.6,22.3-4,28.2c-3.5,3.6-11.8,6.9-15.8,6.6c-3.8-0.3-8,0.9-10.6-1.2L689.4,632
		C691.3,633.2,692.7,648.4,694.2,651.9L694.2,651.9z"/>
	<path class="st2" d="M778.1,795.2v-35.4h7.3c0,0.6,0,8.7-0.1,16h0.2c0.7-1.3,1.7-2.8,2.3-3.7l9.7-12.4h8.6l-12.5,15.3
		c3,5,8.4,13.5,12.5,20.1h-8.6c-1.7-3-6.8-11.4-9-15.4c-1,1.2-2.2,2.3-3.2,3.6c0.1,5.4,0.1,11.3,0.1,11.8H778.1L778.1,795.2z"/>
	<path class="st2" d="M829.9,795.2h-5.8l-0.5-0.5l-0.6-2l-0.2-0.1c-2.2,2-4.7,3.2-7.8,3.2c-5.5,0-6.5-4.8-6.5-7.6
		c0-8,6.8-8.4,14-8.8v-1.6c0-2.3-1.5-2.8-3.3-2.8c-3.2,0-6.2,1-7.9,1.7l-1.6-4.1V772c4.7-1.7,8.8-2.1,11.6-2.1
		c5.1,0,8.5,2.1,8.5,7.7v11.7C829.8,791.3,829.9,794.2,829.9,795.2L829.9,795.2z M822.6,783.4L822.6,783.4c-4.9,0.1-7,0.1-7,4
		c0,1.8,0.5,3.5,2.4,3.5c1.2,0,3-0.7,4.5-2.3C822.5,788.3,822.6,783.7,822.6,783.4L822.6,783.4z"/>
	<path class="st2" d="M847.7,795.2h-4.3c-6.5,0-6.9-3.7-6.9-7.3c0-0.5,0-7.2,0.1-12.1c-1.6,0.1-2.6,0.1-3.2,0.1l0-5.2
		c0.5,0,1.5,0,3.1,0.1c-0.1-2.8-0.1-6.5-0.1-7l0.5-0.5h6.8c0,0.5,0,3.6-0.1,7.5c1.8-0.1,4.2-0.1,4.8-0.1l-0.1,5.2
		c-0.5,0-2.8,0-4.7-0.1c0.1,4.7,0.1,10.8,0.1,11.2c0,2.6,0,3.1,2.3,3.1h2l0.1,4.6L847.7,795.2L847.7,795.2z"/>
	<path class="st2" d="M874.1,795.2h-7.3c0-0.5,0.2-15.8,0.2-16.3c0-2.6-0.6-3.6-2.4-3.6c-1.3,0-3.2,0.8-4.6,1.8l0.1,18.1h-7.3v-30.1
		c0-2.1,0-5.2-0.2-6.3l7-0.2l0.5,0.5v6c0,0.5-0.1,7.2-0.1,7.8c2.3-1.7,5.4-2.9,8.1-2.9c3.5,0,6.1,2.1,6.1,7.3
		C874.3,777.8,874.1,794.7,874.1,795.2L874.1,795.2z"/>
	<path class="st2" d="M890.7,795.9c-9.3,0-12-7.2-12-13.1c0-7.2,3.4-12.9,12-12.9c8.4,0,12,5.6,12,12.9
		C902.7,788.6,899.8,795.9,890.7,795.9L890.7,795.9z M890.7,791.4c3,0,4.3-3.1,4.3-8.5c0-4.1-0.7-7.9-4.3-7.9
		c-3.7,0-4.3,3.8-4.3,7.9C886.4,788.3,887.7,791.4,890.7,791.4L890.7,791.4z"/>
	<path class="st2" d="M917.7,759.1v30.1c0,2,0.1,4.9,0.3,6h-10.6c-0.1-1-0.3-4-0.3-6v-24.5c0-2-0.1-4.9-0.2-5.9l10.1-0.2
		L917.7,759.1L917.7,759.1z"/>
	<path class="st2" d="M931.5,795.2h-10.9v-18.7c0-1.5-0.2-4.9-0.2-6l10.3-0.1l0.8,0.5V795.2L931.5,795.2z M931.5,766.5h-10.9v-6.7
		l0.8-0.5h10.1V766.5L931.5,766.5z"/>
	<path class="st2" d="M932.1,792.2l2.2-3.9c1.7,1.5,4,2.8,6.3,2.8c1.7,0,3.5-0.7,3.5-2.7c0-2.2-2.5-2.5-5.4-3.8
		c-3.2-1.4-5.9-3.1-5.9-7.2c0-5.3,4.3-7.6,9.6-7.6c2.9,0,6,0.7,8.2,2.1v0.6l-2.1,4.1c-1.4-1.1-3.4-1.8-5.6-1.8
		c-1.9,0-3.1,0.8-3.1,2.3c0,2,2.3,2.4,5.1,3.5c3.9,1.5,6.3,3.2,6.3,7.3c0,5.5-4.3,7.9-10,7.9c-3.6,0-6.5-1-9.3-3.1V792.2
		L932.1,792.2z"/>
	<path class="st2" d="M974.1,792.8c-2.3,2-4.7,3.1-8.4,3.1c-7.9,0-11.1-5.4-11.1-13.2c0-7.4,3.7-12.8,11.8-12.8
		c2.9,0,5.7,0.9,7.6,2.1v0.6l-2.1,4.1c-1.4-1-3.1-1.7-4.6-1.7c-3.5,0-5,3.2-5,7.7c0,4.8,1.2,8.3,4.5,8.3c1.9,0,3.6-1.2,4.8-2.5
		l2.4,3.7V792.8L974.1,792.8z"/>
	<path class="st2" d="M999.2,795.2h-7.3c0-0.5,0.2-15.8,0.2-16.3c0-2.6-0.6-3.6-2.4-3.6c-1.3,0-3.2,0.8-4.5,1.8l0.1,18.1h-7.3v-30.1
		c0-2.1-0.1-5.2-0.2-6.3l7-0.2l0.5,0.5v6c0,0.5-0.1,7.2-0.1,7.8c2.3-1.7,5.4-2.9,8.1-2.9c3.5,0,6.1,2.1,6.1,7.3
		C999.4,777.8,999.2,794.7,999.2,795.2L999.2,795.2z"/>
	<path class="st2" d="M1025,792.3c-2.5,2.2-5.4,3.6-9.2,3.6c-8.4,0-11.9-5.8-11.9-13.1c0-7.2,3.2-12.8,11.5-12.8
		c8,0,10.9,5.2,10.9,11.9c0,0.8-0.2,2.2-0.5,3c-2,0-14-0.1-14.5-0.1c0.1,2.7,1.2,6.4,5.4,6.4c2.1,0,3.9-1.1,5.4-2.7l3,3.3V792.3
		L1025,792.3z M1019.3,780.9c0-3.9-1.1-5.9-3.9-5.9c-2.5,0-4,2-4.1,6.1C1011.8,781,1019,780.9,1019.3,780.9L1019.3,780.9z"/>
	<path class="st2" d="M777.8,856.8l-3.5-3.9v-0.7c3-2,3.6-2.8,3.6-7v-18.5c0-1.4-0.1-4.9-0.2-6l7.2-0.1l0.5,0.5v23.3
		C785.4,851,783.4,853.5,777.8,856.8L777.8,856.8z M785.4,816.7h-7.6V810l0.5-0.5h7V816.7L785.4,816.7z"/>
	<path class="st2" d="M812.8,845.4H807l-0.5-0.5l-0.6-2.1l-0.2-0.1c-2.7,2.6-5.6,3.3-8.4,3.3c-3.8,0-6.5-2.1-6.5-7.3
		c0-0.5,0.2-17.4,0.2-17.9h6.8l0.5,0.5c0,0.6-0.2,15.4-0.2,16.1c0,1.9,0.6,3.6,2.5,3.6c1.5,0,3.6-1,4.9-2.3l-0.1-17.9h6.8l0.5,0.5
		v18.2C812.6,841.5,812.7,844.4,812.8,845.4L812.8,845.4z"/>
	<path class="st2" d="M839.7,845.4h-7.3c0-0.5,0.2-15.8,0.2-16.3c0-2.6-0.6-3.6-2.4-3.6c-1.3,0-3.2,0.8-4.5,1.8l0,18.1h-7.3v-18.3
		c0-1.8-0.1-5.3-0.2-6.4l6.1-0.2l0.6,0.5l0.4,2l0.1,0.1c2.3-1.7,5.7-3.1,8.4-3.1c3.5,0,6.1,2.1,6.1,7.3
		C839.9,828,839.7,844.9,839.7,845.4L839.7,845.4z"/>
	<path class="st2" d="M867.6,820.8c-0.1,0.5-0.2,3.2-0.2,4.7v21c0,7.1-5.4,10.1-11.3,10.1c-3.3,0-6.9-0.9-9.7-2.5l1.9-4.6h0.6
		c1.9,1.2,4.2,2.1,6.4,2.1c3.1,0,4.8-1.6,4.8-4.2c0-0.4,0.2-2.8,0.3-4.2l-0.2-0.1c-1.8,1.6-3.9,3.1-6.8,3.1c-7.1,0-8.8-6.5-8.8-13.1
		c0-6.5,2.6-12.8,9-12.8c2.8,0,5,1.2,6.9,3l0.2-0.1l0.5-1.8l0.6-0.5L867.6,820.8L867.6,820.8z M860.1,838.4c0-0.5,0.1-10.3,0.1-10.9
		c-1.1-1.3-2.7-2.1-4.1-2.1c-3.5,0-3.9,4.7-3.9,7.4c0,3.1,0.2,8.2,3.4,8.2C857.1,841.1,858.9,839.9,860.1,838.4L860.1,838.4z"/>
	<path class="st2" d="M893,842.5c-2.5,2.2-5.4,3.6-9.2,3.6c-8.4,0-11.9-5.8-11.9-13.1c0-7.2,3.2-12.8,11.5-12.8
		c8,0,10.9,5.2,10.9,11.9c0,0.8-0.2,2.2-0.5,3c-2,0-14-0.1-14.5-0.1c0.1,2.7,1.2,6.4,5.4,6.4c2.1,0,3.9-1.1,5.4-2.7l2.9,3.3V842.5
		L893,842.5z M887.3,831.1c0-3.9-1.1-5.9-3.9-5.9c-2.5,0-4,2-4.1,6.1C879.9,831.2,887.1,831.1,887.3,831.1L887.3,831.1z"/>
	<path class="st2" d="M935.8,843.8c-2.5,1.5-6.7,2-10.2,2c-11,0-16.9-7.5-16.9-18.7c0-10.2,5.3-18.1,16.4-18.1c3.4,0,6.9,0.8,10,2.4
		l-2.9,5.9c-1.8-1.1-4.5-1.8-7-1.8c-6.8,0-8.9,4.9-8.9,11.5c0,9.5,3.7,12.5,9.6,12.5c1.1,0,2.1-0.1,3.1-0.3c0-0.5,0-3.6,0.1-9.2
		c-3.4,0.1-4,0.1-4.5,0.1c0-0.1-0.1-5.8-0.1-5.8h11.4V843.8L935.8,843.8z"/>
	<path class="st2" d="M961.9,842.5c-2.5,2.2-5.4,3.6-9.2,3.6c-8.4,0-11.8-5.8-11.8-13.1c0-7.2,3.2-12.8,11.5-12.8
		c8,0,10.9,5.2,10.9,11.9c0,0.8-0.2,2.2-0.5,3c-2,0-14-0.1-14.5-0.1c0,2.7,1.2,6.4,5.4,6.4c2.1,0,3.9-1.1,5.4-2.7l2.9,3.3V842.5
		L961.9,842.5z M956.2,831.1c0-3.9-1.1-5.9-3.9-5.9c-2.5,0-4,2-4.1,6.1C948.7,831.2,955.9,831.1,956.2,831.1L956.2,831.1z"/>
	<path class="st2" d="M999.7,845.4h-7.3c0-0.5,0.2-15.8,0.2-16.3c0-2.6-0.7-3.6-2.3-3.6c-1.2,0-2.8,0.7-4.1,1.7v18.2H979
		c0-0.5,0.1-15.8,0.1-16.3c0-2.6-0.6-3.6-2.1-3.6c-1.2,0-3,0.7-4.2,1.8l0.1,18.1h-7.3v-18.3c0-1.8-0.1-5.3-0.2-6.4l6.1-0.2l0.6,0.5
		l0.4,2l0.1,0.1c2.2-1.8,5.3-3.1,8-3.1c2.1,0,4,0.9,5,3.2c2.5-2,5.8-3.2,8.4-3.2c3.4,0,6,2.1,6,7.3
		C999.9,828,999.7,844.9,999.7,845.4L999.7,845.4z"/>
	<path class="st2" d="M1025.5,842.5c-2.5,2.2-5.4,3.6-9.2,3.6c-8.4,0-11.8-5.8-11.8-13.1c0-7.2,3.2-12.8,11.5-12.8
		c8,0,10.9,5.2,10.9,11.9c0,0.8-0.2,2.2-0.5,3c-2,0-14-0.1-14.5-0.1c0.1,2.7,1.2,6.4,5.4,6.4c2.1,0,3.9-1.1,5.4-2.7l2.9,3.3V842.5
		L1025.5,842.5z M1019.8,831.1c0-3.9-1.1-5.9-3.9-5.9c-2.5,0-4,2-4.1,6.1C1012.4,831.2,1019.5,831.1,1019.8,831.1L1019.8,831.1z"/>
	<path class="st2" d="M1042.5,845.4h-10.9v-18.7c0-1.5-0.2-4.9-0.2-6l10.4-0.1l0.8,0.5V845.4L1042.5,845.4z M1042.5,816.7h-10.9V810
		l0.8-0.5h10.1V816.7L1042.5,816.7z"/>
	<path class="st2" d="M1066.1,845.4h-7.3c0-0.5,0.2-15.8,0.2-16.3c0-2.6-0.6-3.6-2.4-3.6c-1.3,0-3.2,0.8-4.6,1.8l0.1,18.1h-7.3
		v-18.3c0-1.8-0.1-5.3-0.2-6.4l6.1-0.2l0.6,0.5l0.4,2l0.1,0.1c2.3-1.7,5.7-3.1,8.4-3.1c3.5,0,6.1,2.1,6.1,7.3
		C1066.2,828,1066.1,844.9,1066.1,845.4L1066.1,845.4z"/>
	<path class="st2" d="M1094,845.4h-5.8l-0.5-0.5l-0.7-2l-0.2,0c-1.9,1.6-4.1,3.2-7,3.2c-7.1,0-8.8-6.5-8.8-13.1
		c0-6.5,2.6-12.8,9-12.8c2.8,0,5,1.2,6.5,2.6l0.1-0.1c-0.1-2-0.1-7.2-0.1-7.7c0-2-0.1-4.9-0.2-6l7-0.2l0.5,0.5v30.1
		C1093.8,841.5,1093.9,844.4,1094,845.4L1094,845.4z M1086.5,838.4c0-0.5,0.1-10.3,0.1-10.9c-1.1-1.3-2.7-2.1-4.1-2.1
		c-3.5,0-3.9,4.7-3.9,7.4c0,3.1,0.2,8.2,3.4,8.2C1083.5,841.1,1085.3,839.9,1086.5,838.4L1086.5,838.4z"/>
	<path class="st2" d="M1119.3,842.5c-2.5,2.2-5.4,3.6-9.2,3.6c-8.4,0-11.9-5.8-11.9-13.1c0-7.2,3.2-12.8,11.5-12.8
		c8,0,10.9,5.2,10.9,11.9c0,0.8-0.2,2.2-0.5,3c-2,0-14-0.1-14.5-0.1c0.1,2.7,1.2,6.4,5.4,6.4c2.1,0,3.9-1.1,5.4-2.7l3,3.3V842.5
		L1119.3,842.5z M1113.6,831.1c0-3.9-1.1-5.9-3.9-5.9c-2.5,0-4,2-4.1,6.1C1106.2,831.2,1113.3,831.1,1113.6,831.1L1113.6,831.1z"/>
	<path class="st2" d="M778.1,907.2v-35.4h12.7c2.3,0,11.9,0,11.9,11.3c0,9.9-8.5,11.4-11.4,11.4c-0.4,0-4.1,0-6.1-0.1
		c0,4.2,0.2,12.3,0.2,12.8H778.1L778.1,907.2z M785.3,877.9c0,0.4,0,6.7-0.1,10.8c1.8-0.1,4.3-0.1,4.7-0.1c1.6,0,5.8,0,5.8-5.4
		c0-5.2-4-5.3-5.8-5.3C789.6,878,786.9,878,785.3,877.9L785.3,877.9z"/>
	<path class="st2" d="M815.5,907.2h-7.3c0-0.5,0.1-14.6,0.2-19.5c-1.4,0.1-2.8,0.1-3.3,0.1l0.1-5.2c0.4,0,1.8,0,3.2,0
		c0-0.2-0.1-4.5-0.1-4.7c0-5.8,3.4-8,7.9-8c1.9,0,3.9,0.3,5.8,1.1v0.8l-1.5,4.1c-0.8-0.5-1.8-0.7-2.6-0.7c-1.4,0-2.4,0.7-2.4,3.5
		c0,0.9,0.1,3.7,0.1,3.9c1.5,0,4.5,0,4.9,0l0,5.2c-0.4,0-3.4,0-4.9-0.1C815.5,892.6,815.5,906.7,815.5,907.2L815.5,907.2z"/>
	<path class="st2" d="M844.5,907.2h-5.8l-0.5-0.5l-0.6-2l-0.2-0.1c-2.2,2-4.7,3.2-7.8,3.2c-5.5,0-6.5-4.8-6.5-7.6
		c0-8,6.8-8.4,14-8.8v-1.6c0-2.3-1.5-2.8-3.3-2.8c-3.2,0-6.2,1-7.9,1.7l-1.6-4.1V884c4.7-1.7,8.8-2.1,11.6-2.1
		c5.1,0,8.5,2.1,8.5,7.7v11.7C844.4,903.2,844.5,906.1,844.5,907.2L844.5,907.2z M837.2,895.4L837.2,895.4c-4.9,0-7,0.1-7,4
		c0,1.8,0.5,3.5,2.4,3.5c1.2,0,2.9-0.7,4.5-2.3C837.1,900.3,837.2,895.7,837.2,895.4L837.2,895.4z"/>
	<path class="st2" d="M857.3,907.2h-7.3v-16.1c0-1-0.1-7.5-0.2-8.5l5.7-0.2l0.6,0.5c0.2,1.7,0.3,3.3,0.3,3.6l0.3,0.1
		c1.5-2.3,4.1-4.1,6.2-4.4l0.6,0.5l1.3,5.2c-2.5,0.6-6,2.3-7.4,4.7V907.2L857.3,907.2z"/>
	<path class="st2" d="M875,907.2h-7.3v-16.1c0-1-0.1-7.5-0.2-8.5l5.7-0.2l0.6,0.5c0.2,1.7,0.3,3.3,0.3,3.6l0.3,0.1
		c1.5-2.3,4.1-4.1,6.2-4.4l0.6,0.5l1.3,5.2c-2.5,0.6-6,2.3-7.5,4.7V907.2L875,907.2z"/>
	<path class="st2" d="M885.9,918.6l-3.5-3.9V914c3-2,3.6-2.8,3.6-7v-18.5c0-1.4-0.1-4.9-0.2-5.9l7.2-0.1l0.5,0.5v23.3
		C893.5,912.8,891.5,915.3,885.9,918.6L885.9,918.6z M893.5,878.5h-7.6v-6.7l0.5-0.5h7V878.5L893.5,878.5z"/>
	<path class="st2" d="M920.9,907.2h-5.8l-0.5-0.5l-0.6-2.1l-0.2-0.1c-2.7,2.6-5.6,3.3-8.4,3.3c-3.8,0-6.5-2.1-6.5-7.3
		c0-0.5,0.2-17.4,0.2-18h6.8l0.5,0.5c0,0.6-0.2,15.4-0.2,16.1c0,1.9,0.6,3.6,2.5,3.6c1.6,0,3.6-1,4.9-2.3l-0.1-17.9h6.8l0.5,0.5
		v18.2C920.7,903.2,920.8,906.1,920.9,907.2L920.9,907.2z"/>
	<path class="st2" d="M948.5,882.6c-0.1,0.5-0.2,3.2-0.2,4.7v21c0,7.1-5.4,10.1-11.3,10.1c-3.3,0-6.9-0.9-9.7-2.5l1.9-4.6h0.6
		c1.9,1.2,4.2,2.1,6.4,2.1c3.1,0,4.8-1.5,4.8-4.2c0-0.4,0.2-2.8,0.3-4.2l-0.2-0.1c-1.8,1.6-3.9,3.1-6.8,3.1c-7.1,0-8.8-6.5-8.8-13.1
		c0-6.5,2.6-12.8,9-12.8c2.8,0,5,1.2,6.9,2.9l0.2-0.1l0.5-1.8l0.6-0.5L948.5,882.6L948.5,882.6z M941,900.2c0-0.5,0.1-10.3,0.1-10.9
		c-1.1-1.3-2.7-2.1-4.1-2.1c-3.5,0-3.9,4.7-3.9,7.4c0,3.1,0.2,8.2,3.4,8.2C938,902.9,939.8,901.7,941,900.2L941,900.2z"/>
	<path class="st2" d="M973.9,904.2c-2.5,2.2-5.4,3.6-9.2,3.6c-8.4,0-11.8-5.8-11.8-13.1c0-7.2,3.2-12.8,11.5-12.8
		c8,0,10.9,5.2,10.9,11.9c0,0.8-0.2,2.2-0.5,3c-2,0-14-0.1-14.5-0.1c0,2.7,1.2,6.4,5.4,6.4c2.1,0,3.9-1.1,5.4-2.7l2.9,3.3V904.2
		L973.9,904.2z M968.2,892.9c0-3.9-1.1-5.9-3.9-5.9c-2.5,0-4,2-4.1,6.1C960.7,893,967.9,892.9,968.2,892.9L968.2,892.9z"/>
	<path class="st2" d="M998.9,907.2h-7.3c0-0.5,0.2-15.8,0.2-16.3c0-2.6-0.6-3.6-2.4-3.6c-1.3,0-3.2,0.8-4.6,1.8l0.1,18.1h-7.3v-18.3
		c0-1.8-0.1-5.3-0.2-6.4l6.1-0.2l0.6,0.5l0.4,2l0.1,0.1c2.3-1.7,5.7-3.1,8.4-3.1c3.5,0,6.1,2.1,6.1,7.3
		C999,889.8,998.9,906.7,998.9,907.2L998.9,907.2z"/>
	<path class="st2" d="M1026.8,907.2h-5.8l-0.5-0.5l-0.7-2l-0.2-0.1c-1.9,1.6-4.1,3.2-7,3.2c-7.1,0-8.8-6.5-8.8-13.1
		c0-6.5,2.6-12.8,9-12.8c2.8,0,5,1.2,6.5,2.6l0.1-0.1c-0.1-2-0.1-7.2-0.1-7.7c0-2-0.1-4.9-0.2-5.9l7-0.2l0.5,0.5v30.1
		C1026.6,903.2,1026.7,906.1,1026.8,907.2L1026.8,907.2z M1019.3,900.2c0-0.5,0.1-10.3,0.1-10.9c-1.1-1.3-2.7-2.1-4.1-2.1
		c-3.5,0-3.9,4.7-3.9,7.4c0,3.1,0.2,8.2,3.4,8.2C1016.3,902.9,1018.1,901.7,1019.3,900.2L1019.3,900.2z"/>
	<path class="st2" d="M1044.9,907.2v-35.4h7.3c0,0.5,0,9.9-0.1,14h12.1c-0.1-4.1-0.1-13.5-0.1-14h7.3v35.4h-7.3
		c0-0.5,0-8.7,0.1-15.5h-12.1c0.1,6.8,0.1,15,0.1,15.5H1044.9L1044.9,907.2z"/>
	<path class="st2" d="M1099.8,907.2h-5.8l-0.5-0.5l-0.6-2.1l-0.2-0.1c-2.7,2.6-5.6,3.3-8.4,3.3c-3.8,0-6.5-2.1-6.5-7.3
		c0-0.5,0.2-17.4,0.2-18h6.8l0.5,0.5c0,0.6-0.2,15.4-0.2,16.1c0,1.9,0.6,3.6,2.5,3.6c1.5,0,3.6-1,4.9-2.3l-0.1-17.9h6.8l0.5,0.5
		v18.2C1099.6,903.2,1099.7,906.1,1099.8,907.2L1099.8,907.2z M1086.4,878.3h-6.3V872l0.5-0.5h5.7V878.3L1086.4,878.3z
		 M1097.6,878.3h-6.3V872l0.5-0.5h5.7V878.3L1097.6,878.3z"/>
	<path class="st2" d="M1115.9,871.1v30.1c0,2,0.1,4.9,0.3,5.9h-10.6c-0.2-1-0.3-4-0.3-5.9v-24.5c0-2-0.1-4.9-0.2-5.9l10.1-0.2
		L1115.9,871.1L1115.9,871.1z"/>
	<path class="st2" d="M1116.8,904.2l2.2-3.9c1.7,1.5,4,2.8,6.3,2.8c1.7,0,3.5-0.7,3.5-2.7c0-2.2-2.5-2.5-5.4-3.8
		c-3.2-1.4-5.9-3.1-5.9-7.2c0-5.3,4.3-7.6,9.6-7.6c2.9,0,6,0.7,8.2,2.1v0.6l-2.1,4.1c-1.4-1.1-3.4-1.8-5.6-1.8
		c-1.9,0-3.1,0.8-3.1,2.3c0,2,2.3,2.4,5.1,3.5c3.9,1.5,6.3,3.2,6.3,7.3c0,5.5-4.3,7.9-10,7.9c-3.6,0-6.5-1-9.3-3.1V904.2
		L1116.8,904.2z"/>
	<path class="st3" d="M689.9,911c-45.7,0-70.5-31.8-70.5-79c0-43.1,22.4-76.1,69.8-76.1c14.4,0,29.4,3.5,42.4,10.2l-14.4,28.5
		c-6.7-4.4-17.2-7.2-27-7.2c-27.2,0-34.6,18.5-34.6,44.6c0,41.1,15.7,49,35,49c3.7,0,7.2,0,10.9-0.7c0-2,0-12.2,0.4-33.5
		c-12.6,0.2-15,0.2-17.2,0.2c0-0.6-0.4-27.4-0.4-27.8h50.3v82.5C723.8,908.6,705.1,911,689.9,911 M571,957.1
		c23.3-14.6,32.2-25.5,32.2-54.4V812l-2.2-2.2l-34.2,0.2c0.2,4.4,0.7,12.9,0.7,19v77.7c0,17.4-2.2,20.7-13.3,28.5v3L571,957.1
		L571,957.1z M433.3,759.6h35.5c0,2.4,0,33.1-0.7,66.1h1.1c2.6-6.1,6.3-12.6,9.1-16.5l35.5-49.6h40.9l-49.6,64.8
		c13.7,24.1,33.3,56.4,49.6,84.4h-40.9c-7.6-15.7-24.1-43.9-33.1-61.6c-4.1,5-8.5,9.6-12.6,14.6c0.4,24.1,0.7,45,0.7,47h-35.5V759.6
		L433.3,759.6z M585.2,797.8c10.6,0,19.2-8.6,19.2-19.2c0-10.6-8.6-19.2-19.2-19.2c-10.6,0-19.2,8.6-19.2,19.2
		C566,789.2,574.6,797.8,585.2,797.8"/>
</g>
</svg>
