<svg width="1500" height="1000" viewBox="0 0 1500 1000" fill="none" xmlns="http://www.w3.org/2000/svg">
<mask id="mask0_1152_169" style="mask-type:luminance" maskUnits="userSpaceOnUse" x="637" y="187" width="538" height="533">
<path d="M1174.2 187.8H637.9V719.4H1174.2V187.8Z" fill="white"/>
</mask>
<g mask="url(#mask0_1152_169)">
<path d="M1171.8 412L988.1 336.5C988.1 336.5 984.8 335.2 985 331.6L988.6 260.2C988.6 260.2 988.8 256.7 992.3 256.7H1107C1107 256.7 1110.6 256.7 1107.3 255.2L961 188.3C961 188.3 957.8 186.8 954.9 188.9L862 254.6C862 254.6 859.1 256.7 862.7 256.7H927C927 256.7 930.6 256.7 930.9 260.2L935.8 311.7C935.8 311.7 936.1 315.2 932.9 313.9L842.5 276.1C842.5 276.1 839.2 274.7 837.6 277.9L729 493.4C729 493.4 727.4 496.6 730.5 498.3L965.4 628.1C965.4 628.1 968.5 629.8 968.7 626.3C968.7 626.2 969 621.1 981.6 392C981.6 392 981.8 388.5 985 390C1031.9 411.9 1043.5 460.3 1045.3 489.8C1048.1 535.8 1020.3 639 956 662.2C956 662.2 952.7 663.4 949.1 662.9C810.1 644.4 682.9 562.7 699.1 471.2C718.5 361.9 777.4 210.7 777.4 210.7C777.4 210.7 778.7 207.4 775.1 207.4H641.5C641.5 207.4 637.9 207.4 637.9 211V566.5C637.9 566.5 637.9 570.1 640.8 572.1C711.9 620.9 813.1 682.4 880.6 718.4C880.6 718.4 883.7 720.1 887.3 719.6C1079.6 694.3 1161.7 456.9 1174 417C1174 416.7 1175.1 413.3 1171.8 412ZM940.8 434.7C939.9 476.3 926 553.7 894.5 544.8C859.1 534.8 803.8 506.4 784.6 449.4C784.6 449.4 783.5 446 785.1 442.9C816.8 380.7 884.8 361.8 914.4 365.2C932.5 367.1 941.6 396.3 940.8 434.7ZM870.5 399.1C898.9 399.1 922 422.2 922 450.6C922 479 898.9 502.1 870.5 502.1C842.1 502.1 819 479 819 450.6C818.9 422.3 842.1 399.1 870.5 399.1Z" fill="#00ADBA"/>
</g>
<path d="M628.4 398.1C631 403.8 635 405.8 638.6 408.3C639.8 407.3 641 406.3 642.2 405.2C641.8 402.4 641.5 399.6 641.1 396.9C640.7 396.1 640.3 395.3 640 394.5C636.2 395.7 632.3 396.9 628.4 398.1Z" fill="#DDDDDD"/>
<path d="M765.6 372.3C765.1 373.7 764.6 375 764.1 376.4C765.8 378.1 767.5 379.7 769.2 381.4C776.1 375 774.8 376.4 778 367.6C773.8 369.1 769.7 370.7 765.6 372.3Z" fill="#DDDDDD"/>
<path d="M607.3 421.7C602.7 426.3 598.1 430.9 593.5 435.5Z" fill="#DDDDDD"/>
<path d="M574.1 58.1999C577.3 55.0999 578.9 53.7999 578.7 48.0999C577.1 46.9999 578 47.9999 576.8 45.3999C574.1 44.2999 571.3 44.0999 567.4 44.8999C566.6 46.1999 565.7 47.4999 564.9 48.7999C566.3 56.1999 568.8 58.4999 574.1 58.1999Z" fill="#DDDDDD"/>
<path d="M575.1 85.7999C578.1 84.9999 578.9 84.2999 579.3 81.9999C581 78.5999 578.6 60.1999 574.9 57.6999C572.9 55.5999 570.1 56.4999 566.7 56.7999C566 57.2999 565.4 57.6999 564.7 58.1999C563.6 61.8999 564 79.3998 567.7 84.1999C569.5 85.9999 572.5 85.6999 575.1 85.7999Z" fill="#DDDDDD"/>
<path d="M967.2 320C966 314.5 964.9 309 963.7 303.5C947.4 271.4 939.5 235.6 920.8 210.6C879.8 155.9 832.7 135.9 772.3 113.5C748.3 104.6 725.6 96.6999 698.3 92.2999C671.8 88.0999 605.4 68.7999 581.1 84.7999C580.2 92.5999 592.2 89.4999 595.5 93.9999C594.5 93.8999 593.6 93.7999 592.6 93.7999C591.7 94.4999 590.7 95.1999 589.8 95.8999C590.3 97.2999 590.8 98.7999 591.3 100.2C588.3 99.7999 582.4 95.2999 581 92.3999C579.4 92.1999 577.8 91.8999 576.1 91.6999C570.5 98.0999 569.2 106.4 565.5 113.9C560.1 124.7 554.8 134.9 549.8 146.3C545.3 156.6 539 167.2 535.3 177.9C525.7 206.1 519.5 238.5 514.3 266.4C512.3 276.9 514.6 285.2 514.4 295.9C513.7 333.6 517.6 374.9 523.6 412.4C516.3 411.5 509.1 410.6 501.8 409.7C469.9 408.4 430.1 418.9 411.5 437.9C405.2 437.1 408.6 420.4 407.5 415.4C404.1 400.5 413 353.9 417.6 340.3C428.1 309 439.5 280 452.8 250.7C458.3 238.7 466.4 227.8 472.7 216.4C477.8 207.2 481.3 196.9 488.1 188.8C504.5 169.7 520.8 150.6 537.2 131.5C546 122.3 553.1 112.8 561.6 104.1C565.7 99.8999 570.7 97.7999 572.9 92.4999C572.7 91.5999 572.5 90.6999 572.3 89.7999C560.4 84.5999 550.9 92.8999 537.1 95.3999C527.4 97.1999 514.1 108.6 505.7 113.2C485.8 124.4 467.3 134 450.5 147.1C422.5 169 406.8 191.6 386.8 217.7C385.4 217.1 374.1 233.6 372.6 236.6C367.4 243.8 362.3 251 357.1 258.1C351.8 271.6 346.6 283 342 296.9C337.3 317.2 332.7 337.6 328 357.9C328.2 361.9 328.4 365.9 328.6 370C327.2 375.8 326.2 380 325.8 385.7C326.1 388.4 326.5 391.2 326.8 393.9C322.6 410.6 324.4 435.4 328.8 459.1C329.6 459.4 330.5 459.6 331.3 459.9C336.3 461.3 339.7 452.8 342 449.8C347.2 442.9 358.9 433.2 370.6 432.1C381 431.1 395.6 438.9 401.6 445.8C405.5 450.3 400.4 455.7 408.5 454.9C414.6 447.5 418.3 438.6 427.1 432.6C445.7 419.9 503.6 412.6 519.9 418.8C525.3 420.8 526.3 426.5 528.9 430.7C529.7 430.8 530.5 430.9 531.3 431.1C546.5 418.4 559.4 398 585.3 398C589.1 397.4 592.8 396.8 596.6 396.2C605 397.8 613.3 399.4 621.7 401C627.4 402.9 633 408.3 639.8 407.9C643.8 412.2 657.2 477.6 658.3 490.7C657.9 491.1 689.8 631.5 689.4 631.9L703.3 646.2C702.4 638.7 669.7 484.5 668.5 474.7C667.7 467.8 663.7 462 663.1 454C661.7 435.9 656.8 412.6 653.4 395.8C665 374.8 711.4 371.5 733.1 374.3C743.5 375.7 757.2 373.1 760.6 385.5C761.7 385.5 762.8 385.6 763.9 385.6C771.5 376.8 773.2 369.7 785.6 362.6C805.1 351.4 857.3 348.8 872.5 355.3C877.3 357.3 879.6 362.9 883.9 365.7C884.8 365.5 885.7 365.3 886.6 365.1C891.5 360.3 891.6 351.3 898.8 345.7C912.2 335.3 954.4 331.3 966.5 338.4C967.9 340.1 969.2 341.8 970.5 343.5C971.4 345 971.2 344.7 972.4 345.4C974.5 343.5 974.4 341.7 975.7 339.5C973.1 334.2 970.1 326.9 967.2 320ZM442.3 259.3C441.8 259.9 441.3 260.5 440.8 261.1C440.4 260.9 440.1 260.7 439.7 260.4C439.6 260 439.5 259.5 439.4 259.1C440.1 258.9 440.9 258.7 441.6 258.6C441.8 258.7 442 258.8 442.2 258.9C442.3 259 442.3 259.2 442.3 259.3ZM433.9 236C433.6 235.6 433.4 235.2 433.1 234.8C436.6 234.4 442.2 234.1 444.6 235.8C441.1 235.8 437.5 235.9 433.9 236ZM430.7 228.3C434.1 227.6 439 227 441.4 228.1C441.4 228.2 441.5 228.4 441.5 228.5C438.4 229.1 433 229.5 430.7 228.3ZM448.2 242.9C448.1 242.5 448 242 447.9 241.6C448.4 241.6 448.9 241.7 449.3 241.7C449 242.1 448.6 242.5 448.2 242.9ZM453.6 236C451.1 236.1 448.7 236.2 446.2 236.4C445.9 236 445.7 235.6 445.4 235.2C448.4 234.5 450.3 234.3 452.4 234.9C452.9 234.9 453.4 235 453.8 235C453.8 235.3 453.7 235.6 453.6 236ZM457.9 230.3C453.4 229.9 449 228.8 443.5 229.1C443.2 228.7 443 228.3 442.7 227.9C447.8 227.6 452.9 227.3 458 227C458.2 227.3 458.4 227.5 458.7 227.8C458.1 228.9 458 228.5 457.9 230.3ZM461.7 222.8C461.1 223.6 460.5 224.3 459.9 225.1C455.7 221.5 447.4 221.2 441.5 222.5C441.5 222.4 441.4 222.2 441.4 222.1C447.3 221.3 453.2 220.5 459.1 219.7C459.1 218.4 459.1 217.2 459.1 215.9C461.1 215.7 463.1 215.6 465.1 215.4C464 217.8 462.8 220.3 461.7 222.8ZM470.8 204.2C470.5 203 470.2 201.8 469.9 200.7C470.2 200.5 470.4 200.3 470.7 200C474.1 199.8 473.3 197.9 473.2 194.7C474.4 193.9 475.6 193.2 476.9 192.4C478.4 192.9 477.7 192.3 478.7 193.9C475.3 196.8 475.2 201.8 470.8 204.2ZM484.4 184.5C483.6 184.5 482.9 184.6 482.1 184.6C481.9 183.9 481.7 183.1 481.6 182.4C482.7 182.4 483.8 182.5 484.9 182.5C484.7 183.2 484.6 183.8 484.4 184.5ZM489.7 179C489.1 179.1 488.5 179.3 487.9 179.4C487.3 178.8 486.7 178.1 486 177.5C486.8 176.5 487.3 176.4 487.8 175.2C487.8 174.4 487.7 173.7 487.7 172.9C489.7 172.5 490.2 172.6 491.5 172.9C491.8 172.7 492 172.5 492.3 172.2C493.1 169.6 492.8 170.2 491.6 167.2C493 167.3 494.5 167.4 495.9 167.6C496.4 167.8 496.9 168 497.4 168.2C494.8 171.8 492.2 175.4 489.7 179ZM536.4 123.7C536.2 123 536 122.2 535.9 121.5C536.1 121.6 536.3 121.7 536.4 121.8C536.7 121.9 537.1 122 537.4 122C537.1 122.6 536.7 123.1 536.4 123.7ZM555.7 94.6999C557.2 94.5999 558.8 94.5999 560.3 94.4999C560.6 94.3999 560.9 94.3999 561.2 94.2999C561 96.8999 559.9 96.6999 558.9 98.5999C555.9 99.5999 555 98.4999 552.8 96.7999C553.9 95.9999 554.8 95.3999 555.7 94.6999ZM543.9 100.3C544 99.9999 544.1 99.5999 544.1 99.2999C544.8 99.0999 545.6 98.8999 546.3 98.7999C546.1 99.2999 545.9 99.7999 545.7 100.3C545.1 100.4 544.5 100.6 543.9 100.7C544 100.6 544 100.5 543.9 100.3ZM550.4 103.9C551.3 103.7 552.2 103.5 553.1 103.3C553.2 103.7 553.3 104.2 553.4 104.6C548.9 108.8 546.9 115 541.2 118.3C540.6 117.7 540 117 539.3 116.4C539.6 114.9 539.8 113.5 540.1 112C544.7 110.4 547.3 108.1 550.4 103.9ZM537.7 101.8C539.4 101.8 539.1 101.8 540.1 102.2C540.2 102.8 540.4 103.4 540.5 104C537.6 105.9 535.4 108.2 532 107.5C530.5 107 531.2 107.6 530.2 106C532.8 104.6 535.2 103.2 537.7 101.8ZM523.2 109.5C524 109.5 524.7 109.4 525.5 109.4C525.7 110.1 525.9 110.9 526 111.6C524.7 111.4 523.4 111.3 522.1 111.1C521.8 111.2 521.5 111.2 521.2 111.3C521.9 110.8 522.5 110.1 523.2 109.5ZM525.1 131.1C526.8 130 526.4 130.3 528.8 130.7C529.3 129.6 529.9 128.6 530.4 127.5C531 127.4 531.6 127.2 532.2 127.1C532.3 127.7 532.5 128.3 532.6 128.9C524.6 134.4 506.3 155 502.4 163.4C498.8 162.7 495.2 162 491.6 161.3C491.1 161.1 490.6 160.9 490.1 160.7C490.1 160.6 490 160.4 490 160.3C492.8 160.4 495.7 160.5 498.5 160.6C500.8 158.2 502 157.3 500.8 152.5C504.3 150.9 506.2 148.9 509.9 147.5C510.3 145.7 510.2 145.5 509.4 143.4C514.1 143.7 524.7 135.6 525.1 131.1ZM512.1 116.4C513.4 115.3 514.7 114.2 516 113.1C516.9 113.7 517.8 114.2 518.7 114.8C518.9 115.5 519.1 116.3 519.2 117C516.8 116.9 514.5 116.9 512.1 116.8C512.2 116.7 512.2 116.5 512.1 116.4ZM486.3 130.1C493.4 126.5 499.3 120.8 508.3 118.2C508.7 118.4 509 118.6 509.4 118.9C509.4 119.4 509.3 119.9 509.3 120.3C508.2 123.7 503.7 124.9 499.4 124.1C498.8 125.3 498.1 126.6 497.5 127.8C497.3 128 489.6 131.8 486.8 132.2C486.7 131.6 486.5 130.8 486.3 130.1ZM481.5 133.1C482.1 133 482.7 132.8 483.3 132.7C483.5 133.4 483.7 134.2 483.8 134.9C478.9 139.3 475 142.6 467.5 143C467.3 145.9 467.1 146.3 468.5 149.3C468.2 149.4 467.9 149.4 467.6 149.5C467.1 150 456.5 153.2 456.3 153.2C455.3 154.6 455.5 156.4 454.6 157.8C453.6 158.8 448.9 161 447.1 161.9C446 161.7 444.8 161.5 443.7 161.3C445.1 153.5 473.4 139.1 481.5 133.1ZM422.5 180.6C427.2 175.6 432 170.5 436.7 165.5C438 165.2 439.4 164.9 440.7 164.5C441.6 165.8 442.6 167.2 443.5 168.5C441.4 170.8 439.2 168.9 436.8 170.1C435.8 171.9 436.7 173.6 435.2 175.2C435.4 175.9 435.6 176.7 435.7 177.4C438 177.8 440.3 178.2 442.5 178.6C442.7 178.9 442.9 179.1 443.2 179.4C442.9 179.6 442.7 179.8 442.4 180.1C435.6 179.1 429.8 178.3 425.7 182.7C424.7 182.5 423.7 182.2 422.7 182C422.7 181.5 422.6 181 422.5 180.6ZM408.5 198.5C411.6 194.5 414.7 190.4 417.8 186.4C418.7 186.2 419.6 186 420.5 185.8C420.9 186.2 421.3 186.5 421.7 186.9C419.2 189.4 418.8 189.9 415.3 191.7C415.2 192.5 415.1 193.3 414.9 194.1C415.6 194.5 416.4 195 417.1 195.4C415.9 197 415.5 197.3 415.3 199.6C413.5 199.7 411.6 199.9 409.8 200C409.4 199.8 409.1 199.6 408.7 199.3C408.6 199.1 408.6 198.8 408.5 198.5ZM429.2 228.2C428 228.9 429.2 229 427.9 228.5C428.4 228.4 428.8 228.3 429.2 228.2ZM419.7 196.3C418.7 195.9 419.4 196.3 418.6 195.6C419 195.8 419.3 196 419.7 196.3ZM425.2 248.4C425 248.1 424.8 247.9 424.5 247.6C425.5 248 424.9 248.1 425.2 248.4ZM417.3 229.2C417.4 228.9 417.5 228.5 417.5 228.2C418.4 228.1 419.3 228.1 420.3 228C419.6 228.9 419.8 228.7 418.3 229.4C417.9 229.4 417.6 229.3 417.3 229.2ZM424 253.4C423 253 423.7 253.4 422.9 252.7C423.3 252.9 423.7 253.2 424 253.4ZM404.4 202.8C405.1 202.6 405.9 202.4 406.6 202.3C406.3 203.8 406.7 202.8 406 203.8C405.3 204.7 405.5 204.5 404 205.2C403.8 204.9 403.6 204.7 403.3 204.4C403.7 203.9 404 203.3 404.4 202.8ZM398 211.3C399.2 210.2 400.3 209.2 401.5 208.1C402.6 208.3 403.8 208.5 404.9 208.7C405.8 209.7 406.1 210.1 406.6 212C404.4 213.6 401.4 213.1 398.4 213C398.3 212.5 398.1 211.9 398 211.3ZM411.4 253.6C411.3 253.3 411.3 253 411.2 252.7C411.8 253.4 411.7 252.7 411.4 253.6ZM390.7 222C393.5 222.4 396.2 222.9 399 223.3C398.9 223.6 398.8 224 398.8 224.3C396.6 224.1 394.3 223.8 392.1 223.6C390.2 222.8 391.3 223.5 390.7 222ZM331.5 409.3C333 409.2 334.6 409.2 336.1 409.1C337.5 412 336.5 414.1 337.3 418.2C335.7 418.6 334 419 332.4 419.4C332.1 419.3 331.7 419.2 331.4 419.2C331.5 415.8 331.5 412.5 331.5 409.3ZM331.5 421C333.3 421.5 337.1 422.4 338.3 424.1C338.2 424.1 338 424.2 337.9 424.2C334.6 424.3 334.3 430.1 334.4 433C334 433.4 333.7 433.8 333.3 434.2C332.9 433.8 332.5 433.5 332.1 433.1C332 429.6 330.9 425.4 331.5 421ZM333 437C333.2 437.3 333.4 437.5 333.7 437.8C333.4 437.9 333.1 437.9 332.8 438C332.9 437.7 333 437.4 333 437ZM349.9 433C344.7 437.9 339.4 442.7 334.2 447.6C334.1 446.4 333.9 445.2 333.8 443.9C334.9 441.8 342 439.8 344.3 434.8C344.8 433.1 344.7 434.2 343.8 432.6C346.1 431.6 348.3 430.6 350.6 429.6C352.8 429.1 355 428.5 357.3 428C358 428.2 358.6 428.3 359.3 428.5C357.1 431 353 431 349.9 433ZM350.5 392.5C346.4 392.4 342.3 392.3 338.2 392.2C337.8 395.3 337.5 398.3 337.1 401.4C338.6 402.5 339.5 402.5 340.6 404.3C337.6 405.6 335.2 405.2 332.8 405.2C332.2 405.5 331.7 405.8 331.1 406.1C332.1 395.2 333.1 384.4 334.1 373.5C335.9 373.8 337.7 374.2 339.5 374.5C339.9 376.1 340.3 377.8 340.7 379.4C343.1 380.2 345.5 381.1 347.9 381.9C344.1 382.8 340.3 380.6 335.2 381.7C335 382.7 334.7 383.7 334.5 384.7C339.5 389.6 344.8 389.1 350.5 392.5ZM382.2 427.1C383.2 427.5 382.5 427.1 383.3 427.8C383 427.6 382.6 427.3 382.2 427.1ZM387 429.3C386.2 428.7 385.5 428.1 384.7 427.5C385.4 427.3 386.2 427.1 386.9 427C387.3 427.4 387.7 427.7 388.1 428.1C387.7 428.4 387.4 428.9 387 429.3ZM366.4 331.9C362.2 334.4 356.2 331.4 350.6 332.4C350 335.4 350.8 338.1 350.3 340.9C347.6 340.8 344.9 340.6 342.2 340.5C342.1 340.5 341.9 340.6 341.8 340.6C341.3 341.7 340.7 342.7 340.2 343.8C348 348.1 357.9 349 367.9 349.8C367.8 350.1 367.7 350.5 367.7 350.8C360.6 350.6 353.5 350.4 346.5 350.3C345.2 352 345.7 352.8 343.1 353.9C343.1 355.2 343.1 356.4 343.1 357.7C345.6 358.5 348.2 359.3 350.7 360.1C348.3 360 346 360 343.6 359.9C342 361.5 340.3 363.2 338.7 364.8C338.8 365.2 338.9 365.7 339 366.1C340.4 366.9 341.9 367.6 343.3 368.4C343.3 368.5 343.4 368.7 343.4 368.8C340.5 369 337.6 369.3 334.7 369.5C334.5 369.2 334.3 369 334 368.7C336.3 359.8 335.6 350.7 337.4 341.6C341.9 317.9 349.5 294.3 357.3 272.1C363.2 255.4 379.4 243.4 386.5 227.6C390.4 228.4 393.9 229.9 398.4 230.4C398.3 230.7 398.2 231.1 398.2 231.4C394.4 231.2 390.6 231 386.8 230.9C386.1 233.1 385.9 234 387.5 235.9C383.9 238.9 378.4 239.4 377.5 244.9C376.8 245.7 377.2 245 376.8 246C377.8 246.4 378.9 246.8 379.9 247.1C379.9 247.2 380 247.4 380 247.5C378.5 247.9 377 248.2 375.6 248.6C373.5 250.9 375.7 251.7 372.1 253.7C371.7 256.5 373 256.7 375.8 257.5C374 257.9 372.3 258.4 370.5 258.8C369.3 260.1 369.5 260.6 370.1 263.1C368.9 263.4 367.7 263.7 366.6 264C366.5 265 366.4 265.9 366.4 266.9C368.4 268.4 372.8 269.2 375.8 268.9C376 269.2 376.2 269.4 376.5 269.7C376.2 269.9 376 270.1 375.7 270.4C373.5 270.2 371.2 269.9 369 269.7C368.7 270.3 368.3 270.8 368 271.4C367.2 272.6 367.8 272.8 367.8 274.3C365.2 274.6 362.6 274.9 360 275.2C360 278.2 362.3 281.2 364.2 283.1C363 284.5 362 283.9 361.1 285.7C361.3 286.6 361.5 287.5 361.7 288.4C365.4 292.1 378 293.2 383.9 292.9C377.7 297 367.8 292.1 360.6 293.3C360 296.9 359.4 299.6 361.2 301.6C361.2 301.7 361.3 301.9 361.3 302C359.2 302.2 357 302.4 354.9 302.6C354.5 303 354.2 303.4 353.8 303.8C354 304.5 354.2 305.3 354.3 306C360.7 308.4 371.2 309.8 378.6 309.5C376.1 312.8 358.4 308.4 352.3 309.3C352 310 351.7 310.7 351.4 311.4C351.3 311.7 351.2 312.1 351.2 312.4C354.9 315.2 360.4 314 364.3 316.3C364.3 316.4 364.4 316.6 364.4 316.7C359.5 316.4 355.6 315 349.8 316.5C349.5 317.8 349.4 318.2 349.8 320.3C354.9 322.4 364.8 321.5 368.9 323.7C368.9 323.8 369 324 369 324.1C364.8 325.5 356 325.1 351.6 324C350.7 325 349.9 326 349 327C352 332.1 360.9 330.5 366.4 331.9ZM402.2 252.5C402.2 252.6 402.3 252.8 402.3 252.9C401.8 252.7 401.3 252.5 400.8 252.3C400.9 252.1 401 251.9 401.1 251.8C401.5 252.1 401.9 252.3 402.2 252.5ZM407.1 290.3C406.7 290.4 406.2 290.5 405.8 290.6C405.9 290.3 406 289.9 406 289.6C406.4 289.8 406.7 290.1 407.1 290.3ZM401.6 283.2C402.3 283.4 402.9 283.5 403.6 283.7C403.6 283.8 403.7 284 403.7 284.1C401.9 283.8 402.8 284.3 401.6 283.2ZM409.7 313.1C408.5 313.8 408 313.8 406.8 312.9C407.8 312.9 408.8 313 409.7 313.1ZM376.7 257.7C377.1 257.9 377.4 258.1 377.8 258.4C376.9 258 377.6 258.4 376.7 257.7ZM380.3 270.5C379.8 270.3 379.3 270.1 378.8 269.9C380.2 270.1 379.3 269.7 380.3 270.5ZM396.6 346.3C396.6 346.4 396.7 346.6 396.7 346.7C395.3 346.8 396.5 347.3 395.3 346.6C395.7 346.5 396.2 346.4 396.6 346.3ZM393.2 340C391.9 340.8 392.1 340.8 390.9 340.1C391.7 340.1 392.5 340.1 393.2 340ZM401.5 435.1C401.2 435.3 401 435.5 400.7 435.8C398.1 434.2 395.6 432.7 393 431.1C392.7 431.2 392.4 431.2 392.1 431.3C393.5 430 394.3 430.7 397.1 430.6C397.9 429.2 398.6 427.7 399.4 426.3C399.2 425.6 399 424.8 398.9 424.1C397.8 424.1 396.7 424 395.6 424C394.3 421.7 394.4 419.5 394.4 417.2C395.9 417 397.4 416.8 398.9 416.6C402.8 419.2 401.2 430.6 401.5 435.1ZM394.2 412.5C393.7 412.3 393.2 412.1 392.7 411.9C396.6 407.3 395.7 407.6 394.3 401.2C397 399.8 397.1 399.6 398.6 397.8C397.8 395.9 397.6 396.1 396.5 395C397.4 392.6 398.5 391.2 400.9 389.7C400.7 389 400.5 388.2 400.4 387.5C399 387 397.7 386.6 396.3 386.1C396 386 395.6 385.9 395.3 385.9C396.3 385.4 397.2 384.8 398.2 384.3C399.2 379.8 397.7 377.7 395.9 374.5C398 374 397.2 374.2 398.9 373.3C399.5 369.7 400 366.2 400.5 362.6C399.1 361.4 397.7 360.1 396.3 358.9C399.1 358.4 399 358.2 401.5 357.2C401.8 355.7 400 353.2 400.3 352.3C400.7 351.2 402.3 350.3 402.8 348.9C401.1 347.4 400.1 346.7 397.2 347C397.1 346.7 397.1 346.4 397 346.1C401.3 345.2 404.4 342.7 400.1 339.3C400.1 339.2 400 339 400 338.9C403.8 338.6 406.1 338.2 409.2 336.2C409.2 335.4 409.1 334.7 409.1 333.9C407.9 333.4 406.7 332.9 405.5 332.4C406.2 331.6 407 330.8 407.7 330C406.9 328.5 407.5 329.1 406.4 328.4C405.1 327.1 403.9 327.2 401.5 327.7C401.3 327.4 401.1 327.2 400.8 326.9C403.9 326.2 407 325.4 410.1 324.7C410.3 323.7 410.6 322.7 410.8 321.7C409.1 320.3 408.2 319.8 405.3 320.2C405.8 318.6 409.2 318.2 411.6 317.3C412.1 315 411.6 314.7 410.4 312.4C411.7 311.9 413 311.5 414.3 311C415.5 309.4 415.1 309.9 414.4 307.7C416.9 307 418.5 306.3 420.2 304.4C420.1 304.1 420.1 303.8 420 303.5C420 303.4 419.9 303.2 419.9 303.1C415.8 301.3 417.9 300.8 417.8 296.1C418.9 295.7 420.1 295.2 421.2 294.8C423.6 292.2 420.8 291 418.7 290.2C420 289.7 421.3 289.3 422.6 288.8C422.7 288 422.8 287.2 423 286.4C422.7 286 422.5 285.6 422.2 285.2C417.7 284.7 413.2 284.2 408.7 283.7C407.6 284.3 407.6 284.2 406.4 283.8C409.7 282 414.9 283.5 418.5 283.2C419.3 283.1 429 278.8 429.9 278.1C431 277 430.8 277 431.1 275.5C430.3 274.8 429.5 274 428.7 273.3C430.9 271.3 432.5 270.1 435.1 268.5C435.1 268 435.2 267.5 435.2 267.1C434.7 266.4 434.3 265.8 433.8 265.1C435.3 264.9 436.8 264.7 438.3 264.5C438.5 264.6 438.7 264.7 438.9 264.8C439.1 275 427.4 291.7 423.7 301.3C417.3 318.3 412 336.3 407.3 354C404.6 364.2 405.9 374.1 403.4 384.5C401.8 391 399.3 401.7 400.8 410.9C398.7 411.4 396.4 412 394.2 412.5ZM416.4 289.9C416.8 290.1 417.1 290.3 417.5 290.6C416.5 290.2 417.2 290.6 416.4 289.9ZM595.5 102C597.5 102.9 598.7 104.5 600.6 105.5C600.7 107.2 600.7 106.9 600.2 107.9C597.9 106.7 595.5 105.1 594.2 102.3C594.6 102.2 595 102.1 595.5 102ZM576.5 105.1C577.8 106.1 578.3 108.2 578.8 110.7C578.7 110.7 578.5 110.8 578.4 110.8C577.1 109.9 575.8 108.9 574.4 108C575.1 107 575.8 106.1 576.5 105.1ZM578.6 125.7C579.3 125.5 580.1 125.3 580.8 125.2C582.5 128.4 582 131.4 582.1 134.7C581.7 134.8 581.2 134.9 580.8 135C579.9 134 579 132.9 578.2 131.9C578.4 129.9 578.5 127.8 578.6 125.7ZM580.4 142.7C581.7 142.7 582.9 142.7 584.2 142.7C585.8 143.9 591.3 174.5 592.1 183.5C592.6 189.5 596.7 196.6 594.7 200.2C594.7 200.7 594.6 201.2 594.6 201.6C594.2 201.7 593.7 201.8 593.3 201.9C592.8 201.7 592.3 201.5 591.8 201.3C592.2 200.4 592.6 199.5 593 198.7C590.5 196 589.5 195.2 587.6 192C585.6 192.2 583.6 192.3 581.6 192.5C581.6 192.4 581.5 192.2 581.5 192.1C582.2 191.3 585.8 190.3 587.9 189.6C588.2 189 588.6 188.5 588.9 188C588.6 187.6 588.4 187.2 588.1 186.8C586.8 185.5 585.3 185.4 583.1 185.6C583.1 182.6 583.6 183 582.4 180.6C584.1 180 585.9 179.5 587.6 178.9C589.6 176.7 588 174.7 585.2 174.8C584.2 170.5 585.3 169.6 587.2 167.3C585.9 164.6 584.9 165.3 583.4 163.1C583.4 163.1 583.7 153.8 584.2 150.7C583 150.2 581.8 149.7 580.6 149.2C581.5 145.8 582 146.6 580.4 142.7ZM601.3 245.5C601.5 244.6 603 243.5 603.3 242.2C597.9 238.7 596.8 235.7 589 235.3C588.6 234.9 588.2 234.6 587.8 234.2C596.6 231.1 594.1 217.2 593.1 209.5C590.5 208.9 587.8 208.3 585.2 207.7C588.4 207.3 591.6 206.8 594.7 206.4C600.8 210.7 595.9 218 599.4 224C605.9 235.2 606.8 252.3 609.9 265.6C608.8 266 607.6 266.5 606.5 266.9C606.2 266.8 605.8 266.7 605.5 266.7C604.6 264.4 603.8 262.1 602.9 259.8C610.1 256.6 600 251.3 601.3 245.5ZM584.3 207.9C582.5 209.4 578.9 209.7 577.4 208.6C579.7 208.3 582 208.1 584.3 207.9ZM581.9 201.9C583.8 201.6 584.1 201.5 585.2 202C583.3 202.4 583.1 202.6 581.9 201.9ZM585.8 214.1C584.3 213.8 585.3 214.2 584.3 213.5C584.8 213.7 585.3 213.9 585.8 214.1ZM571.2 114.4C573.4 115.9 571.6 118.8 572.7 120.6C569.7 125.4 562.9 131.9 568 138.1C568 138.2 568.1 138.4 568.1 138.5C565.8 138.6 563.5 138.7 561.1 138.8C561 138.8 560.8 138.9 560.7 138.9C560.5 140.2 560.4 141.5 560.2 142.8C563.1 143.9 566.1 144.5 569.6 144.8C569.6 144.9 569.7 145.1 569.7 145.2C566.2 147.1 562.8 146.1 559.2 146.3C559.1 146.6 559 147 559 147.3C558.2 148.5 558.2 153.2 558.6 155.4C556.1 156.6 555.3 157 553.3 158.6C554.3 160.8 554.5 160.6 555.9 161.7C555.6 161.9 555.4 162.1 555.1 162.4C552.6 162.2 550.5 162.7 549 160.6C556.4 145.1 563.8 129.8 571.2 114.4ZM546.7 166.7C551.8 167 556.9 167.4 562 167.7C562 167.8 562.1 168 562.1 168.1C554.1 169.6 551.9 168.9 546.3 172.8C546.2 173.6 546.1 174.4 545.9 175.2C547.7 176.5 549.6 176.4 552 177C549.2 180.2 549.3 181.2 543.9 182.2C543.3 184.5 542.9 186.1 541 187.6C542.2 191.8 544.4 191.3 548.3 190.5C548.3 190.6 548.4 190.8 548.4 190.9C546.1 191.6 543.7 192.3 541.4 193C540.7 195.1 541.1 196.2 541.5 199.1C540.4 199.5 539.2 200 538.1 200.4C537.6 200.4 537.1 200.3 536.7 200.3C538 187.9 543.8 178 546.7 166.7ZM570.5 208.8C570.4 209.1 570.3 209.5 570.3 209.8C568.3 210 568.1 210.1 566.9 209.2C567.8 209 568.7 208.8 569.6 208.6C569.8 208.7 570.1 208.8 570.5 208.8ZM563.1 203.6C561.6 203.3 562.6 203.7 561.6 203C563 203.3 562.1 202.9 563.1 203.6ZM527.4 402.6C527.9 402.8 528.4 403 528.9 403.2C528.7 403.6 528.5 403.9 528.2 404.3C528.1 404.3 527.9 404.4 527.8 404.4C527.7 403.8 527.5 403.2 527.4 402.6ZM537.5 413.3C536.5 414.8 535.4 416.3 534.4 417.8C533.7 418 532.9 418.2 532.2 418.3C531.7 416.9 531.2 415.4 530.7 414C533 413.6 535.2 413.2 537.5 412.8C537.4 413 537.4 413.1 537.5 413.3ZM543.1 409.6C542.7 409.9 542.3 410.1 541.9 410.4C541.8 410.4 541.6 410.5 541.5 410.5C541.6 409.7 541.7 408.9 541.9 408.1C542.4 408.3 542.9 408.5 543.4 408.7C543.3 408.9 543.2 409.3 543.1 409.6ZM529.2 345.9C530.6 352 529.3 358.6 525.5 361.8C526.5 364.9 528.7 367 530 368.7C533.8 373.8 529 383.4 527.9 387.5C528.4 388.9 528.9 390.4 529.4 391.8C529.4 393.1 528.1 395.1 530.1 394.9C530.3 397.3 530.2 397.9 528.3 399.1C528.1 399.5 527.9 399.8 527.6 400.2C524.1 395 520 346.5 521.5 337.9C523.3 338.1 525 338.3 526.8 338.5C527.2 338.9 527.6 339.2 528 339.6C526.9 340 525.7 340.5 524.6 340.9C524.5 341.9 524.4 342.8 524.4 343.8C526 345.4 526.8 345.7 529.2 345.9ZM552.1 401.8C551.5 402.4 550.8 403 550.2 403.7C550.1 403.7 549.9 403.8 549.8 403.8C550 403.1 550.1 402.5 550.3 401.8C550.9 401.7 551.5 401.5 552.1 401.4C552 401.5 552 401.7 552.1 401.8ZM546.9 321.9C548.3 321.9 549.7 321.9 551.1 321.8C550.3 322.4 548.1 322.7 546.9 321.9ZM523.5 269.4C523.4 270.4 523.3 271.3 523.3 272.3C524.8 272.7 526.3 273.1 527.8 273.6C528.4 274.9 529 276.1 529.6 277.4C529.6 277.5 529.7 277.7 529.7 277.8C527.8 278.6 524.3 278.6 523.2 279.8C522.7 280.4 522.2 281 521.7 281.6C521.7 281.7 521.8 281.9 521.8 282C523.8 283.5 524.4 284.5 527.9 283.8C527.4 284.9 526.8 285.9 526.3 287C527.7 290.6 528.5 291.8 529.1 294.8C528.6 297 527.6 297.9 526 299.3C526.6 301 527.1 302.8 527.7 304.5C525.8 305.1 523.9 305.7 522 306.3C521.7 306.5 521.5 306.7 521.2 307C521.6 308.8 522.1 310.5 522.5 312.3C525.7 312.5 528.8 312.7 532 312.8C532.2 313.1 532.4 313.3 532.7 313.6C526.6 318.5 521.2 315.3 526.4 322.6C525.7 323.7 525.8 324 526.3 325.9C524.8 326.9 523.3 327.9 521.8 328.8C522.6 331.2 522.4 331 524.3 331.5C523.8 332.5 523.4 332.6 522.4 333.4C522.1 333.3 521.7 333.2 521.4 333.2C519.8 315 517.5 294.7 519.6 275C520.9 267.2 522.1 259.4 523.4 251.6C526.6 252.5 528.8 254 533.2 253.5C533.6 256.2 533.5 259.5 532.2 261.2C531.4 262.2 531.2 262.3 529.3 262.8C529.6 264 529.9 265.2 530.2 266.3C533.1 266.7 536 267.1 538.9 267.5C533.9 268.1 528.7 268.7 523.5 269.4ZM532.1 234.5C532.1 237.1 531.2 237.9 530.6 240C531.2 240.5 531.8 241 532.4 241.5C531.5 243.2 529.6 245.1 532.2 246.7C531.5 248.4 527.9 249 524.4 249.5C526 234 531.4 219.3 535.3 205.1C538.9 205.8 542.5 206.5 546.1 207.2C539.4 209.4 541.2 212.6 534.2 214.3C533.9 214.9 533.5 215.4 533.2 215.9C534.5 218.5 536 219.1 536.7 220.7C537 221.1 537.2 221.5 537.5 221.9C533.3 222.7 533.9 222.9 531.7 225.2C533.3 228 535.9 228.2 538.6 228.7C537.7 231.2 533.9 230.1 531 230.1C530.9 230.1 530.7 230.2 530.6 230.2C529.4 232.7 529.2 233.2 532.1 234.5ZM542.2 241.4C540.7 242.5 540.5 242.6 539.3 241.2C540.2 241.3 541.2 241.4 542.2 241.4ZM600.3 389.8C599.4 390 598.5 390.2 597.6 390.4C597.3 390 597.1 389.6 596.8 389.2C597.9 389.1 598.9 389 600 388.9C600.1 389.2 600.2 389.5 600.3 389.8ZM634.7 388.5C634 388.7 633.2 388.9 632.5 389C627.8 384.1 629.5 376.9 620.1 376.5C620.1 376.4 620 376.2 620 376.1C621.8 374.7 623.7 373.5 626.4 373.6C628.1 370.8 624.8 369.5 626.7 367C626.9 366.5 627.1 366 627.3 365.5C625.6 364.6 623.4 364.1 621.6 363.1C622.5 362.1 623.3 361.1 624.2 360.1C624.1 359.8 624.1 359.5 624 359.2C622.4 357.9 621.5 357.4 618.9 357.6C618.7 356.7 618.5 355.8 618.3 354.9C621 353.3 623.2 353 623.1 349.5C620.7 347.9 617.9 348.2 613.7 349.4C613.4 349 613.2 348.6 612.9 348.2C612.7 345.4 614.9 342.1 616.1 339.9C619.2 339.2 622.3 338.4 625.4 337.7C629.3 355.3 631.4 373.2 634.7 388.5ZM624.2 332.9C624.3 333.2 624.3 333.5 624.4 333.8C622.9 333.9 621.3 333.9 619.8 334C618 332.5 617.2 332.6 616.3 329.2C617.9 327.6 619.6 325.9 621.2 324.3C623.1 325 624.8 330.4 624.2 332.9ZM621.9 319.4C621.6 319.6 621.4 319.8 621.1 320.1C618.1 317.2 616.3 315 610.4 316.6C610.1 315.3 609.8 313.9 609.4 312.6C598.8 309.8 569.4 323.9 554.3 321.6C554 321.7 553.7 321.7 553.4 321.8C533.8 369.2 567 326.9 573.8 322.8C585.1 316.1 599.3 312.4 613.5 308.3C613.7 307.9 613.9 307.6 614.2 307.2C613.9 306.8 613.7 306.4 613.4 306C611.9 304.5 610.5 304.7 607.7 305.5C606.6 303.8 606.7 304.3 608.4 302.5C607.5 300 607.1 300.2 605.7 298.9C607.9 296.5 608.4 294.9 612.9 293.9C613.1 293.4 613.3 292.9 613.5 292.4C611.8 291 610.2 290.2 607.8 290C607.4 289.6 607 289.3 606.6 288.9C608.3 286.9 610 285 611.7 283C611.2 281.1 610.8 279.2 610.3 277.2C610.8 277.2 611.3 277.3 611.7 277.3C614 278.3 621 313.6 621.9 319.4ZM757.5 368.5C757.5 369 757.4 369.5 757.4 369.9C753.3 371.4 746.7 367.6 742.6 366.9C732 365.2 720.3 366.1 710.3 365.3C705.3 364.9 699.8 367.4 695.7 368.8C689.1 371.1 683.6 370 675.3 373.7C663.1 379.2 650.9 386.4 643 395.5C639.6 393.3 640.3 386 639.4 382.3C636.8 366.1 634.1 349.8 631.4 333.6C629.7 326.7 628.1 319.7 626.4 312.8C624.6 289.9 614.1 262.2 611.5 242.7C610.6 235.7 609.7 228.7 608.8 221.8C607.7 219.9 606.6 217.9 605.5 216C600.8 205.1 599.2 188.7 598.2 176C596.1 148.8 584.5 127.5 584.9 105.1C593.8 108.2 612.8 128.9 621.3 135.8C655.3 163.2 692.4 200.3 713.4 242.2C728.4 272.1 736.5 307.9 751.9 338C755 344 752.1 347.1 752.1 350.6C752.2 351.5 756.6 366.4 757.5 368.5ZM622.6 119.4C624.8 123.3 625.2 126 629.1 129.1C628.9 129.8 628.8 130.4 628.6 131.1C628.3 131.3 628.1 131.5 627.8 131.8C622.2 126.6 607.6 118.5 604.6 111.6C607.5 111.8 607.5 113.2 611 112.9C611.6 116.2 614.2 117.7 616.2 121C618.5 120.4 620.6 119.9 622.6 119.4ZM611.2 99.1999C611.5 98.9999 611.7 98.7999 612 98.4999C613 98.5999 613.9 98.6999 614.9 98.6999C615.3 99.0999 615.7 99.3999 616.1 99.7999C614.9 100.1 613.7 100.4 612.6 100.7C612.1 100.2 611.6 99.6999 611.2 99.1999ZM650.2 142.3C649.1 144.1 648.8 144.4 648.5 146.9C649.2 147.1 649.8 147.2 650.5 147.4C655.9 145.8 661.3 144.2 666.7 142.6C666.9 142.9 667.1 143.1 667.4 143.4C665.6 144.7 661.3 146.5 659.2 148.2C659.2 148.8 659.2 149.5 659.2 150.1C661 151.5 662.4 151.7 665.5 150.9C665.6 152.6 665.7 154.3 665.8 156C667.2 156 668.6 156 670 155.9C671 157.5 671.3 158.6 672.7 159.5C672.2 162.2 668.5 163.6 671.2 165C671.5 165.4 671.7 165.8 672 166.2C678.7 164.6 683.3 161 690.4 159C690.4 159.1 690.5 159.3 690.5 159.4C687.9 162.9 679.3 166.2 675.6 169.5C675.7 170.1 675.9 170.7 676 171.3C677.7 171.7 679.3 172.1 681 172.5C680.4 173.3 679.8 174 679.2 174.8C680.2 177.8 680.8 177.6 683.3 178C681.7 179.3 680.2 180.6 678.6 181.9C669.1 167.2 656.3 155.1 644.1 143.7C640.3 140.1 633.1 137.4 631.1 132.7C631.7 132.7 632.4 132.7 633 132.7C636.1 133.6 637.6 136 639.6 138.6C641.6 138 643.7 137.3 645.7 136.7C645.8 136.7 646 136.6 646.1 136.6C645.8 138.1 646.1 137.7 645.2 138.7C646.6 141.4 647.8 141.4 650.2 142.3ZM643.6 113C644.1 111.8 644.6 110.6 645.1 109.4C650.8 109.8 654.9 114.2 660.8 114.1C660.9 114.7 661.1 115.3 661.2 115.9C660.9 116.1 660.7 116.3 660.4 116.6C659.9 116.4 659.4 116.2 658.9 116C657.5 116.5 656 117 654.6 117.5C653.9 112 649.4 114 645.3 116C644.7 114.9 644.1 113.9 643.6 113ZM735.1 152.4C732 157.9 725.8 153.6 724 151.3C719.9 152.6 715.9 153.9 711.8 155.2C711.8 155.1 711.7 154.9 711.7 154.8C715.9 152.6 720 150.3 724.2 148.1C725 143.8 714.3 139.5 710.6 142.4C710.5 142.4 710.3 142.5 710.2 142.5C710.2 141.1 710.2 139.7 710.1 138.3C705.4 136.4 702.5 138.9 695.7 140.8C695.5 140.5 695.3 140.3 695 140C696.8 138.4 700.2 137.1 702.8 137.2C703.4 136.3 703.9 135.4 704.5 134.4C701.6 133.2 701.3 132.9 697.4 134.2C697 132 697.1 132.5 696.1 130.8C694.1 130.4 691.3 130.9 688.3 131.7C688.5 130.6 688.7 129.4 688.9 128.3C688.5 128.1 688.2 127.9 687.8 127.6C686.3 126.2 684.5 126.8 681.7 127.7C681.3 126.6 680.8 125.4 680.4 124.3C677.3 123.1 675.3 123.2 671 124.2C670.5 122.8 670.8 122.9 670.7 121C666.4 119.6 664.5 121.2 663.3 115.7C669.3 115.9 675.6 120.5 680.8 122.3C693.9 126.9 709.4 132.2 720.7 139.9C725.5 143.6 730.3 147.3 735.1 151C735.2 151.5 735.2 151.9 735.1 152.4ZM754.6 220C755.3 220.2 755.9 220.3 756.6 220.5C756.6 220.6 756.7 220.8 756.7 220.9C755 221.6 753.3 222.3 751.6 223.1C751.1 222.9 750.6 222.7 750.1 222.5C751.6 221.6 753.1 220.8 754.6 220ZM748.6 224.2C748 224.3 747.4 224.5 746.8 224.6C746.7 224.3 746.7 224 746.6 223.7C746.9 223.5 747.1 223.3 747.4 223C747.8 223.5 748.2 223.9 748.6 224.2ZM745.1 225.1C743.9 225.7 744.4 225.8 743.2 225.1C743.8 225.1 744.5 225.1 745.1 225.1ZM748.9 256.5C748.8 256.8 748.7 257.2 748.7 257.5C748.5 257.2 748.3 257 748 256.7C748.3 256.7 748.6 256.6 748.9 256.5ZM739.4 226.9C740.9 227.2 739.9 226.8 740.9 227.5C740.5 227.3 739.9 227.1 739.4 226.9ZM733.3 197.4C733.9 197.4 734.6 197.4 735.2 197.4C733.9 198.1 734.5 198.1 733.3 197.4ZM744.2 258.6C744.8 258.6 745.5 258.6 746.1 258.6C745.4 258.9 744.7 259.3 744 259.6C744.1 259.3 744.1 258.9 744.2 258.6ZM735.5 230.2C734.9 230.3 734.3 230.5 733.7 230.6C733.6 230.3 733.6 230 733.5 229.7C734.2 229.2 734.8 228.8 735.5 228.3C736.4 228.1 737.3 227.9 738.2 227.7C738.2 227.8 738.3 228 738.3 228.1C737.4 228.8 736.4 229.5 735.5 230.2ZM717.3 236.4C717.8 236.4 718.3 236.5 718.7 236.5C721.3 240.1 720.3 242.3 725.7 242.3C726.1 242.7 726.5 243 726.9 243.4C725.1 244.3 723.3 245.2 721.5 246.1C721.4 245.8 721.4 245.5 721.3 245.2C719.1 243.3 717.6 238.3 717.3 236.4ZM692.5 185.7C693.8 185.9 695.1 186 696.4 186.2C695.1 187.3 693.8 188.4 692.5 189.5C693.3 192.1 693.7 192.8 693.3 194.9C695.3 196 696.9 196.1 698 198.9C700.2 199.8 701.1 200.1 704.6 199.2C704.8 199.5 705 199.7 705.3 200C704.6 201.2 704.9 201 703.4 201.9C703.2 202.4 703 202.9 702.8 203.4C703.3 205.3 703.3 205.6 704.4 206.3C706 206.7 708.7 205.4 710.6 206.7C711.6 207 712.2 207.6 713.1 209.4C710.5 210.5 710.3 211.6 708.9 213.2C709.4 214.2 710 215.1 710.5 216.1C711.4 216 712.3 216 713.3 215.9C711.6 218.1 710.5 218 709.8 221C711.4 223.1 712.1 225.1 715.1 225.4C716.7 227.9 718.5 226.8 721.5 226.7C720.2 229 718.9 230.7 716.8 232.5C712.2 232 711.1 225.1 708.5 221.4C699.5 209.3 690.5 197.3 681.5 185.2C685.4 183.3 689.4 181.4 693.3 179.6C694 179.8 694.6 179.9 695.3 180.1C693.8 181.5 692.4 182.1 691.5 183.8C691.8 184.2 692.1 185 692.5 185.7ZM697.2 178C697.5 177.9 697.8 177.9 698.1 177.8C698 178.1 697.9 178.5 697.9 178.8C697.6 178.5 697.4 178.2 697.2 178ZM694.4 141.1C694.1 141.3 693.9 141.5 693.6 141.8C693 141.9 692.4 142.1 691.8 142.2C691.7 141.8 691.6 141.3 691.5 140.9C692.2 140.7 693 140.5 693.7 140.4C693.9 140.5 694.1 140.6 694.2 140.7C694.4 140.8 694.4 140.9 694.4 141.1ZM698.7 155.1C698.6 155.4 698.5 155.8 698.5 156.1C698.3 155.8 698.1 155.6 697.8 155.3C698.1 155.2 698.4 155.1 698.7 155.1ZM726.7 258.1C728.8 257.1 730.9 256.1 733 255.2C734 255 735.1 254.7 736.1 254.5C736.1 254.6 736.2 254.8 736.2 254.9C734.6 255.9 732.9 256.9 731.3 258C731.1 259.1 730.9 260.3 730.7 261.4C735.3 262.9 739.1 259.8 743.1 260.3C741.4 261.5 739.6 262.7 737.9 263.9C737.3 264.8 737.3 265.6 737.2 266.9C737.8 267.2 738.3 267.6 738.8 267.9C742.4 267.7 744.2 266.6 747.4 266.8C747.8 267.2 748.2 267.5 748.6 267.9C748.5 268.2 748.4 268.6 748.4 268.9C745 271 741.6 273 738.2 275.1C738.6 276 738.9 276.8 739.3 277.7C741.4 277.8 743.4 278 745.5 278.1C743.6 279.3 741.7 280.6 739.8 281.8C740.2 282.7 740.5 283.5 740.9 284.4C742.2 285.6 742.7 285.1 744.4 285.4C744.8 285.5 745.6 288.1 746.8 289.5C745.8 290.4 744.7 291.2 743.7 292.1C743.9 293 744.1 293.9 744.3 294.8C746.4 295.5 747.4 295.9 750.5 295.2C749.8 297.7 744.5 300.2 743.3 300.2C737.8 286.1 732.3 272.1 726.7 258.1ZM753.6 293.9C753.5 294.2 753.4 294.6 753.4 294.9C753.2 294.6 753 294.4 752.7 294.1C753 294 753.3 293.9 753.6 293.9ZM747.1 303.9C749.5 303.3 750.6 302.8 751.8 301.8C753.1 302.8 754.4 305 755.6 306C754.2 307.5 753.5 307.9 752.8 310C753.9 310.8 755.1 311.6 756.2 312.5C755.2 313.4 754.1 314.3 753.1 315.1C753.8 316 754.5 317 755.2 317.9C759.3 317 761.5 316.4 764.8 315.1C765 315.4 765.2 315.6 765.5 315.9C763.5 319.2 757 319.8 755 323.1C750.7 322.6 746.8 307.9 744.5 302.6C745.3 303 746.2 303.4 747.1 303.9ZM761.1 352.6C762.7 351.6 764.4 350.6 766 349.5C767.1 349.4 768.1 349.3 769.2 349.2C769.4 349.5 769.6 349.7 769.9 350C767.2 350.8 765.4 351.9 763.7 353.4C762.8 353.1 762 352.8 761.1 352.6ZM773.9 362.6C772.7 363.4 771.5 364.1 770.2 364.9C770.1 364.9 769.9 365 769.8 365C770 364 770.3 363 770.5 362C771.4 361.8 772.3 361.6 773.2 361.4C773.4 361.7 773.6 361.9 773.9 362.2C773.8 362.3 773.8 362.5 773.9 362.6ZM773.9 360.8C774.5 360.8 775.2 360.8 775.8 360.8C774.5 361.4 775.1 361.4 773.9 360.8ZM764 333.1C764.7 334 765.4 335 766.1 335.9C764.1 337.2 762 338.4 760 339.7C759.9 339.7 759.7 339.8 759.6 339.8C757.5 336.3 755.8 331.1 754.5 326.5C759.6 326.5 761.1 327.6 764.6 329.7C769.2 328 771.7 326.6 777.1 325.3C775.5 328 767.4 330.8 764 333.1ZM774.9 320.2C774.6 320.1 774.2 320 773.9 320C774 319.7 774.1 319.3 774.1 319C774.6 319 775.1 319.1 775.5 319.1C775.4 319.4 775.2 319.8 774.9 320.2ZM772.3 305.3C772.7 305.2 773.2 305.1 773.6 305C772.7 305.8 773.3 306.2 772.3 305.3ZM777.7 304.5C777.3 304.3 777 304.1 776.6 303.8C776.7 303.6 776.8 303.4 776.9 303.3C777.2 303.2 777.5 303.2 777.8 303.1C778 303.4 778.2 303.6 778.5 303.9C778.3 304 778 304.3 777.7 304.5ZM752.6 166.5C750.3 167.5 748.1 168.5 745.8 169.5C745.6 169.2 745.4 169 745.1 168.7C746 167.7 746.8 166.7 747.7 165.7C747.6 165.3 747.5 164.8 747.4 164.4C745.7 163.6 746.1 163.2 743.4 163.5C743.2 163.2 743 163 742.7 162.7C743.2 162.1 743.7 161.5 744.2 160.9C744.7 160.9 745.2 161 745.6 161C746.8 162.1 748 163.2 749.2 164.4C750.3 164.9 751.3 165.5 752.4 166C752.5 166.2 752.6 166.4 752.6 166.5ZM758.7 172.6C758.9 172.9 759.1 173.1 759.4 173.4C759.3 173.7 759.2 174.1 759.2 174.4C758.4 174.4 757.7 174.5 756.9 174.5C756 174.6 755.1 174.6 754.1 174.7C754.2 174.4 754.3 174 754.3 173.7C755.8 173.3 757.3 172.9 758.7 172.6ZM759.2 219.4C758.6 219.7 758.1 220 757.5 220.3C757.4 219.9 757.3 219.4 757.2 219C757.9 219 758.5 219.2 759.2 219.4ZM783.1 316.8C782.9 316.5 782.7 316.3 782.4 316C782.7 315.9 783 315.9 783.3 315.8C783.2 316.1 783.1 316.5 783.1 316.8ZM749.5 177.1C749.2 176.7 749 176.3 748.7 175.9C749.7 175.7 750.8 175.4 751.8 175.2C751.8 175.3 751.9 175.5 751.9 175.6C751.8 175.9 751.7 176.3 751.7 176.6C751 176.8 750.3 176.9 749.5 177.1ZM778 264.6C777.4 264.7 776.8 264.9 776.2 265C776.2 264.9 776.1 264.7 776.1 264.6C777 263.9 778 263.2 778.9 262.5C779.9 262.3 781 262 782 261.8C781.4 263.4 779.8 263.4 778 264.6ZM818 347.3C814.1 348.1 810.2 348.8 806.4 349.6C806.4 349.5 806.3 349.3 806.3 349.2C807.9 347.4 811.3 347.8 813.1 346.2C813.8 346 814.6 345.8 815.3 345.7C815.6 345.8 816 345.9 816.3 345.9C816.9 346.2 817.4 346.6 817.9 346.9C818 347 818 347.2 818 347.3ZM783.8 261.3C783.9 261 784 260.6 784 260.3C785.7 260.2 785.5 259.9 786.9 260.5C786.9 260.6 787 260.8 787 260.9C785.9 261.1 784.9 261.2 783.8 261.3ZM790 259.8C789.6 259.6 789.3 259.4 788.9 259.1C789 258.9 789.1 258.7 789.2 258.6C789.7 258.8 790.2 259 790.7 259.2C790.5 259.4 790.3 259.6 790 259.8ZM804.1 314.6C803.9 315.3 803.8 315.9 803.6 316.6C803.5 316.6 803.3 316.7 803.2 316.7C803 315.6 803 316.2 803.2 314.8C803.5 314.7 803.8 314.6 804.1 314.6ZM793.8 258C793.9 257.7 794 257.3 794 257C794.3 257.8 794.6 257.3 793.8 258ZM812.7 313.4C812.4 313.6 812.2 313.8 811.9 314.1C811 314.2 810.1 314.2 809.1 314.3C809.2 314 809.3 313.6 809.3 313.3C810 313.1 810.8 312.9 811.5 312.8C811.8 312.9 812.2 313 812.5 313C812.7 313.1 812.7 313.3 812.7 313.4ZM792.4 236.7C792.5 236.4 792.6 236 792.6 235.7C793.7 235.6 794.7 235.5 795.8 235.4C795.9 235.7 795.9 236 796 236.3C794.9 236.4 793.6 236.6 792.4 236.7ZM819.3 311.4C817.2 311.9 815.2 312.4 813.1 312.9C813 312.6 813 312.3 812.9 312C815 311.7 817.1 311.3 819.2 311C819.2 311.1 819.2 311.2 819.3 311.4ZM799.3 234.1C799.9 234.1 800.6 234.1 801.2 234.1C800 234.7 800.5 234.8 799.3 234.1ZM808.1 263C808.9 263 809.6 262.9 810.4 262.9C809.2 263.6 809.3 263.7 808.1 263ZM803.7 233C804.7 232.5 805.6 231.9 806.6 231.4C807.4 227.7 804.9 226.2 800.1 227.8C800.2 225.6 801 224.6 799.8 222.7C798.8 221.7 799.5 222.1 798.2 221.7C793.8 220.4 771.9 229.2 765.3 231C765.3 230.9 765.2 230.7 765.2 230.6C771 223.4 787.6 223.7 795.5 220C795.8 219.9 796.1 219.9 796.4 219.8C796.6 219.3 796.8 218.8 797 218.3C795.1 216.3 794 216 790.1 217.1C789.7 214 790.7 211.9 792.3 208.6C791.6 208.3 790.9 208 790.2 207.7C789 207 788.5 207.2 786.4 207.7C786 206.8 785.7 206 785.3 205.1C786.7 204.6 788.2 204.1 789.6 203.6C795.5 210 802.7 216.8 808.4 223.5C813.8 229.7 818 241 824.8 244.9C824.9 245.5 825.1 246.1 825.2 246.7C822.5 247 819.7 247.4 817 247.7C816.8 247.4 816.6 247.2 816.3 246.9C816.8 246.2 817.2 245.4 817.7 244.7C816.6 242.9 815.6 241.1 814.5 239.4C812.8 239 810.7 239.3 808.1 240C806.5 237.2 807.3 235.8 803.7 233ZM779.2 195.3C777.7 193.9 777.4 194.1 777 192.1C780.2 193.1 782.2 195.3 784.5 197.8C784.5 197.9 784.6 198.1 784.6 198.2C778.9 199.9 773.2 201.6 767.5 203.2C767.3 203.1 767.1 203 766.9 202.9C766.9 202.8 766.8 202.6 766.8 202.5C771.9 199.9 777.2 199.7 779.2 195.3ZM762 176.5C762.4 176.4 762.9 176.3 763.3 176.2C763.6 176.9 764 177.6 764.3 178.3C764.2 178.3 764 178.4 763.9 178.4C762.7 177.7 762.9 178 762 176.5ZM767.6 182.2C767 182.3 766.4 182.5 765.8 182.6C765.1 180.8 765 180.6 765.4 178.9C766.8 179.4 765.6 179.1 766.8 179C767.1 180.1 767.4 181.1 767.6 182.2ZM771.8 185.8C772 185.9 772.2 186 772.3 186.1C772.6 186.2 773 186.3 773.3 186.3C773 186.8 772.6 187.4 772.3 187.9C771.3 188.1 770.2 188.4 769.2 188.6C769.7 187.1 770.7 187 771.8 185.8ZM827.8 317.8C828.6 317.8 829.3 317.7 830.1 317.7C828.9 318.5 829 318.5 827.8 317.8ZM822.9 299.3C823 299.1 823.1 298.9 823.2 298.8C823.6 298.7 824.1 298.6 824.5 298.5C824.5 298.6 824.6 298.8 824.6 298.9C824.4 299.3 824.2 299.6 823.9 300C823.7 299.7 823.3 299.5 822.9 299.3ZM814.6 262.8C814.4 262.5 814.2 262.3 813.9 262C813.9 261.9 813.8 261.7 813.8 261.6C817.9 260 822.1 258.4 826.2 256.7C826.7 254 826 252 826.8 249.5C831.6 251.1 838.4 262.9 840.4 266.9C839.8 267.7 839.2 268.4 838.6 269.2C836.9 269.9 835.2 270.6 833.5 271.4C832.2 270.2 831.9 270.3 831.2 267.7C828.9 266.9 826.4 266.7 823.1 267.3C824.5 266 825.9 264.7 827.3 263.5C827.2 263.1 827.1 262.6 827 262.2C823.6 260.8 818.3 260.7 814.6 262.8ZM849.1 279.4C849 280.2 848.9 281 848.7 281.8C847.5 282.1 846.3 282.4 845.1 282.7C843 278.9 839.2 275.8 835 275.7C834.8 275.4 834.6 275.2 834.3 274.9C836.1 273.5 839.1 273.4 840.6 272C845.3 271.8 846.6 276.6 849.1 279.4ZM819.9 267.2C820.3 267.4 820.6 267.6 821 267.9C820 267.4 820.7 267.9 819.9 267.2ZM828.7 297.9C835.7 293.1 845.7 295.5 848.8 287.9C850.1 287.6 851.5 287.3 852.8 286.9C853.1 287 853.5 287.1 853.8 287.1C854.7 289.1 855.9 291.8 857.5 292.8C857.3 293.5 857.2 294.1 857 294.8C848.4 292.7 837.8 297.2 828.8 298.3C828.8 298.2 828.7 298 828.7 297.9ZM840.7 316.6C840.4 316.5 840 316.4 839.7 316.4C839.7 316.3 839.6 316.1 839.6 316C845 310 853.1 316.2 858.9 306.7C860.7 306.6 862.6 306.4 864.4 306.3C866.2 307.3 867 309.6 868.5 311.9C868.3 312.6 868.2 313.2 868 313.9C859 314.7 849.8 315.6 840.7 316.6ZM849.8 323.3C849.1 323.5 848.3 323.7 847.6 323.8C847.5 323.2 847.3 322.6 847.2 322C847.6 321.9 848.1 321.8 848.5 321.7C848.9 322.3 849.4 322.8 849.8 323.3ZM861.1 300C857.6 301.5 855.8 300.7 852 301.2C851.8 300.9 851.6 300.7 851.3 300.4C854.6 298.2 856.3 299.6 857.9 296.5C859.3 297 859.4 297.6 860.7 298.2C860.8 298.8 860.9 299.4 861.1 300ZM867.5 324.7C868.6 323.7 868.4 323.8 868.8 322.5C868.6 322.2 868.4 322 868.1 321.7C864.5 320.6 856.1 322.2 850.6 323.1C850.4 322.8 850.2 322.6 849.9 322.3C850.3 322 850.7 321.8 851.1 321.5C857.7 320.5 864.4 319.6 871 318.6C873.7 322.3 875.8 326.8 877.3 333C876.2 333.4 875 333.9 873.9 334.3C869.1 326.1 853.1 329.3 843.3 331.8C845.1 325.3 861.7 328.5 867.5 324.7ZM850.5 345.6C848.8 345.4 848 345.3 846.9 344.1C848 344.1 849.1 344.2 850.2 344.2C850.3 344.8 850.4 345.2 850.5 345.6ZM861.7 345.3C859.3 345.6 856.8 345.8 854.4 346.1C854.1 345.7 853.9 345.3 853.6 344.9C853.9 344.7 854.1 344.5 854.4 344.2C857.5 343.9 858.4 343.7 860.9 344C861.1 344.3 861.3 344.5 861.6 344.8C861.6 345 861.6 345.2 861.7 345.3ZM881.6 352.2C877.3 352 873.9 348.7 869.4 348.1C869.2 347.8 869 347.6 868.7 347.3C871.4 345.3 874.1 345.1 875.5 342.4C875.4 341.2 875.2 340 875.1 338.7C876.3 338.4 877.5 338.1 878.7 337.8C881.7 341.8 880.6 349 881.6 352.2ZM949.8 325.6C948.7 330.7 937.5 329.8 931.3 330.5C922 332.6 912.6 334.7 903.3 336.8C898.6 340 893.9 343.1 889.2 346.3C889.1 346.3 888.9 346.4 888.8 346.4C887.3 341.4 885.8 336.5 884.3 331.5C878.6 320.1 872.3 304.4 864.6 292.6C832.7 243.7 799.5 203.1 760.8 167C748.8 155.8 736.4 140.6 721.8 133.7C694.5 120.6 667.1 109.8 637 101C624.5 97.2999 612.3 89.6999 598.6 87.6999C598.5 87.0999 598.3 86.4999 598.2 85.8999C614.3 86.3999 628.5 85.0999 644.9 86.8999C659 88.4999 673.7 94.5999 688 96.2999C705.9 98.2999 722.9 100.9 738.8 106.6C750 110.5 761.3 114.3 772.5 118.2C778.1 123.6 794.9 134.9 803.8 133.2C807.9 138.3 811.9 142 817.6 143.9C819.6 143.9 821.7 143.9 823.7 143.8C826.5 145.5 830.7 146.6 833.3 148.5C835.2 150.5 837.1 152.6 839 154.6C844.9 157.9 851.7 158.3 857.4 162.8C861.7 166.2 864.3 172 868.8 175.1C870.2 176 871.7 174.9 872.9 176.5C873.7 178.5 874.5 180.5 875.3 182.5C878.2 183.4 881 184.3 883.9 185.1C886.9 187.9 888.9 192.8 892.3 196.7C894.6 199.3 899.3 201.8 901.6 204.3C905.9 208.8 907.9 216.5 910.8 221.3C911.9 223 914.3 222.4 915.5 223.4C918.5 226.1 915.3 227.8 916.8 230.6C919.1 235.2 923.7 240.3 926.7 244.6C927.2 247.1 927.6 249.7 928.1 252.2C930.5 254.4 932.9 256.7 935.3 258.9C938.9 264.8 936.1 268.6 938.2 272.8C944 284.6 944.6 292.2 949.5 306.2C950.8 310.3 949.7 325.5 949.8 325.6Z" fill="#DDDDDD"/>
<path d="M694.2 651.9C700.5 666.6 707.5 674.2 722.3 675.2C742.9 676.5 756.7 659.6 760 646.5C761.5 640.2 762.9 625.9 754.6 623.9C751.9 623.4 748.6 625.2 746.7 626.3C744.4 633.4 748.3 648.6 742.7 654.5C739.2 658.1 730.9 661.4 726.9 661.1C723.1 660.8 718.9 662 716.3 659.9L689.4 632C691.3 633.2 692.7 648.4 694.2 651.9Z" fill="#DDDDDD"/>
<path d="M778.1 795.2V759.8H785.4C785.4 760.4 785.4 768.5 785.3 775.8H785.5C786.2 774.5 787.2 773 787.8 772.1L797.5 759.7H806.1L793.6 775C796.6 780 802 788.5 806.1 795.1H797.5C795.8 792.1 790.7 783.7 788.5 779.7C787.5 780.9 786.3 782 785.3 783.3C785.4 788.7 785.4 794.6 785.4 795.1H778.1V795.2Z" fill="#DDDDDD"/>
<path d="M829.9 795.2H824.1L823.6 794.7L823 792.7L822.8 792.6C820.6 794.6 818.1 795.8 815 795.8C809.5 795.8 808.5 791 808.5 788.2C808.5 780.2 815.3 779.8 822.5 779.4V777.8C822.5 775.5 821 775 819.2 775C816 775 813 776 811.3 776.7L809.7 772.6V772C814.4 770.3 818.5 769.9 821.3 769.9C826.4 769.9 829.8 772 829.8 777.6V789.3C829.8 791.3 829.9 794.2 829.9 795.2ZM822.6 783.4C817.7 783.5 815.6 783.5 815.6 787.4C815.6 789.2 816.1 790.9 818 790.9C819.2 790.9 821 790.2 822.5 788.6C822.5 788.3 822.6 783.7 822.6 783.4Z" fill="#DDDDDD"/>
<path d="M847.7 795.2H843.4C836.9 795.2 836.5 791.5 836.5 787.9C836.5 787.4 836.5 780.7 836.6 775.8C835 775.9 834 775.9 833.4 775.9V770.7C833.9 770.7 834.9 770.7 836.5 770.8C836.4 768 836.4 764.3 836.4 763.8L836.9 763.3H843.7C843.7 763.8 843.7 766.9 843.6 770.8C845.4 770.7 847.8 770.7 848.4 770.7L848.3 775.9C847.8 775.9 845.5 775.9 843.6 775.8C843.7 780.5 843.7 786.6 843.7 787C843.7 789.6 843.7 790.1 846 790.1H848L848.1 794.7L847.7 795.2Z" fill="#DDDDDD"/>
<path d="M874.1 795.2H866.8C866.8 794.7 867 779.4 867 778.9C867 776.3 866.4 775.3 864.6 775.3C863.3 775.3 861.4 776.1 860 777.1L860.1 795.2H852.8V765.1C852.8 763 852.8 759.9 852.6 758.8L859.6 758.6L860.1 759.1V765.1C860.1 765.6 860 772.3 860 772.9C862.3 771.2 865.4 770 868.1 770C871.6 770 874.2 772.1 874.2 777.3C874.3 777.8 874.1 794.7 874.1 795.2Z" fill="#DDDDDD"/>
<path d="M890.7 795.9C881.4 795.9 878.7 788.7 878.7 782.8C878.7 775.6 882.1 769.9 890.7 769.9C899.1 769.9 902.7 775.5 902.7 782.8C902.7 788.6 899.8 795.9 890.7 795.9ZM890.7 791.4C893.7 791.4 895 788.3 895 782.9C895 778.8 894.3 775 890.7 775C887 775 886.4 778.8 886.4 782.9C886.4 788.3 887.7 791.4 890.7 791.4Z" fill="#DDDDDD"/>
<path d="M917.7 759.1V789.2C917.7 791.2 917.8 794.1 918 795.2H907.4C907.3 794.2 907.1 791.2 907.1 789.2V764.7C907.1 762.7 907 759.8 906.9 758.8L917 758.6L917.7 759.1Z" fill="#DDDDDD"/>
<path d="M931.5 795.2H920.6V776.5C920.6 775 920.4 771.6 920.4 770.5L930.7 770.4L931.5 770.9V795.2ZM931.5 766.5H920.6V759.8L921.4 759.3H931.5V766.5Z" fill="#DDDDDD"/>
<path d="M932.1 792.2L934.3 788.3C936 789.8 938.3 791.1 940.6 791.1C942.3 791.1 944.1 790.4 944.1 788.4C944.1 786.2 941.6 785.9 938.7 784.6C935.5 783.2 932.8 781.5 932.8 777.4C932.8 772.1 937.1 769.8 942.4 769.8C945.3 769.8 948.4 770.5 950.6 771.9V772.5L948.5 776.6C947.1 775.5 945.1 774.8 942.9 774.8C941 774.8 939.8 775.6 939.8 777.1C939.8 779.1 942.1 779.5 944.9 780.6C948.8 782.1 951.2 783.8 951.2 787.9C951.2 793.4 946.9 795.8 941.2 795.8C937.6 795.8 934.7 794.8 931.9 792.7V792.2H932.1Z" fill="#DDDDDD"/>
<path d="M974.1 792.8C971.8 794.8 969.4 795.9 965.7 795.9C957.8 795.9 954.6 790.5 954.6 782.7C954.6 775.3 958.3 769.9 966.4 769.9C969.3 769.9 972.1 770.8 974 772V772.6L971.9 776.7C970.5 775.7 968.8 775 967.3 775C963.8 775 962.3 778.2 962.3 782.7C962.3 787.5 963.5 791 966.8 791C968.7 791 970.4 789.8 971.6 788.5L974 792.2V792.8H974.1Z" fill="#DDDDDD"/>
<path d="M999.2 795.2H991.9C991.9 794.7 992.1 779.4 992.1 778.9C992.1 776.3 991.5 775.3 989.7 775.3C988.4 775.3 986.5 776.1 985.2 777.1L985.3 795.2H978V765.1C978 763 977.9 759.9 977.8 758.8L984.8 758.6L985.3 759.1V765.1C985.3 765.6 985.2 772.3 985.2 772.9C987.5 771.2 990.6 770 993.3 770C996.8 770 999.4 772.1 999.4 777.3C999.4 777.8 999.2 794.7 999.2 795.2Z" fill="#DDDDDD"/>
<path d="M1025 792.3C1022.5 794.5 1019.6 795.9 1015.8 795.9C1007.4 795.9 1003.9 790.1 1003.9 782.8C1003.9 775.6 1007.1 770 1015.4 770C1023.4 770 1026.3 775.2 1026.3 781.9C1026.3 782.7 1026.1 784.1 1025.8 784.9C1023.8 784.9 1011.8 784.8 1011.3 784.8C1011.4 787.5 1012.5 791.2 1016.7 791.2C1018.8 791.2 1020.6 790.1 1022.1 788.5L1025.1 791.8V792.3H1025ZM1019.3 780.9C1019.3 777 1018.2 775 1015.4 775C1012.9 775 1011.4 777 1011.3 781.1C1011.8 781 1019 780.9 1019.3 780.9Z" fill="#DDDDDD"/>
<path d="M777.8 856.8L774.3 852.9V852.2C777.3 850.2 777.9 849.4 777.9 845.2V826.7C777.9 825.3 777.8 821.8 777.7 820.7L784.9 820.6L785.4 821.1V844.4C785.4 851 783.4 853.5 777.8 856.8ZM785.4 816.7H777.8V810L778.3 809.5H785.3V816.7H785.4Z" fill="#DDDDDD"/>
<path d="M812.8 845.4H807L806.5 844.9L805.9 842.8L805.7 842.7C803 845.3 800.1 846 797.3 846C793.5 846 790.8 843.9 790.8 838.7C790.8 838.2 791 821.3 791 820.8H797.8L798.3 821.3C798.3 821.9 798.1 836.7 798.1 837.4C798.1 839.3 798.7 841 800.6 841C802.1 841 804.2 840 805.5 838.7L805.4 820.8H812.2L812.7 821.3V839.5C812.6 841.5 812.7 844.4 812.8 845.4Z" fill="#DDDDDD"/>
<path d="M839.7 845.4H832.4C832.4 844.9 832.6 829.6 832.6 829.1C832.6 826.5 832 825.5 830.2 825.5C828.9 825.5 827 826.3 825.7 827.3V845.4H818.4V827.1C818.4 825.3 818.3 821.8 818.2 820.7L824.3 820.5L824.9 821L825.3 823L825.4 823.1C827.7 821.4 831.1 820 833.8 820C837.3 820 839.9 822.1 839.9 827.3C839.9 828 839.7 844.9 839.7 845.4Z" fill="#DDDDDD"/>
<path d="M867.6 820.8C867.5 821.3 867.4 824 867.4 825.5V846.5C867.4 853.6 862 856.6 856.1 856.6C852.8 856.6 849.2 855.7 846.4 854.1L848.3 849.5H848.9C850.8 850.7 853.1 851.6 855.3 851.6C858.4 851.6 860.1 850 860.1 847.4C860.1 847 860.3 844.6 860.4 843.2L860.2 843.1C858.4 844.7 856.3 846.2 853.4 846.2C846.3 846.2 844.6 839.7 844.6 833.1C844.6 826.6 847.2 820.3 853.6 820.3C856.4 820.3 858.6 821.5 860.5 823.3L860.7 823.2L861.2 821.4L861.8 820.9L867.6 820.8ZM860.1 838.4C860.1 837.9 860.2 828.1 860.2 827.5C859.1 826.2 857.5 825.4 856.1 825.4C852.6 825.4 852.2 830.1 852.2 832.8C852.2 835.9 852.4 841 855.6 841C857.1 841.1 858.9 839.9 860.1 838.4Z" fill="#DDDDDD"/>
<path d="M893 842.5C890.5 844.7 887.6 846.1 883.8 846.1C875.4 846.1 871.9 840.3 871.9 833C871.9 825.8 875.1 820.2 883.4 820.2C891.4 820.2 894.3 825.4 894.3 832.1C894.3 832.9 894.1 834.3 893.8 835.1C891.8 835.1 879.8 835 879.3 835C879.4 837.7 880.5 841.4 884.7 841.4C886.8 841.4 888.6 840.3 890.1 838.7L893 842V842.5ZM887.3 831.1C887.3 827.2 886.2 825.2 883.4 825.2C880.9 825.2 879.4 827.2 879.3 831.3C879.9 831.2 887.1 831.1 887.3 831.1Z" fill="#DDDDDD"/>
<path d="M935.8 843.8C933.3 845.3 929.1 845.8 925.6 845.8C914.6 845.8 908.7 838.3 908.7 827.1C908.7 816.9 914 809 925.1 809C928.5 809 932 809.8 935.1 811.4L932.2 817.3C930.4 816.2 927.7 815.5 925.2 815.5C918.4 815.5 916.3 820.4 916.3 827C916.3 836.5 920 839.5 925.9 839.5C927 839.5 928 839.4 929 839.2C929 838.7 929 835.6 929.1 830C925.7 830.1 925.1 830.1 924.6 830.1C924.6 830 924.5 824.3 924.5 824.3H935.9V843.8H935.8Z" fill="#DDDDDD"/>
<path d="M961.9 842.5C959.4 844.7 956.5 846.1 952.7 846.1C944.3 846.1 940.9 840.3 940.9 833C940.9 825.8 944.1 820.2 952.4 820.2C960.4 820.2 963.3 825.4 963.3 832.1C963.3 832.9 963.1 834.3 962.8 835.1C960.8 835.1 948.8 835 948.3 835C948.3 837.7 949.5 841.4 953.7 841.4C955.8 841.4 957.6 840.3 959.1 838.7L962 842V842.5H961.9ZM956.2 831.1C956.2 827.2 955.1 825.2 952.3 825.2C949.8 825.2 948.3 827.2 948.2 831.3C948.7 831.2 955.9 831.1 956.2 831.1Z" fill="#DDDDDD"/>
<path d="M999.7 845.4H992.4C992.4 844.9 992.6 829.6 992.6 829.1C992.6 826.5 991.9 825.5 990.3 825.5C989.1 825.5 987.5 826.2 986.2 827.2V845.4H979C979 844.9 979.1 829.6 979.1 829.1C979.1 826.5 978.5 825.5 977 825.5C975.8 825.5 974 826.2 972.8 827.3L972.9 845.4H965.6V827.1C965.6 825.3 965.5 821.8 965.4 820.7L971.5 820.5L972.1 821L972.5 823L972.6 823.1C974.8 821.3 977.9 820 980.6 820C982.7 820 984.6 820.9 985.6 823.2C988.1 821.2 991.4 820 994 820C997.4 820 1000 822.1 1000 827.3C999.9 828 999.7 844.9 999.7 845.4Z" fill="#DDDDDD"/>
<path d="M1025.5 842.5C1023 844.7 1020.1 846.1 1016.3 846.1C1007.9 846.1 1004.5 840.3 1004.5 833C1004.5 825.8 1007.7 820.2 1016 820.2C1024 820.2 1026.9 825.4 1026.9 832.1C1026.9 832.9 1026.7 834.3 1026.4 835.1C1024.4 835.1 1012.4 835 1011.9 835C1012 837.7 1013.1 841.4 1017.3 841.4C1019.4 841.4 1021.2 840.3 1022.7 838.7L1025.6 842V842.5H1025.5ZM1019.8 831.1C1019.8 827.2 1018.7 825.2 1015.9 825.2C1013.4 825.2 1011.9 827.2 1011.8 831.3C1012.4 831.2 1019.5 831.1 1019.8 831.1Z" fill="#DDDDDD"/>
<path d="M1042.5 845.4H1031.6V826.7C1031.6 825.2 1031.4 821.8 1031.4 820.7L1041.8 820.6L1042.6 821.1V845.4H1042.5ZM1042.5 816.7H1031.6V810L1032.4 809.5H1042.5V816.7Z" fill="#DDDDDD"/>
<path d="M1066.1 845.4H1058.8C1058.8 844.9 1059 829.6 1059 829.1C1059 826.5 1058.4 825.5 1056.6 825.5C1055.3 825.5 1053.4 826.3 1052 827.3L1052.1 845.4H1044.8V827.1C1044.8 825.3 1044.7 821.8 1044.6 820.7L1050.7 820.5L1051.3 821L1051.7 823L1051.8 823.1C1054.1 821.4 1057.5 820 1060.2 820C1063.7 820 1066.3 822.1 1066.3 827.3C1066.2 828 1066.1 844.9 1066.1 845.4Z" fill="#DDDDDD"/>
<path d="M1094 845.4H1088.2L1087.7 844.9L1087 842.9H1086.8C1084.9 844.5 1082.7 846.1 1079.8 846.1C1072.7 846.1 1071 839.6 1071 833C1071 826.5 1073.6 820.2 1080 820.2C1082.8 820.2 1085 821.4 1086.5 822.8L1086.6 822.7C1086.5 820.7 1086.5 815.5 1086.5 815C1086.5 813 1086.4 810.1 1086.3 809L1093.3 808.8L1093.8 809.3V839.4C1093.8 841.5 1093.9 844.4 1094 845.4ZM1086.5 838.4C1086.5 837.9 1086.6 828.1 1086.6 827.5C1085.5 826.2 1083.9 825.4 1082.5 825.4C1079 825.4 1078.6 830.1 1078.6 832.8C1078.6 835.9 1078.8 841 1082 841C1083.5 841.1 1085.3 839.9 1086.5 838.4Z" fill="#DDDDDD"/>
<path d="M1119.3 842.5C1116.8 844.7 1113.9 846.1 1110.1 846.1C1101.7 846.1 1098.2 840.3 1098.2 833C1098.2 825.8 1101.4 820.2 1109.7 820.2C1117.7 820.2 1120.6 825.4 1120.6 832.1C1120.6 832.9 1120.4 834.3 1120.1 835.1C1118.1 835.1 1106.1 835 1105.6 835C1105.7 837.7 1106.8 841.4 1111 841.4C1113.1 841.4 1114.9 840.3 1116.4 838.7L1119.4 842V842.5H1119.3ZM1113.6 831.1C1113.6 827.2 1112.5 825.2 1109.7 825.2C1107.2 825.2 1105.7 827.2 1105.6 831.3C1106.2 831.2 1113.3 831.1 1113.6 831.1Z" fill="#DDDDDD"/>
<path d="M778.1 907.2V871.8H790.8C793.1 871.8 802.7 871.8 802.7 883.1C802.7 893 794.2 894.5 791.3 894.5C790.9 894.5 787.2 894.5 785.2 894.4C785.2 898.6 785.4 906.7 785.4 907.2H778.1ZM785.3 877.9C785.3 878.3 785.3 884.6 785.2 888.7C787 888.6 789.5 888.6 789.9 888.6C791.5 888.6 795.7 888.6 795.7 883.2C795.7 878 791.7 877.9 789.9 877.9C789.6 878 786.9 878 785.3 877.9Z" fill="#DDDDDD"/>
<path d="M815.5 907.2H808.2C808.2 906.7 808.3 892.6 808.4 887.7C807 887.8 805.6 887.8 805.1 887.8L805.2 882.6C805.6 882.6 807 882.6 808.4 882.6C808.4 882.4 808.3 878.1 808.3 877.9C808.3 872.1 811.7 869.9 816.2 869.9C818.1 869.9 820.1 870.2 822 871V871.8L820.5 875.9C819.7 875.4 818.7 875.2 817.9 875.2C816.5 875.2 815.5 875.9 815.5 878.7C815.5 879.6 815.6 882.4 815.6 882.6C817.1 882.6 820.1 882.6 820.5 882.6V887.8C820.1 887.8 817.1 887.8 815.6 887.7C815.5 892.6 815.5 906.7 815.5 907.2Z" fill="#DDDDDD"/>
<path d="M844.5 907.2H838.7L838.2 906.7L837.6 904.7L837.4 904.6C835.2 906.6 832.7 907.8 829.6 907.8C824.1 907.8 823.1 903 823.1 900.2C823.1 892.2 829.9 891.8 837.1 891.4V889.8C837.1 887.5 835.6 887 833.8 887C830.6 887 827.6 888 825.9 888.7L824.3 884.6V884C829 882.3 833.1 881.9 835.9 881.9C841 881.9 844.4 884 844.4 889.6V901.3C844.4 903.2 844.5 906.1 844.5 907.2ZM837.2 895.4C832.3 895.4 830.2 895.5 830.2 899.4C830.2 901.2 830.7 902.9 832.6 902.9C833.8 902.9 835.5 902.2 837.1 900.6C837.1 900.3 837.2 895.7 837.2 895.4Z" fill="#DDDDDD"/>
<path d="M857.3 907.2H850V891.1C850 890.1 849.9 883.6 849.8 882.6L855.5 882.4L856.1 882.9C856.3 884.6 856.4 886.2 856.4 886.5L856.7 886.6C858.2 884.3 860.8 882.5 862.9 882.2L863.5 882.7L864.8 887.9C862.3 888.5 858.8 890.2 857.4 892.6V907.2H857.3Z" fill="#DDDDDD"/>
<path d="M875 907.2H867.7V891.1C867.7 890.1 867.6 883.6 867.5 882.6L873.2 882.4L873.8 882.9C874 884.6 874.1 886.2 874.1 886.5L874.4 886.6C875.9 884.3 878.5 882.5 880.6 882.2L881.2 882.7L882.5 887.9C880 888.5 876.5 890.2 875 892.6V907.2Z" fill="#DDDDDD"/>
<path d="M885.9 918.6L882.4 914.7V914C885.4 912 886 911.2 886 907V888.5C886 887.1 885.9 883.6 885.8 882.6L893 882.5L893.5 883V906.3C893.5 912.8 891.5 915.3 885.9 918.6ZM893.5 878.5H885.9V871.8L886.4 871.3H893.4V878.5H893.5Z" fill="#DDDDDD"/>
<path d="M920.9 907.2H915.1L914.6 906.7L914 904.6L913.8 904.5C911.1 907.1 908.2 907.8 905.4 907.8C901.6 907.8 898.9 905.7 898.9 900.5C898.9 900 899.1 883.1 899.1 882.5H905.9L906.4 883C906.4 883.6 906.2 898.4 906.2 899.1C906.2 901 906.8 902.7 908.7 902.7C910.3 902.7 912.3 901.7 913.6 900.4L913.5 882.5H920.3L920.8 883V901.2C920.7 903.2 920.8 906.1 920.9 907.2Z" fill="#DDDDDD"/>
<path d="M948.5 882.6C948.4 883.1 948.3 885.8 948.3 887.3V908.3C948.3 915.4 942.9 918.4 937 918.4C933.7 918.4 930.1 917.5 927.3 915.9L929.2 911.3H929.8C931.7 912.5 934 913.4 936.2 913.4C939.3 913.4 941 911.9 941 909.2C941 908.8 941.2 906.4 941.3 905L941.1 904.9C939.3 906.5 937.2 908 934.3 908C927.2 908 925.5 901.5 925.5 894.9C925.5 888.4 928.1 882.1 934.5 882.1C937.3 882.1 939.5 883.3 941.4 885L941.6 884.9L942.1 883.1L942.7 882.6H948.5ZM941 900.2C941 899.7 941.1 889.9 941.1 889.3C940 888 938.4 887.2 937 887.2C933.5 887.2 933.1 891.9 933.1 894.6C933.1 897.7 933.3 902.8 936.5 902.8C938 902.9 939.8 901.7 941 900.2Z" fill="#DDDDDD"/>
<path d="M973.9 904.2C971.4 906.4 968.5 907.8 964.7 907.8C956.3 907.8 952.9 902 952.9 894.7C952.9 887.5 956.1 881.9 964.4 881.9C972.4 881.9 975.3 887.1 975.3 893.8C975.3 894.6 975.1 896 974.8 896.8C972.8 896.8 960.8 896.7 960.3 896.7C960.3 899.4 961.5 903.1 965.7 903.1C967.8 903.1 969.6 902 971.1 900.4L974 903.7V904.2H973.9ZM968.2 892.9C968.2 889 967.1 887 964.3 887C961.8 887 960.3 889 960.2 893.1C960.7 893 967.9 892.9 968.2 892.9Z" fill="#DDDDDD"/>
<path d="M998.9 907.2H991.6C991.6 906.7 991.8 891.4 991.8 890.9C991.8 888.3 991.2 887.3 989.4 887.3C988.1 887.3 986.2 888.1 984.8 889.1L984.9 907.2H977.6V888.9C977.6 887.1 977.5 883.6 977.4 882.5L983.5 882.3L984.1 882.8L984.5 884.8L984.6 884.9C986.9 883.2 990.3 881.8 993 881.8C996.5 881.8 999.1 883.9 999.1 889.1C999 889.8 998.9 906.7 998.9 907.2Z" fill="#DDDDDD"/>
<path d="M1026.8 907.2H1021L1020.5 906.7L1019.8 904.7L1019.6 904.6C1017.7 906.2 1015.5 907.8 1012.6 907.8C1005.5 907.8 1003.8 901.3 1003.8 894.7C1003.8 888.2 1006.4 881.9 1012.8 881.9C1015.6 881.9 1017.8 883.1 1019.3 884.5L1019.4 884.4C1019.3 882.4 1019.3 877.2 1019.3 876.7C1019.3 874.7 1019.2 871.8 1019.1 870.8L1026.1 870.6L1026.6 871.1V901.2C1026.6 903.2 1026.7 906.1 1026.8 907.2ZM1019.3 900.2C1019.3 899.7 1019.4 889.9 1019.4 889.3C1018.3 888 1016.7 887.2 1015.3 887.2C1011.8 887.2 1011.4 891.9 1011.4 894.6C1011.4 897.7 1011.6 902.8 1014.8 902.8C1016.3 902.9 1018.1 901.7 1019.3 900.2Z" fill="#DDDDDD"/>
<path d="M1044.9 907.2V871.8H1052.2C1052.2 872.3 1052.2 881.7 1052.1 885.8H1064.2C1064.1 881.7 1064.1 872.3 1064.1 871.8H1071.4V907.2H1064.1C1064.1 906.7 1064.1 898.5 1064.2 891.7H1052.1C1052.2 898.5 1052.2 906.7 1052.2 907.2H1044.9Z" fill="#DDDDDD"/>
<path d="M1099.8 907.2H1094L1093.5 906.7L1092.9 904.6L1092.7 904.5C1090 907.1 1087.1 907.8 1084.3 907.8C1080.5 907.8 1077.8 905.7 1077.8 900.5C1077.8 900 1078 883.1 1078 882.5H1084.8L1085.3 883C1085.3 883.6 1085.1 898.4 1085.1 899.1C1085.1 901 1085.7 902.7 1087.6 902.7C1089.1 902.7 1091.2 901.7 1092.5 900.4L1092.4 882.5H1099.2L1099.7 883V901.2C1099.6 903.2 1099.7 906.1 1099.8 907.2ZM1086.4 878.3H1080.1V872L1080.6 871.5H1086.3V878.3H1086.4ZM1097.6 878.3H1091.3V872L1091.8 871.5H1097.5V878.3H1097.6Z" fill="#DDDDDD"/>
<path d="M1115.9 871.1V901.2C1115.9 903.2 1116 906.1 1116.2 907.1H1105.6C1105.4 906.1 1105.3 903.1 1105.3 901.2V876.7C1105.3 874.7 1105.2 871.8 1105.1 870.8L1115.2 870.6L1115.9 871.1Z" fill="#DDDDDD"/>
<path d="M1116.8 904.2L1119 900.3C1120.7 901.8 1123 903.1 1125.3 903.1C1127 903.1 1128.8 902.4 1128.8 900.4C1128.8 898.2 1126.3 897.9 1123.4 896.6C1120.2 895.2 1117.5 893.5 1117.5 889.4C1117.5 884.1 1121.8 881.8 1127.1 881.8C1130 881.8 1133.1 882.5 1135.3 883.9V884.5L1133.2 888.6C1131.8 887.5 1129.8 886.8 1127.6 886.8C1125.7 886.8 1124.5 887.6 1124.5 889.1C1124.5 891.1 1126.8 891.5 1129.6 892.6C1133.5 894.1 1135.9 895.8 1135.9 899.9C1135.9 905.4 1131.6 907.8 1125.9 907.8C1122.3 907.8 1119.4 906.8 1116.6 904.7V904.2H1116.8Z" fill="#DDDDDD"/>
<path d="M689.9 911C644.2 911 619.4 879.2 619.4 832C619.4 788.9 641.8 755.9 689.2 755.9C703.6 755.9 718.6 759.4 731.6 766.1L717.2 794.6C710.5 790.2 700 787.4 690.2 787.4C663 787.4 655.6 805.9 655.6 832C655.6 873.1 671.3 881 690.6 881C694.3 881 697.8 881 701.5 880.3C701.5 878.3 701.5 868.1 701.9 846.8C689.3 847 686.9 847 684.7 847C684.7 846.4 684.3 819.6 684.3 819.2H734.6V901.7C723.8 908.6 705.1 911 689.9 911ZM571 957.1C594.3 942.5 603.2 931.6 603.2 902.7V812L601 809.8L566.8 810C567 814.4 567.5 822.9 567.5 829V906.7C567.5 924.1 565.3 927.4 554.2 935.2V938.2L571 957.1ZM433.3 759.6H468.8C468.8 762 468.8 792.7 468.1 825.7H469.2C471.8 819.6 475.5 813.1 478.3 809.2L513.8 759.6H554.7L505.1 824.4C518.8 848.5 538.4 880.8 554.7 908.8H513.8C506.2 893.1 489.7 864.9 480.7 847.2C476.6 852.2 472.2 856.8 468.1 861.8C468.5 885.9 468.8 906.8 468.8 908.8H433.3V759.6ZM585.2 797.8C595.8 797.8 604.4 789.2 604.4 778.6C604.4 768 595.8 759.4 585.2 759.4C574.6 759.4 566 768 566 778.6C566 789.2 574.6 797.8 585.2 797.8Z" fill="#08AEBA"/>
</svg>
