<svg preserveAspectRatio="none" width="1440" height="865" viewBox="0 0 1440 865" fill="none" xmlns="http://www.w3.org/2000/svg">
<path d="M0.439575 863.018C26.1788 752.517 250.366 670.275 395.5 632.5C500.343 605.212 596.917 522.595 688.418 444.317C747.613 393.677 804.685 344.853 860.5 314C924.523 278.61 991.324 257.103 1058.06 235.616C1193.55 191.995 1328.78 148.456 1440 -11L1440 839.023C1412.83 836.962 1376.83 840.673 1327.53 845.755C1257 853.025 1159.26 863.1 1021.21 863.1C857.238 863.1 733.639 850.871 624.685 840.092C538.813 831.596 462.039 824 381.765 824C236.366 824 71.2345 849.959 0.439575 863.018Z" fill="#C8DCE7"/>
<path d="M0 865C23.5 753.5 249.5 670.5 395.5 632.5C500.343 605.212 596.917 522.595 688.418 444.317C747.613 393.677 804.685 344.853 860.5 314C924.523 278.61 991.324 257.103 1058.06 235.616C1190.38 193.015 1332.3 150.493 1442 0H0V865Z" fill="#304C5C"/>
</svg>
