<svg width="58" height="58" viewBox="0 0 58 58" fill="none" xmlns="http://www.w3.org/2000/svg">
<path d="M14.3333 20.4762C10.8523 20.4762 8.19043 17.8142 8.19043 14.3333C8.19043 10.8523 10.8523 8.19043 14.3333 8.19043C17.8142 8.19043 20.4762 10.8523 20.4762 14.3333C20.4762 17.8142 17.8142 20.4762 14.3333 20.4762ZM14.3333 12.2857C13.1047 12.2857 12.2857 13.1047 12.2857 14.3333C12.2857 15.5619 13.1047 16.3809 14.3333 16.3809C15.5619 16.3809 16.3809 15.5619 16.3809 14.3333C16.3809 13.1047 15.5619 12.2857 14.3333 12.2857Z" fill="black"/>
<path d="M49.1429 0H8.19048C3.68572 0 0 3.68572 0 8.19048V49.1429C0 53.6477 3.68572 57.3334 8.19048 57.3334H49.1429C53.6477 57.3334 57.3334 53.6477 57.3334 49.1429V8.19048C57.3334 3.68572 53.6477 0 49.1429 0ZM8.19048 4.09524H49.1429C51.3953 4.09524 53.2381 5.9381 53.2381 8.19048V36.0381L43.2048 26.0048C40.7476 23.5476 36.8572 23.5476 34.6048 26.0048L24.3667 36.2429L20.2714 33.1715C18.0191 31.5334 14.7429 31.5334 12.4905 33.3762L4.09524 40.5429V8.19048C4.09524 5.9381 5.9381 4.09524 8.19048 4.09524ZM49.1429 53.2381H8.19048C5.9381 53.2381 4.09524 51.3953 4.09524 49.1429V46.0715L15.1524 36.4476C15.9714 35.8334 16.9952 35.8334 17.6095 36.4476L21.7048 39.5191C23.3429 40.7476 25.5953 40.5429 27.0286 39.1096L37.2667 28.8714C38.0857 28.0524 39.3143 28.0524 40.1334 28.8714L53.0334 41.7715V49.1429C53.2381 51.3953 51.3953 53.2381 49.1429 53.2381Z" fill="black"/>
</svg>
